<?xml version="1.0" encoding="UTF-8" standalone="no"?>
<!DOCTYPE svg PUBLIC "-//W3C//DTD SVG 1.1//EN" "http://www.w3.org/Graphics/SVG/1.1/DTD/svg11.dtd">
<svg xmlns="http://www.w3.org/2000/svg" xmlns:xlink="http://www.w3.org/1999/xlink" x="0" y="0" version="1.1" width="1170" height="300" viewBox="0, 0, 1170, 300" shape-rendering="geometricPrecision">
	<defs>
		<filter id="maskfilter">
			<feColorMatrix in="SourceGraphic" color-interpolation-filters="sRGB"
				values="0 0 0 0 0
						0 0 0 0 0
						0 0 0 0 0
						0.212656 0.715158 0.072186 0 0"/>
		</filter>

		<filter id="invert">
			<feColorMatrix in="SourceGraphic" type="matrix" color-interpolation-filters="sRGB"
				values="-1 0 0 0 1
						0 -1 0 0 1
						0 0 -1 0 1
						0 0 0 1.01 0"/>
		</filter>

		<g id="all-logo">
			<path d="m 430,0 570,1000 424,-785 424,785 570,-1000" id="window" fill="black" />

			<path d="
				m 0,1184.3
				42.097,0
				108.735,379.308
				102.715,-343.038
				52.007,0
				101,343.038
				108.538,-379.308
				42.1,0
				-125.598,428.3
				-50.161,0
				-101.851,-344.83
				-103.813,344.83
				-50.156,0
				-125.613,-428.3
				42.097,0

				m 578.615,278.3 102.16,-234.75 102.16,234.75 -204.32,0 z
				m 121.36,-278.3 -38.41,0 -191.29,428.3 42.74,0 49.51,-113.73 236.52,0 49.51,113.73 42.73,0 -191.31,-428.3

				m 405.66,228.898 c 47.67,-8.117 107.59,-33.449 107.59,-112.538 0,-112.54 -113.75,-116.36 -148.42,-116.36 l -122.72,0 0,428.3 40.62,0 0,-392.03 87.61,0 c 86.06,0 102.06,50.44 102.06,80.09 0,29.55 -16.63,79.769 -102.06,80.038 l -46.73,0 0,36.293 41.22,0 117.46,195.609 46.45,0 -123.08,-199.402

				m 580.81,199.302 125.63,-428.3 -42.11,0 -108.54,379.308 -99.1,-343.038 -55.82,0 -100.82,343.038 -108.72,-379.308 -42.11,0 125.64,428.3 50.13,0 103.81,-344.83 101.88,344.83 50.13,0

				m 194.32,0 40.86,0 0,-428.3 -40.86,0 0,428.3 z

				m 339.49,-25.39 c -114.53,0 -185.72,-82.289 -185.72,-188.77 l 0.02,0 c 0,-106.49 71.17,-189.71 185.7,-189.71 43.97,0 98.44,20.57 129.38,66.56 l 33.43,-24.82 c -41.46,-55.67 -98.43,-78.05 -162.81,-78.05 -133.73,0 -226.58,95.33 -226.58,226.02 0,130.7 92.85,225.071 226.58,225.071 64.38,0 121.35,-22.383 162.81,-78.063 l -33.43,-24.808 c -30.94,45.96 -85.41,66.57 -129.38,66.57

				m 221.35,25.39 40.8594,0 0,-428.301 -40.8594,0 0,428.301 z
				m 292.13,0 58.81,0 -226.31,-214.14 213.92,-214.16 -56.32,0 -218.87,214.16 228.77,214.14 z
				" id="logotype" fill="black" />
		</g>
	</defs>

	<g filter="url(#invert)">
		<g filter="url(#maskfilter)">
			<rect x="0" y="0" width="100%" height="100%" fill="white" />
			<g transform="translate(20) scale(0.0487804878)">
				<use x="0" y="0" xlink:href="#all-logo" />
			</g>
		</g>
	</g>
</svg>