<?xml version="1.0" encoding="UTF-8"?>
<!DOCTYPE svg PUBLIC "-//W3C//DTD SVG 1.1//EN" "http://www.w3.org/Graphics/SVG/1.1/DTD/svg11.dtd">
<svg version="1.1" xmlns="http://www.w3.org/2000/svg" xmlns:xlink="http://www.w3.org/1999/xlink" x="0" y="0" width="888" height="429" viewBox="0, 0, 888, 429">
  <defs>
    <mask id="logo-and-text">
      <rect x="0" y="0" width="100%" height="100%" fill="white" />
      <path id="text" d="
	M869.595,424.961 L887.789,424.961 L817.781,353.204 L883.959,292.467 L866.531,292.467 L798.825,353.661 L869.595,424.961 z M652.443,358.714 C652.443,325.778 674.466,300.327 709.895,300.327 C723.492,300.327 737.856,305.941 746.282,318.292 L756.624,309.871 C744.75,295.087 728.28,289.098 709.895,289.098 C668.529,289.098 639.802,318.292 639.802,358.714 C639.802,399.136 668.529,428.329 709.895,428.329 C729.812,428.329 747.431,421.404 760.263,404.188 L749.921,396.516 C740.345,410.738 723.492,417.101 709.895,417.101 C674.466,417.101 652.443,391.651 652.443,358.714 M606.32,424.961 L618.96,424.961 L618.96,292.467 L606.32,292.467 L606.32,424.961 z M399.521,424.961 L360.07,361.333 C375.009,359.462 394.734,352.538 394.734,327.274 C394.734,292.467 357.197,292.467 346.474,292.467 L310.852,292.467 L310.852,424.961 L323.425,424.961 L323.425,303.798 L323.492,303.798 L323.492,303.696 L350.304,303.696 C376.924,303.696 382.095,318.104 382.095,327.274 C382.095,336.444 376.924,350.854 350.304,350.854 L334.075,350.854 L334.075,362.082 L347.047,362.082 L385.159,424.961 L399.521,424.961 z M277.147,424.961 L291.319,424.961 L234.249,292.467 L221.226,292.467 L162.05,424.961 L175.264,424.961 L190.585,389.778 L264.125,389.778 L259.625,378.551 L195.564,378.551 L227.162,305.941 L257.086,376.848 L257.156,376.848 L262.975,391.098 L262.957,391.106 L277.147,424.961 z M139.42,424.961 L178.871,292.467 L165.849,292.467 L132.142,409.802 L131.76,409.802 L97.479,303.044 L81.392,303.044 L47.112,409.802 L46.729,409.802 L13.022,292.467 L-0,292.467 L39.451,424.961 L54.964,424.961 L89.244,317.642 L89.627,317.642 L123.907,424.961 L139.42,424.961 z,M448.012,425.083 L463.525,425.083 L497.805,317.642 L498.189,317.642 L532.469,425.083 L547.981,425.083 L587.432,292.589 L574.409,292.589 L540.704,409.924 L540.32,409.924 L506.04,303.044 L489.954,303.044 L455.672,409.924 L455.29,409.924 L421.584,292.589 L408.561,292.589 L448.012,425.083 z,M789.824,292.467 L777.184,292.467 L777.184,424.961 L789.824,424.961 L789.824,353.661 L789.824,292.467 z" fill="black" />
      <path id="logo" d="M204.084,0.25 L204.084,0.437 C249.669,80.616 295.399,160.712 341.265,240.73 L448.397,53.456 L473.74,97.831 L474.24,98.375 L532.209,199.906 L532.49,200.437 L532.521,200.437 L555.521,240.75 L578.521,200.437 L578.834,199.906 L692.834,0.25 L478.615,0.25 L474.24,0.25 L473.74,0.25 L418.209,0.25 z" fill="black" />
    </mask>
  </defs>

  <rect x="0" y="0" width="100%" height="100%" fill="white" mask="url(#logo-and-text)" />
</svg>
