<?xml version="1.0" encoding="UTF-8"?>
<svg id="Layer_2" xmlns="http://www.w3.org/2000/svg" version="1.1" viewBox="0 0 896.9 1092.3">
  <!-- Generator: Adobe Illustrator 29.3.1, SVG Export Plug-In . SVG Version: 2.1.0 Build 151)  -->
  <defs>
    <style>
      .st0 {
        fill: #fdfcfc;
      }
    </style>
  </defs>
  <g>
    <path class="st0" d="M243.3,319.5v-15.9c5.9-7.4,10.1-15.2,14.6-26.5l-.6-1.6c-4.6,10.2-8.5,15.8-14,22.2v-56.8s-3.7,1.6-3.7,13.1v66.7c-.7.1-1.4.2-2.1.2-1.5,0-3-.4-4.4-1.2v-88.4c-.1,0-3.8,1.7-3.8,13.5s0,65.5.1,72.1c-1.1-1-2.2-2.3-3.3-3.7v13.2c2,.6,4.2.9,6.4.9,23.2,0,32.6-34.7,32.6-34.7l-.7-2.1s-10.6,23.1-21.1,28.6Z"/>
    <path class="st0" d="M663.2,226.1c3.3,0,5.8,1.2,7.6,2.6,0,0,.1.1.2.2v-6.1c-1.2-.1-2.4-.2-3.7-.2h-1.4c-18.6,0-31.5,23.5-34.7,32.2-9.3-18.9-17.7-32.2-36-32.2h-1.4c-18.6,0-31.5,23.5-34.7,32.2-9.3-18.9-17.7-32.2-36-32.2h-1.4c-18.6,0-31.5,23.5-34.7,32.2-9.3-18.9-17.7-32.2-36-32.2h-1.4c-18.6,0-31.5,23.5-34.7,32.2-9.3-18.9-17.7-32.2-36-32.2h-1.4c-18.6,0-31.5,23.5-34.7,32.2-9.3-18.9-17.7-32.2-36-32.2h-1.4c-19.5,0-32.5,25.7-35.1,33.3-9.4-19.4-17.9-33.3-36.5-33.3s-8,1.4-8,1.4v1.6c1.2-.2,2.3-.5,3.9-.5,12.1,0,24.7,30,35.4,52.7,10.7,22.7,20.4,49.8,41.5,49.8s29.7-30.8,29.7-30.8l-.7-1.2s-8.4,20.1-19.7,24.6v-17.1c5.7-7.2,9.8-15,14.2-26l-.6-1.6c-4.5,10-8.4,15.6-13.6,21.8v-56.3s-3.7,1.6-3.7,13.1v66.9c-.2,0-.5,0-.7,0-2.7,0-5.2-1.3-7.8-3.6v-86c-.1,0-3.8,1.6-3.8,13.1s0,58.2.1,68.8c-2.8-3.6-5.6-8.3-8.6-13.9v-57.1s-3.7,2.8-3.7,12.4v37.4c-3.1-6.3-6.4-13.3-10-20.7-1.9-3.9-3.8-7.8-5.6-11.6,1.9-7.4,14.3-33.7,30.5-33.7s5.8,1.2,7.6,2.6c9.7,8.6,19.3,31.1,27.8,49.1,10.7,22.7,20.4,49.8,41.5,49.8s29.7-30.8,29.7-30.8l-.7-1.2s-8.9,21.1-20.6,24.9v-17.9c5.5-7.1,9.5-14.7,13.8-25.5l-.6-1.6c-4.4,9.7-8.2,15.3-13.2,21.3v-55.9s-3.7,1.6-3.7,13.1v66.9c-2.9,0-5.7-1.6-8.5-4.4v-85.1c-.1,0-3.8,1.6-3.8,13.1s0,54.9.1,67.6c-2.8-3.8-5.6-8.7-8.6-14.4v-55.4s-3.7,2.8-3.7,12.4v35.6c-2.9-5.8-5.9-12.2-9.1-18.9-2.1-4.3-4.1-8.6-6.1-12.8,2.7-8.6,14.8-32.5,30.1-32.5s5.8,1.2,7.6,2.6c9.7,8.6,19.3,31.1,27.8,49.1,10.7,22.7,20.4,49.8,41.5,49.8s29.7-30.8,29.7-30.8l-.7-1.2s-8.9,21.1-20.6,24.9v-16.9c5.9-7.4,10.1-15.2,14.6-26.5l-.6-1.6c-4.6,10.2-8.5,15.8-14,22.2v-56.8s-3.7,1.6-3.7,13.1v66.9c-2.9,0-5.7-1.6-8.5-4.4v-85.1c-.1,0-3.8,1.6-3.8,13.1s0,54.9.1,67.6c-2.8-3.8-5.6-8.7-8.6-14.4v-55.4s-3.7,2.8-3.7,12.4v35.6c-2.9-5.8-5.9-12.2-9.1-18.9-2.1-4.3-4.1-8.6-6.1-12.8,2.7-8.6,14.8-32.5,30.1-32.5s5.8,1.2,7.6,2.6c9.7,8.6,19.3,31.1,27.8,49.1,10.7,22.7,20.4,49.8,41.5,49.8s29.7-30.8,29.7-30.8l-.7-1.2s-8.9,21.1-20.6,24.9v-16.4c6.1-7.5,10.4-15.5,15-27l-.6-1.6c-4.7,10.5-8.8,16.1-14.4,22.7v-57.3s-3.7,1.6-3.7,13.1v66.9c-2.9,0-5.7-1.6-8.5-4.4v-85.1c-.1,0-3.8,1.6-3.8,13.1s0,54.9.1,67.6c-2.8-3.8-5.6-8.7-8.6-14.4v-55.4s-3.7,2.8-3.7,12.4v35.6c-2.9-5.8-5.9-12.2-9.1-18.9-2.1-4.3-4.1-8.6-6.1-12.8,2.7-8.6,14.8-32.5,30.1-32.5s5.8,1.2,7.6,2.6c9.7,8.6,19.3,31.1,27.8,49.1,10.7,22.7,20.4,49.8,41.5,49.8s29.7-30.8,29.7-30.8l-.7-1.2s-8.9,21.1-20.6,24.9v-17.5c5.7-7.2,9.8-14.9,14.1-25.9l-.6-1.6c-4.5,9.9-8.3,15.5-13.6,21.7v-56.3s-3.7,1.6-3.7,13.1v66.9c-2.9,0-5.7-1.6-8.5-4.4v-85.1c-.1,0-3.8,1.6-3.8,13.1s0,54.9.1,67.6c-2.8-3.8-5.6-8.7-8.6-14.4v-55.4s-3.7,2.8-3.7,12.4v35.6c-2.9-5.8-5.9-12.2-9.1-18.9-2.1-4.3-4.1-8.6-6.1-12.8,2.7-8.6,14.8-32.5,30.1-32.5s5.8,1.2,7.6,2.6c9.7,8.6,19.3,31.1,27.8,49.1,10.7,22.7,20.4,49.8,41.5,49.8s2,0,2.9-.2v-6.6c-2.3-.5-4.5-2-6.6-4.1v-85.1c-.1,0-3.8,1.6-3.8,13.1s0,54.9.1,67.6c-2.8-3.8-5.6-8.7-8.6-14.5v-55.4s-3.7,2.8-3.7,12.4v35.6c-2.9-5.8-5.9-12.2-9.1-18.9-2.1-4.3-4.1-8.6-6.1-12.8,2.7-8.6,14.8-32.5,30.1-32.5Z"/>
  </g>
  <g>
    <path class="st0" d="M515.6,514.6c-1.5.5-3.1,1-4.7,1.2,1.6,0,3.3-.3,4.9-.6,4.7-1.2,9.4-2.7,14.1-3.9,6-1.7,13.1-3,17.9,2.2-7.5-10.2-22.7-1.9-32.1,1.2Z"/>
    <path class="st0" d="M591.2,513.9c1.4.3,2.8.5,4.2.4-1.4-.2-2.7-.6-4-1.1-8.4-3.2-21.2-9.1-27.7.2,7.8-7.5,18.6-1.5,27.5.5Z"/>
    <path class="st0" d="M545.5,523.3s4.9,3.9,10.1,3.9,10.1-3.9,10.1-3.9c-6.7,1.4-13.6,1.4-20.3,0Z"/>
    <path class="st0" d="M540.8,523.3l.7-1.6-59.5-1,4.5-4.6c27.6,0,38.5-11.7,51.3-11.8,9.5.2,13.8,8.1,13.8,8.1l.6-14.1c-4.5-7.5-13.7-10.4-22.1-7.8-9,2.6-17.8,7.5-27.5,6.9,0,0,0-1.3,0-1.3,9.7-.3,17.4-6.1,26.6-8.9,7.5-2.3,17-1.3,23.3,4.2-4.6-6.7-13.5-10.1-21.9-7.5-8.9,2.5-17.5,7.9-27.1,7.1,0,0,0-1.4,0-1.4,2.3-.2,4.5-.6,6.7-1.2,6.9-1.8,12.5-5.7,19.5-7.8,7.7-2.4,16.9-.8,23.2,4.6v-.2c-5.1-7.3-13.9-10.3-22.6-7.8-4.3,1.1-8.4,3.1-12.8,4.8-4.4,1.8-9.2,2.9-13.9,2.5,0,0,0-1.4,0-1.4,9.4-.6,17.1-6.2,25.9-9,6.9-2.3,15.5-1.7,21.6,2.9.8.6,1.5,1.3,2.2,2v-1c-5.4-6.8-14.4-10.1-22.9-7.5-8.6,2.4-17,8.6-26.4,7.6,0,0,0-1.4,0-1.4,4.5-.4,8.7-1.8,12.8-3.6,11.2-5.5,22.3-10.8,33.9-2.4,1,.8,1.9,1.7,2.8,2.6v-1.4c-5.5-6.8-14.5-10.8-23.1-8.1-8.5,2.4-16.6,8.8-26,7.8,0,0,0-1.3,0-1.3,4.4-.4,8.6-1.8,12.6-3.7,6.7-3.4,13.4-6.7,20.2-6.7s13.5,4,16.6,6.8v-1.3c-5-6.5-14.7-11.1-23.4-8.4-8.4,2.4-16.3,9-25.6,8.1,0,0,0-1.1,0-1.1,4.4-.4,8.5-1.9,12.5-3.7,6.6-3.4,13.3-6.7,20-6.7s16.2,7.1,16.2,7.1l.4,2.3.2-4c-5.8-6.7-15-11.2-23.7-8.5-8.3,2.4-16,9.2-25.2,8.3,0,0,0-1.2,0-1.2,4.4-.4,8.4-1.9,12.3-3.8,6.6-3.5,13.3-6.7,20.1-6.7s14.4,5.7,15.6,7.7l1,2.4,1.4-33.2h.8l1.4,33.2,1-2.4c1.2-2.1,7.3-7.7,15.6-7.7s13.5,3.2,20.1,6.7c3.9,1.9,7.9,3.4,12.3,3.8,0,0,0,1.2,0,1.2-9.2.9-16.9-5.9-25.2-8.3-8.7-2.8-17.9,1.8-23.7,8.5l.2,4,.4-2.3s7.7-7.1,16.2-7.1,13.4,3.3,20,6.7c4,1.9,8.1,3.3,12.5,3.7,0,0,0,1.1,0,1.1-9.3,1-17.2-5.7-25.6-8.1-8.6-2.7-18.3,2-23.4,8.4v1.3c3.2-2.8,9.3-6.8,16.6-6.8s13.5,3.4,20.2,6.7c4.1,1.8,8.2,3.2,12.6,3.7,0,0,0,1.3,0,1.3-9.4,1-17.5-5.5-26-7.8-8.6-2.6-17.6,1.3-23.2,8.1v1.4c.9-.9,1.8-1.8,2.8-2.6,11.6-8.4,22.8-3.1,33.9,2.4,4.1,1.8,8.3,3.2,12.8,3.6,0,0,0,1.4,0,1.4-9.4,1-17.8-5.2-26.4-7.6-8.5-2.5-17.5.8-22.9,7.5v1c.7-.7,1.4-1.3,2.2-2,6.1-4.6,14.6-5.2,21.6-2.9,8.8,2.8,16.5,8.4,25.9,9,0,0,0,1.4,0,1.4-4.8.4-9.6-.7-13.9-2.5-4.4-1.7-8.5-3.8-12.8-4.8-8.7-2.5-17.5.5-22.6,7.8h0s0,.2,0,.2c6.3-5.5,15.5-7,23.2-4.6,7,2,12.7,6,19.5,7.8,2.2.6,4.4,1,6.7,1.2,0,0,0,1.4,0,1.4-9.6.8-18.2-4.5-27.1-7.1-8.4-2.6-17.3.9-21.9,7.5,6.2-5.5,15.8-6.5,23.3-4.2,9.2,2.8,16.8,8.5,26.6,8.9,0,0,0,1.3,0,1.3-9.7.6-18.5-4.3-27.5-6.9-8.4-2.6-17.6.3-22.1,7.8l.6,14.1s4.2-8,13.8-8.3c12.6.2,25.1,12.9,52.2,13.1l3.7,3.5-59.5,1,.7,1.6h60.4v-86s-4.3-3.6-4.3-3.6c-1.3,7.1-1.7,33.2-1.8,54.1h-.8c-1.6-14.4-1.6-44.1,1.4-59.9-1.6-.8-4.5-1.4-6-1.3,0-1.1.1-2.1.2-3.2h-4s0,1.4,2.6,1.2c-1.3,16.1-3,59.5-1.1,79.4h-.8c-4.6-26.4-3.2-56.1-2.5-87.1-14.2,3.5-21.9-7.5-37.9-7.5s-20.2,11.8-20.2,11.8c0,0-4-12.4-20-12.4s-22.9,13.9-37.1,10.4c.6,27,.6,46.9-2.6,68.4h-.9c.5-21.8-.7-50.9-2-63,2.5.2,3.8-1.2,3.8-1.2h-5.3c0,1.1.1,2.1.2,3.2-1.4,0-2.7.3-4.4,1.1,0,1.5,0,3,0,4.3h-1.2s-6.2,5.2-6.2,5.2v86h60.4ZM620.3,510.9c-3-24.6-2.7-58.3-1.1-81.7h4.2s-6.1,40.2,1.2,86c-4.1,0-12.1.9-24.6-3.4v-1.2c7.1,1.8,16.4,2.1,20.3.3ZM559,430.4c2.4-3.7,9.9-9.4,15.7-9.4s4.8.3,7.1,1c6.3,1.9,11.2,6.2,17.2,8.4,1.9.8,3.9,1.2,6,1.3,0,0,0,1.1,0,1.1-4.4.2-8.7-1.5-12.4-3.7-13.1-8-22.4-9.7-33.6,2.6v-1.4ZM558.8,436.7s7.2-9.2,15.6-9.2,12.8,3,19.2,6.7c3.7,2,7.6,3.6,11.8,3.9,0,0,0,1.2,0,1.2-4.5.2-8.8-1.4-12.6-3.5-13.1-7.7-22.8-9.6-34,2.8v-1.8ZM574.4,434c2.5,0,5,.3,7.4,1.1,6.4,2,11.5,6.2,17.8,8.2,2,.7,4,1.2,6.1,1.3,0,0,0,1.3,0,1.3-9.1.6-16.3-6.4-24.5-8.8-8.9-2.9-16.9,1.2-22.8,7.9,0,0,0-2.1,0-2.1,0,0,7.4-8.8,16-8.8ZM574.2,440.5c6.6,0,13.2,3.1,19.8,6.7,3.8,1.9,7.8,3.5,12.1,3.7,0,0,0,1.3,0,1.3-9.1.6-16.6-6.2-24.9-8.6-8.9-2.8-17.1,1.1-23,7.9l-.2-2.4c1.2-2,8.9-8.7,16.1-8.7ZM506.5,431.7c2.1-.1,4.1-.6,6-1.3,6-2.2,10.9-6.4,17.2-8.4,2.3-.7,4.7-1,7.1-1,5.8,0,13.3,5.7,15.7,9.4v1.4c-11.2-12.3-20.5-10.6-33.6-2.6-3.7,2.2-8,3.9-12.4,3.7,0,0,0-1.1,0-1.1ZM506.1,438.1c4.2-.3,8.1-1.9,11.8-3.9,6.3-3.7,12.7-6.7,19.2-6.7s15.6,9.2,15.6,9.2v1.8c-11.1-12.4-20.8-10.5-33.9-2.8-3.8,2.1-8.2,3.8-12.6,3.5,0,0,0-1.2,0-1.2ZM505.7,444.5c2.1-.1,4.2-.6,6.1-1.3,6.2-2,11.3-6.2,17.8-8.2,2.4-.7,4.9-1.1,7.4-1.1,8.6,0,16,8.8,16,8.8,0,0,0,2.1,0,2.1-5.9-6.7-13.9-10.7-22.8-7.9-8.2,2.4-15.4,9.4-24.5,8.8,0,0,0-1.3,0-1.3ZM505.3,450.9c4.3-.3,8.3-1.8,12.1-3.7,6.5-3.6,13.1-6.7,19.8-6.7s14.9,6.7,16.1,8.7l-.2,2.4c-5.8-6.8-14-10.8-23-7.9-8.2,2.4-15.7,9.3-24.9,8.6,0,0,0-1.3,0-1.3ZM492.2,429.2c1.6,23.4,2.5,55.1-.5,79.7,3.8,1.8,15.6,2.7,25.6-1.5v1c-10.8,5.3-24.6,6.1-29.6,6.1,3-32.2,1.3-85.3,1.3-85.3h3.2ZM486.7,433.9s.6,0,1.1,0c.3,13.1,0,18.3,0,30.2h-1.4c-.3-10.1-.9-19.7-2.2-28.7l2.5-1.4Z"/>
  </g>
  <path class="st0" d="M293,644.7c0,5.3,7.9.7,7.9,6.6h-.5s-.9-1.9-2.9-1.9c-4.7,0-6.7,7.3-7.7,14.6-.6,5.4,0,11.2,2,17.1.8,2.4,2.4,3.1,3.5,1.8,1.1-1.3.4-4.2.1-6.7-.2-1.7-.2-3.3-.2-4.9,0-9.1,4.3-16.1,4.3-16.1.3,2,3.5,3.3,5.6,1.7h.3c-1.2,1.9-3.7,3.5-6.1,3.8v.5c2.6,0,5.2-1,7.2-3,3.2-3.2,3.9-7.9,2.1-11.7,0,0,.2-.1.3-.2,3.7-2.5,7.9-4.3,12.6-5.5,1.5-.4,3.1-.7,4.8-.9,4.9-.6,10.3-.6,15.9.3,2.4.3,5.9-.2,5.9-.2,0,0-1.3-1.8-4.7-2.4-4.8-.9-9.4-1.3-13.9-1.3,6.8-7,15.2-11,24.4-11s17.6,4,24.4,11c1.1,1.1,2.2,2.4,3.2,3.7,4.5,5.7,8.1,13,10.5,21.5-4.7-4.1-9.9-7.8-15.5-11.2-5.9-3.5-12.1-6.4-18.1-8.6,6.5-1.6,12.7-2.3,18.5-2.1,1.6,0-.6-3.3-4.8-3-5.8.4-11.9,1.7-18,3.6-1.5.4-2.9.9-4.4,1.5-6.1,2.2-12.2,5-18.1,8.6-3.9,2.3-7.5,4.8-10.9,7.4-1.6,1.2-3.1,2.5-4.6,3.8,2.2-7.6,5.3-14.3,9.2-19.8.4-.6-4.8.9-6.3,4.5-2.4,5.7-4.8,11.8-6.4,18.4-.3,1.5-.7,3-.9,4.6-1.1,6.1-1.7,12.5-1.7,19.1s.6,13,1.7,19.1c-1.4-1.5-2.7-3-3.9-4.5-3.8-4.8-6.8-9.7-8.8-14.6,2.1-5,5-10.2,9.1-14.9,2.2-2.6.8-4.9.2-4.3-4.4,4.8-8,9.7-10.9,14.8-.8,1.5-1.6,3-2.3,4.4-6.1,12.8-7,25.6-1,35.6,5.1,8.6,14.5,13.8,26,15.6,1.5.2-.5-4.4-1.6-4.8-7.9-2.6-14.2-7.4-18.3-14.4-4.9-8.2-5.6-17.8-2.7-27.6,3.8,6.7,9,13.2,15.3,19.2,1.1,1.1,2.3,2.1,3.5,3.1,4.7,4.1,9.9,7.8,15.5,11.2,5.9,3.5,12.1,6.4,18.1,8.6,1.5.5,2.9,1,4.4,1.5,8.4,2.6,16.7,3.9,24.4,3.9,1.7,0,3.5,0,5.2-.2,13.6-1,24.9-6.4,30.7-16.2,5.9-10,5-22.8-1-35.6,4.2-8.8,5.9-17.7,4.6-25.6.2-.1.3-.3.5-.4,4.1-4.1,4.1-10.7,0-14.8-2.9-2.9-7.1-3.7-10.8-2.5-1.3-1-2.7-2-4.1-2.8-5.5-3.2-12.2-5.1-19.7-5.6,0,0,0,0,0-.1-7.8-11.2-18.2-18.1-29.5-18.1s-21.7,6.9-29.5,18.1c-7.4.5-14,2.4-19.5,5.5,0,0,0,0,0,0-4-2.5-9.4-2-12.8,1.5-1.9,1.9-2.9,4.3-3,6.8h.3c.7-2.2,2.2-4.8,3.9-5.6ZM407.9,720.4c-4.7,7.9-12.4,13.1-21.9,15.4,4-6.8,7.2-14.9,9.2-23.8,4.5-4.3,8.4-8.8,11.7-13.5.6-.8,2.1-5.8,2.1-5.8,0,0-1.9.2-3.3,2.2-2.7,4.1-5.6,8.4-9.4,12.4,1.1-6.1,1.7-12.5,1.7-19.1s-.2-7.7-.6-11.4c-.3-2.6-2.8-6.7-2.8-6.7,0,0-.5.9-.1,3.5.6,4.6,1,9.5,1,14.6,0,8-.8,15.5-2.4,22.3-.3,1.5-.7,3-1.2,4.5-2.4,8.5-6,15.7-10.5,21.5-7,.9-14.9.4-23.2-1.7,6.1-2.2,12.2-5,18.1-8.6,3.3-1.9,6.4-4,9.4-6.2,2.1-1.6,4.1-4.8,4.1-4.8,0,0-1.3-.6-3.8,1.4-3.4,2.6-7,5.1-11,7.5-7.2,4.2-14.3,7.4-21.2,9.5-6.9-2.1-14-5.3-21.2-9.5-6.9-4.1-12.9-8.6-18-13.5-1.6-6.8-2.4-14.3-2.4-22.3s.8-15.5,2.4-22.3c1.8-1.7,3.8-3.4,5.8-5.1,3.7-2.9,7.7-5.7,12.2-8.4,7.2-4.2,14.3-7.4,21.2-9.5,6.9,2.1,14,5.3,21.2,9.5,6.9,4.1,12.9,8.6,18,13.5,1.1,1.1,2.2,2.2,3.3,3.3,5.8,6.1,10.1,12.6,12.8,19.1.6,1.5,1.1,3,1.6,4.4,3,9.8,2.2,19.4-2.7,27.6ZM399,646.7c.2.1,1.4,1.1,2.8,2.4-2.7,4.1-2.3,9.6,1.3,13.2.5.5,1.1,1,1.7,1.4,0,0-.1-.7-.1-.7-2.9-2.9-3.8-9.3-1.6-12.7.3-.6.8-1.1,1.2-1.6l.4.4s-.6,2-.6,3.2c0,1.9,1.9,3.5,3.5,3.5s2.7-1.1,4.7-1.1,3.1,1.4,3.5,2.5l-.3.3s-1.1-1.2-2.4-1.2-2.6,1.6-2.6,3.5,1.8,5.1,1.8,13.4-.8,7.5-1.7,10.7c0,0,0,0,0,0-3.8-6.7-9-13.2-15.3-19.2-2-8.8-5.2-16.8-9.2-23.6,4.8,1.2,9.2,3.1,12.9,5.7Z"/>
  <path class="st0" d="M376.5,742.2s-1.9,1.4-3.7,2.7c-2.7,2-5.7,3.6-8.8,4.6-.2,0-.5.1-.7.2-.5-1-1.2-2-2-2.8-2-2-4.7-3-7.3-3-6.4,0-9.2,6-9.2,6l.6.2s2.2-2.5,3.5-2.8c0,0-1.2,2.7,1.3,3.5l.2.5c0,0-1.1.4-3,.4-5.1,0-14-7.2-18.2-11.5,5.6,0,11.5-.7,17.6-2.1,2.3-.5.8-2.7-4-2-5.9.9-11.6,1.1-16.8.4-3.1-3.9-5.7-8.6-7.9-13.8-1-2.4-3.8-6.4-3.8-6.4,0,0-.5,2.7.7,6,1.7,4.8,3.8,9.3,6.2,13.4.9,1.5,1.8,3,2.8,4.3,4.2,6.1,14.6,17.8,26.1,17.8s5.3-.8,5.3-3.3-.4-1.5-.4-1.5h.4s1.1.9,1.1,2.1c0,2-2.7,4,1.6,5.8-.1,1.4-5.1,3.2-8.2,1.8l-.5.6c1.2.6,2.8,1.1,4.5,1.1,2.6,0,5.3-1,7.3-3,1.5-1.5,2.5-3.4,2.8-5.3,0,0,0,0,0,0,4.9-1.9,9.4-5.1,13.5-9.3,2-2,.7-4.6.7-4.6h-1.9Z"/>
  <path class="st0" d="M325.9,688.1l-.2.3c3.4,1.8,7.7,1.3,10.6-1.6,3.5-3.5,3.5-9.2,0-12.8-3.5-3.5-9.2-3.5-12.8,0-2.7,2.7-3.3,6.8-1.9,10.1l.3-.2c-1-2.9.3-6.7,2.5-8.9,0,0-.8,4.6,2.7,8.1,3.5,3.5,8.1,2.7,8.1,2.7-2.3,2.3-6.5,3.6-9.4,2.3Z"/>
  <path class="st0" d="M370.7,674c-2.7,2.7-3.3,6.8-1.9,10.1l.3-.2c-1-2.9.3-6.7,2.5-8.9,0,0-.8,4.6,2.7,8.1,3.5,3.5,8.1,2.7,8.1,2.7-2.3,2.3-6.5,3.6-9.4,2.3l-.2.3c3.4,1.8,7.7,1.3,10.6-1.6,3.5-3.5,3.5-9.2,0-12.8-3.5-3.5-9.2-3.5-12.8,0Z"/>
  <path class="st0" d="M345.6,667c-1-2.9.3-6.7,2.5-8.9,0,0-.8,4.6,2.7,8.1,3.5,3.5,8.1,2.7,8.1,2.7-2.3,2.3-6.5,3.6-9.4,2.3l-.2.3c3.4,1.8,7.7,1.3,10.6-1.6,3.5-3.5,3.5-9.2,0-12.8-3.5-3.5-9.2-3.5-12.8,0-2.7,2.7-3.3,6.8-1.9,10.1l.3-.2Z"/>
  <path class="st0" d="M359.9,681.6c-3.5-3.5-9.2-3.5-12.8,0-2.7,2.7-3.3,6.8-1.9,10.1l.3-.2c-1-2.9.3-6.7,2.5-8.9,0,0-.8,4.6,2.7,8.1,3.5,3.5,8.1,2.7,8.1,2.7-2.3,2.3-6.5,3.6-9.4,2.3l-.2.3c3.4,1.8,7.7,1.3,10.6-1.6,3.5-3.5,3.5-9.2,0-12.8Z"/>
  <path class="st0" d="M332.2,702.4c-2.7,2.7-3.3,6.8-1.9,10.1l.3-.2c-1-2.9.3-6.7,2.5-8.9,0,0-.8,4.6,2.7,8.1,3.5,3.5,8.1,2.7,8.1,2.7-2.3,2.3-6.5,3.6-9.4,2.3l-.2.3c3.4,1.8,7.7,1.3,10.6-1.6,3.5-3.5,3.5-9.2,0-12.8-3.5-3.5-9.2-3.5-12.8,0Z"/>
  <path class="st0" d="M362,702.4c-2.7,2.7-3.3,6.8-1.9,10.1l.3-.2c-1-2.9.3-6.7,2.5-8.9,0,0-.8,4.6,2.7,8.1,3.5,3.5,8.1,2.7,8.1,2.7-2.3,2.3-6.5,3.6-9.4,2.3l-.2.3c3.4,1.8,7.7,1.3,10.6-1.6,3.5-3.5,3.5-9.2,0-12.8s-9.2-3.5-12.8,0Z"/>
  <path class="st0" d="M306.9,430c0-1.6,0-4.8,0-4.8,0-2.8-1.5-4.4-3.4-4.2-2.2.3-5.4,2-5.4,9.3,2.3-.6,4.6-1,6.9-1.3,0,.3,0,.6,0,.8-4.6.7-9,2.9-12.9,6.4,0,0-.1.1-.2.2,6.4-2.5,13-3.7,19.4-3.7-.6-.4-3.6-2.5-4.3-2.9Z"/>
  <path class="st0" d="M303.3,438.1c-2,.3-3.9,3-4.7,6.7,2.6-1,5.4-1.8,8.3-2.3-.1-2.6-1.2-4.8-3.7-4.5Z"/>
  <path class="st0" d="M329.9,404.6c0-2.4,0-4.7,0-7.1-1.1-.2-2.2-.4-3.3-.5v5.1c-.8,0-1.7-.2-2.5-.2v-5.1c-1.1,0-2.2-.1-3.3-.1v5.1c-.8,0-1.7,0-2.5,0v-5.1c-1.2,0-2.4.2-3.6.3v7.2c5-.6,10.2-.5,15.2.5Z"/>
  <path class="st0" d="M310.8,401.3c-1.1,0-2.2,0-3.3.1v5.1c-.8,0-1.7.1-2.5.2v-5.1c-1.1.1-2.2.3-3.3.5v5.1c-.8.2-1.7.3-2.5.5v-5.1c-1.2.3-2.4.6-3.6,1v7.2c5-1.6,10.2-2.4,15.2-2.4v-7.1Z"/>
  <path class="st0" d="M310.4,411.3s0,0,0,0c6.7-1.4,13.6-1.4,20.3,0,0,0,0,0,0,0-1.8-1.5-3.5-2.9-5.3-4.2-7.6-.8-14.3,3.6-15.1,4.2Z"/>
  <path class="st0" d="M311.7,414.9c-1.8-1.2-3.5-2.2-5.3-3.2-7.6.6-14.3,6.3-15.1,7.1,0,0,0,0,0,0,6.7-2.7,13.6-3.9,20.3-3.8,0,0,0,0,0,0Z"/>
  <path class="st0" d="M276.5,546.2c2.2.9,1.5,3.4,1.5,3.4h1.3s1.2-3.4-2.8-3.4Z"/>
  <path class="st0" d="M345.8,546.2c2.2.9,1.5,3.4,1.5,3.4h1.3s1.2-3.4-2.8-3.4Z"/>
  <path class="st0" d="M370.7,546.2c2.2.9,1.5,3.4,1.5,3.4h1.3s1.2-3.4-2.8-3.4Z"/>
  <path class="st0" d="M361.7,514.5c-.5.4-.6,1.6-.6,1.6,0,0,.9,1.1,1.5,1,2.6,12.1,2.2,28.2,15.1,28.2v.4c-2.7,1.7-.8,3.8-.8,3.8h4.1s1.6-2.3-.6-3.7c.3-1.6,0-2-2.1-3.6-2.2-1.7-4.9-3.9-5.7-8.4-.7-3.7-3.7-16.7-3.7-16.9-.9-.2-1.8-.8-2.7-1.6,1.6-.4,3-.8,4-1.4.2-.7,0-1.3-.8-1.8-1.1.8-2.6,1.3-4.3,1.5v-.5c1.6-1.4,2.7-3.1,2.8-4.8l-4.9-5.8c-2.7,3.5-3,7.4-1.2,11.9Z"/>
  <path class="st0" d="M311,545.4v.5c-2.7,1.6-.8,3.7-.8,3.7h4.1s1.6-2.3-.6-3.7c.3-1.6,0-2-2.1-3.6-2.2-1.7-5.3-6.2-6.2-10.8-.7-3.7-11.1,13.8,5.6,13.8Z"/>
  <path class="st0" d="M304.4,546.2c2.2.9,1.5,3.4,1.5,3.4h1.3s1.2-3.4-2.8-3.4Z"/>
  <path class="st0" d="M312.7,417.3c-1.1.7-2.2,1.4-3.2,2.2v7.9c1.1-1,2.2-2,3.2-2.9v-7.1Z"/>
  <path class="st0" d="M330.3,429.1c-1.4-1.3-2.8-2.5-4.2-3.7v-4.8c0-2.9-1.6-4.7-3.5-4.7-2.2-.1-5.4,1-5.4,8.2,2.3-.2,4.6-.2,6.9,0,0,.3,0,.6,0,.8-4.6-.1-9,1.2-12.9,4,0,0-.1,0-.2.1,6.4-1.3,13-1.3,19.4,0Z"/>
  <path class="st0" d="M331.7,419.7c-1.1-.7-2.1-1.4-3.1-2.1v6.9c1.1.9,2.1,1.9,3.1,2.8v-7.7Z"/>
  <path class="st0" d="M345,427.1c0-3.3-1.6-4.9-3.5-5.3-2.2-.5-5.4,0-5.4,7.3,2.3.2,4.6.6,6.9,1.2,0,.3,0,.5,0,.8-4.6-.9-9-.4-12.9,1.7,0,0-.1,0-.2.1,6.4-.1,13,1,19.4,3.4-1.4-1.5-2.8-3-4.2-4.4v-4.8Z"/>
  <path class="st0" d="M329.4,415.1c6.7-.2,13.6,1,20.3,3.6,0,0,0,0,0,0-1.8-1.8-3.5-3.5-5.3-5.2-7.6-2.1-14.3,1.1-15.1,1.6,0,0,0,0,0,0Z"/>
  <path class="st0" d="M342.8,446.4c-4.4-.6-13.8-1.8-24.4-1.8s-15.1,4.3-17.7,7.3c-8.1,9.2-7.8,24.8-7.4,30.2,2.3-1.2,6.8-2.9,13-2.9s7.8.6,11.7,1.2c5.4.8,10.5,1.5,14.8.8-1.1-12,2.2-28.2,10-34.6Z"/>
  <path class="st0" d="M341.4,438.8c-1.9-.4-3.7,1.4-4.5,4.4,3.9.4,6.7.8,8.1,1-.2-2.5-1.3-4.8-3.6-5.4Z"/>
  <path class="st0" d="M348.8,404.7c-1.1-.4-2.2-.8-3.3-1.1v5.1c-.8-.2-1.7-.5-2.5-.7v-5.1c-1.1-.3-2.2-.5-3.3-.7v5.1c-.8-.2-1.7-.3-2.5-.4v-5.1c-1.2-.2-2.4-.3-3.6-.3v7.2c5,.3,10.2,1.3,15.2,3.1v-7.1Z"/>
  <path class="st0" d="M326,442.3v-4c0-2.7-1.1-5.4-3.7-5.5-2.6-.1-4.9,3.9-5,9.1.4,0,.7,0,1.1,0,0,0,0,0,0,0h0c2.6,0,5.2.2,7.6.3Z"/>
  <path class="st0" d="M309.4,437.1v5.2c1.1-.1,2.1-.2,3.2-.2v-7c-1.1.6-2.2,1.3-3.2,2Z"/>
  <path class="st0" d="M331.7,437.1c-1.1-.7-2.1-1.3-3.1-1.9v7.2c1.1,0,2.1.1,3.1.2v-5.6Z"/>
  <path class="st0" d="M577.2,758.5c0,.4.7,1.2,1,1.4h.3s0-1-.2-1.4c-.3-.5-.7-.3-1.1,0Z"/>
  <path class="st0" d="M564.2,705.6v3.6c1.7-.7,1.6-1.9,1.6-4-.7-.6-.9-.6-1.6.4Z"/>
  <path class="st0" d="M561,705.6l-1.2,3.6c1.3-.4,2.1-2.4,2.1-3.1s-.9-.5-.9-.5Z"/>
  <path class="st0" d="M598.8,704.1c0-3.3-2.8-5.5-2.8-5.5h-4.4l-.3-.9c0-.1-3.2-8.8-5.8-15.9,0,0-.2-3.3-2.3-7.5-3.5-6.8-6.7-10.2-6.7-10.2l3.8.5c-4.8-6.8-9-10.4-12.9-11.6-.2,0-.5,6.2-.5,6.2-2.8-3.4-4.7-7.1-6-11.1-.8,1.3-1.4,3.4-1.4,3.4,0,0-5.1-5.9-5.1-11.2s1-3.4,1-3.4c0,0,1.7,1.4,3.6,1.4s3.9-.9,4.8-2c0,0,1.2,2.3,3.3,2.3s3.7-.6,5.4-.6l-1.2-1.3h-3.2s.6-2.1,4.5-2.1c0-2.9-2.2-3-2.2-4.4s1.4-1.7,1.4-1.7c-4.9-.6-5.9-3.6-5.9-4.7-3.9-.8-9.1-.4-12.9.5l-1,.2s-.8-3.3-3.9-3.3-3.5,1.5-3.5,3.4c0,3.2,3.3,4.3,3.3,4.3,0,0-1.5-1.8-1.5-3.4s.9-2.2,2.1-2.2c2,0,2.3,2.6,2.3,2.6l2.8.4c-9.1,10.4,1.2,29.3,1.3,29.4-6.5.2-8,6.5-8.1,14.4l-2.3-1.4c-.1,0-2,9.2,6.4,18.8l-2.6.5c5.8,6.9,9.9,6.1,11.4,8.6,1.5,2.5,1.5,6.5,3.5,6.5s4-2.8,5.2-.4c0,0-.9.1-.9,1.2s1.1,2.4.9,4.2c0,0,2-.8,2-6.5,0,0-2.7-1.8-4.4-5-1.7-3.2-11-17-8.9-23,0,0,1.9,1.7,2.3,1.7,0,0,.8-4.2-.1-9.6h.8s6.9,12.8,6.9,15.6c0,0,0,1.4-1,2.2,0,0,8.1,13.7,8.1,24.4s-2.9,14.9-4.7,18.3c5.1-4.9,10.7-12.3,10.7-21.5,0-14.5-4.8-21.8-4.8-21.8,0,0,.5-.5.5-1.7,0-1.9-2.6-13.1-2.6-13.1l1.1-2.4s3,12.7,7.6,16.3c1.3,6.1,4.9,12.1,4.9,12.1-1,0-2.1-.2-3.1-.6,0,0,2.5,8.2,8.7,8.2s1.7-.4,2.5-.4c2.8,0,2.9,5,2.9,5,0,0,1.3-.2,1.3-2.2ZM561.2,626.3c2.4,0,3.9,1.6,3.9,1.6-.6.5-.8,1-1,1.7h-2.7c-1.8,0-1.7-1.5-1.7-1.5h-1.6s.4-1.8,3.1-1.8Z"/>
  <path class="st0" d="M598.6,708.2h-1.6l1.8,3.1c1.2-.4.7-2.6-.1-3.1Z"/>
  <path class="st0" d="M553.3,758.6c0,.5.9,1.6,1.3,1.9h.4s0-1.2-.3-1.9c-.4-.6-.9-.4-1.4,0Z"/>
  <path class="st0" d="M577.3,728.5c1.2-.2,2.3-.6,3.3-1.1-.4,4.2-1.8,8.1-4,11.6,0,0,1.4,0,2.6-.4,0,0-.2,5.4-2.8,11.4,0,0,10.1-5.5,10.1-15s-4.2-17-4.2-17c-.9,3.4-3.3,8-5,10.4Z"/>
  <path class="st0" d="M581,757.5c-.8,0-1.2.6-1.2.6.8.2,1.9,1.1,2.4,1.8h.7s-.9-2.4-1.9-2.4Z"/>
  <path class="st0" d="M577,755c-.9,0-1.1-.8-2.2-.8s-2.7,1.9-2.7,1.9c0,0,.5-.2,1.3-.2s2.1.7,2.9.7,1.3-.8,2.8-.8,4.3,1,5.9,1.8c0,0-.6.4-.6.9,0,1.4,3.4,1.4,3.4,1.4-1.2-3.7-7.7-5.8-8.7-5.8s-1.5.9-2.1.9Z"/>
  <path class="st0" d="M551,715.8l-.4.4s4.2,6.9,4.2,18.5l-2.5-1.2s1.9,7.7.4,17.5c-.1.7-1.3,4.3-3,4.3s-3.1,2.3-3.1,2.3c0,0,1.3-.5,2.4-.5s1.9.5,2.5.5.9-1,2.9-1,2.6,3.3,2.6,3.3c.5-.7,1.2-1.8,1.2-2.6,0-.6-1.9-2-3.8-2.9l-1.6-.8,1.1-1.4c2.5-3.1,6-8.6,6-13.9s-.6-6.8-.6-6.8l2.2.5c0,0-1.8-9.6-10.6-16.2Z"/>
  <path class="st0" d="M278.8,520.7c0,1.9-4.5,3.3-7.2,3.3v.7s2.7.5,3.2,2.7c0,0-2.1,2.7-2.1,6.8,0,6.3,5.5,11.3,9.9,11.3v.6c-2.1.4-1.6,3.6.6,3.6h4.1s1.2-2.6-.5-3.9c0,0,.6-1.7-1.5-2.7-1.7-.8-3.8-2.1-3.8-6.5,0-6.1-.3-9.7-2.9-10.5v-.5c8.6-1.3,21.2-21,21.2-25.9,0,0,3.4,3.3,11.3,3.3,17.9,0,25.9-21.1,29.9-21.1,0,0-1.4,2.7-1.4,7.5s4.6,12.3,4.6,12.3v-6.2s5.1,5.7,5.1,13.8-1.3,4.8-1.3,4.8c-1.1-.2-1.9,1.1-1.9,1.1,0,0,0,1.4.6,1.8,0,0-3.8,13.1-3.8,19.6s5.2,8.7,9.5,8.7v.5c-2.3,1.6-.9,3.8.5,3.8h3.7c.8-.7.8-3.2-.9-3.7,0,0,.4-1.1-.8-2.3-1.7-1.7-3.6-4-3.6-8.4s2-14.5,2-14.5c-.6-.6-.9-1.5-1-2.5.7.3,2.6.6,3.5.4.5-.7.6-1.3.1-1.8-.8-.1-2.7-.4-3.9-1v-.4c1.7-.3,5.9-1.4,5.9-3.9,0,0-.7-4.2-.7-9.4,0-9.8,6.6-14.1,6.6-21.1s-1.2-4-1.2-4c0,0,4.4-1.7,4.4-11.5s-6.3-18.2-6.3-18.2l.6-.6s4.2,8.5,10.1,8.5,6.6-2.2,6.6-2.2c0,0,2.2,4.2,7.1,4.2s7-2.8,7-2.8c0,0-1,1.9-1,3.7s.5,3.7,2.6,3.7c3.8,0,3.9-5.5,8-5.5s1.9.5,1.9.5c-1.4.6-2,1.5-1.9,2.6,6.2,3.1,18.7,1.3,23.6-3.3-1.6.4-5.6,1.6-10.2,1.6s-8.6-1.5-8.6-1.5c0,0,17.1.4,17.1-14.6s-5.8-14.4-11.9-21.8c-4.9-5.9-9.1-11-9.1-15.5s2.4-5.6,4.6-6.6c-1.2-1.3-1.9-2.9-1.9-4.7-2.9,1.5-6.4,5.1-6.4,11.6,0,9.4,17,29.1,17,29.1,0,0-2.3,1.7-1.7,4,.6,2.3,3.5,3.4,3.5,3.4,0,0-3.3,0-4.3,1.5-1,1.5.3,4.7.3,4.7-.9-.4-1.6-1-2-1.9-2.1.1-2.6,2.4-3,4.9-.7-.6-1.1-1.4-1.3-2.6-2.3.6-3.7,2.5-4.7,4.8-.5-2.2-.2-4.6,2.1-7.1-1.4-1.4-3.8.3-6.1,1.7.9-2.1,2-3.7,3.7-4.1-1.6-1.1-3.4-1-5.3,0,0,0-1.3-4.8-5-7.2-3.7-2.4-8.6-1.9-8.7-1.9h-.9c0,0-4.8-6.4-11.2-6.4s-12.3,4.9-12.6,11.1c0,0-13.6,4-13.6,12.4s15.3,13.2,15.3,23.6-1,4.9-1,4.9h-.6s.3-1,.3-2.7c0-6.2-9-12.8-16-12.8s-7,4.1-7.6,6.2c0,.1,0,.2,0,.3-.1.6-.2,1-.2,1h0c-.7,3.3-.5,7.4,0,11.4l-2.1.7h0s-.1,0-.3.1h0s0,0,0,0c-.8.3-3.1.9-5.7.9-18.5,0-24.1,6.3-25.9,10.4h-.5c0-13.7-11.5-7.2-11.5-7.2,0,0-2.5-30.6,14.6-41.7-11,2.2-21.9,17.5-21.9,29.3s2.9,18.1,2.9,25c0,13.7-7.1,18.5-7.1,18.5,0,0,1,.7,1,1.9ZM390.5,443.1c3.6,0,4,3.2,4,3.2,0,0-1.1,1.3-3.2,1.3s-2.7-1.1-2.7-1.1l-2.3.6s.7-4,4.3-4Z"/>
  <path class="st0" d="M549.6,759.2c0,.5.4,1.3.4,1.3h.4s.4-.6.4-1.2c-.4-.6-.8-.5-1.3,0Z"/>
  <path class="st0" d="M403.2,464v.5c2.2,1.3,4,3,5,4.9h.4c0-1.7-.4-3.2-1.2-4.4-1.4-.2-2.8-.5-4.3-1Z"/>
  <path class="st0" d="M502,713.8c4.9-5.1,8.1-7.6,10.6-8.4,3.5-1.1,4.2-3,6.7-6.2-2.9-3.9-1.8-5.4-1.7-5.7,1.1,1.7,3.7,3.1,5.5,3-.1-.6-.6-2-2.1-3.7-1.3-1.4-2.5-2.1-3.3-2.4-1.4,2.2-3.7,6-5.9,8.3-1.8,2-7.5,7.7-9.6,9.2l-1.7-.6-.4-21.6c2.4-3.4,5-5.9,8-7.6,2-2.5,1.1-5.6.1-8.7l.6-.7c2,2,4.2,3.1,6.7,3.2-.2-1-.9-2.8-2.3-4.2-1.4-1.4-3.3-1.6-4.2-1.7l-8.6,9.4-.6-2.4c0-.1,1.1-5.8,1.1-10.5s1.3-9.6,1.3-12.2,0-9.2-.1-11.9c-1.1-.6-4.1-1.9-9.2-1.9s-7.1,1.2-7.9,2c4.7,2,9.5,2.1,14.6.6v1.3s-9.9,4-9.9,7.6v14h-.9s-1.2-5.6-2.6-5.6-2.6.8-2.6.8l-12.7-13.5c.1,1.7-2.1,4.1-3.9,5.2l4.2,5.4,7.8,7.9-.6-2.2-4.6-5.8,1.1-.5c9.3,6.8,11.8,9,11.8,14.3s-.3,6.9-.3,6.9h.9c0,0,1.7-3,1.7-3,0,0,.7,0,.7,0v19.9s-.7-.5-2.3-.4c-2.1,0-3.5,2.6-5.8,2.6l-10.1-10.8c.3,1.7-.2,3.2-1.5,4.5,2.4,3.1,10.1,9.3,13.2,11.8,3.1,2.4,8.7,0,8.7,0,0,0,2.1,4.1-2.2,6.3v24.2l-8.5-4.3-9.2-8.1s.1,2.5-.5,3.9c-.7,1.4-1.8,2.3-1.8,2.3l10.9,7.3,2.5,2.3,6.6,6.8v14.9h.9l1.7-9.1h1c.5,5.7,2.7,11,5,14.2,0,0,.9-13.2,3.4-15.5,1-.9,6.1-5.9,8-7.2,0,0-1.2-1.9,0-3.2.6.9,5.2,4.3,6,3.3-.4-1-1-2.6-2.1-4.1-1-1.5-2.9-1.8-3.8-1.9l-9.1,8.7-1.2-16.4-2.9,3.9c-1.1-8.7,3.2-11.7,5.2-13.7Z"/>
  <path class="st0" d="M545.4,759.2c0,.5.4.7.4.7h.4s.4-.1.4-.7c-.4-.6-.8-.5-1.3,0Z"/>
  <path class="st0" d="M357.8,539.4v-2.6c0-.5-.7-3.3-1.9-7.9-.7,2.4-1.4,5-1.4,6.9,0,3.1,1.4,4.5,3,6.1.6.6,1.3,1.3,1.8,2,0-.5.1-.9.2-1.3-.8-.7-1.7-1.8-1.7-3.4Z"/>
  <path class="st0" d="M225.8,357.2v221.4c0,57.1,11.7,108,34.8,151.2,18.5,34.5,44.2,64.3,76.6,88.4,54.3,40.5,111.5,51.7,111.5,51.7,0,0,56.9-11.3,111.2-51.7,32.3-24.1,58.1-53.8,76.6-88.4,23.1-43.2,34.8-94,34.8-151.2v-221.4H225.8ZM256.2,509.3c3.2-3.1,6.4-6.3,7.4-11.2,5.3-25.6,15.3-43.1,29.1-51.3v-6.1c-1-.3-2-.5-3-.7h-.7v-4.5l.2-.2c1.1-1.3,2.3-2.7,3.4-4v-8.1c-1-.4-2-.7-3-1l-.6-.2v-5.1l.2-.2c.5-.7,1-1.4,1.6-2-.4-.1-.8-.3-1.2-.4l-.6-.2v-11.4l.5-.2c6-2.6,12.2-4,18.4-4.4v-3.2l.7-.2c3.9-.9,7.9-1.4,11.9-1.4s8,.5,11.9,1.4l.7.2v3.3c6.3.3,12.5,1.7,18.5,4.2l.5.2v12.5s-1.3.1-1.6.1c.4.5.9.9,1.3,1.4l.2.2v5l-.6.2c-1,.3-2.1.6-3.1,1v8.1c1.2,1.3,2.4,2.6,3.6,3.9h0c7.1-7.2,13.5-10.9,18.9-10.9,8,0,12.6,4.9,13.7,6.3.1,0,.3,0,.4,0,3.7,0,6.7.8,9,2.5,2.4,1.7,6,4.5,8.7,6.6.7.5,1.3,1,1.8,1.4.1,0,.2,0,.3,0,1.1,0,2.2.5,3.1,1.1.5-.6,1.1-1.1,1.8-1.4-.2-.8,0-1.8.5-2.5-.8-1.2-.9-2.8-.8-4l-.3-.4c-9.8-13.2-14.8-23-14.8-29.1,0-11.3,11.6-15.4,12-15.6l.5-.2,2.4,2.2v.5c-.7,2.3-.2,3.7,1.9,4.9l.5.3-.7,3.5h-.6c-.2.1-4.3.7-4.3,4.1s4,8.2,8.3,13.3c6.4,7.8,13.7,16.5,13.7,26.4s-1.1,7-2.3,9c1.5,0,3.1-.5,4.3-1.2l.6-.4,1.2,1.3-.3.5c-4.3,7.2-11.8,11.7-20.1,12.3.7,1.9.8,4.1.3,6.5v.5c0,0-3,1.1-3,1.1l-.4-.3c-2.2-1.8-7.3-5.1-10.8-5.1s-2.9.6-4.2,2c-1.1,1.1-2.4,2.4-4.7,3.7-.8.5-1.8,1-2.8,1.5-6.7,3.7-19,10.5-19,16.8s4.2,15.2,4.2,15.2l.4.7-.3,1.9c1.5.8,2.3,2,2.3,3.3s-.2,1.7-.4,2.3c.6,3.7,2.3,14.7,2.9,17.8.6,3.3,2.5,4.8,4.5,6.3,2.1,1.7,4.5,3.6,4.5,7.3s-1.3,4.9-1.6,5.2l-.6.7h-19.6l-.6-.5c-.2-.2-1.6-1.3-2.5-3-.4,1.4-.9,2.4-1,2.5l-.6,1h-22.7l-.5-.4c-.1,0-3.1-2.2-3.1-6.2s.9-4.1,1.7-5.7c.3-.7.9-1.9.9-2.2,0-.6-.2-1.2-.4-1.8-.3-.7-.6-1.6-.6-2.7s1.5-10.2,2.2-14.2c-.5-1.2-1.3-3.2-1.3-4.8s.4-2.2.9-3c-1.1-1.7-2-3.4-2.7-5.4-7.6,4.3-16.3,6.6-25.9,6.9.3,3.6.8,10.4,1.1,13.1.1,1.6.8,2.9,1.5,4.4.7,1.5,1.5,3,1.7,4.8,0,.7,1.8,2.3,2.8,3.3,2.3,2.2,4.9,4.8,4.9,7.9s-1,4.8-1.2,5l-.6,1.1h-20.4l-.6-.6c-.5-.5-2.9-3.1-2.9-5.6s.2-2.8.4-4.2c-1.4-.9-2.1-2-2.1-3.4v-4.4c0-1.1-1.1-5.1-2.9-10.2-1.6,3.2-3.5,7.9-3.5,12.1s.7,2.8,2.1,3.6c1.6.9,4.1,2.3,4.1,6.8s-1.8,5.7-1.9,5.8l-.3.3h-23.3l-.2-.2c-.1,0-3.1-2.4-3.1-5.8s.3-3,.7-4.4c.3-1.4.7-2.7.7-4.2s0-1.3-.2-2c-.1-1-.3-2.1-.3-3.3,0-2.2,1-4.9,1.8-7,0-.2.2-.5.3-.7-.4-.7-.6-1.4-.6-2.2,0-1.1.6-2.2,1.9-3.1-.1-.4-.2-.9-.2-1.3,0-.8.4-1.9,1.5-5.1,2-5.6,5.3-15.8,5.8-24-4.5,5.6-10.4,16-10.4,19.2,0,5.3.7,7,.7,7l-.9.9s-1-.7-2.3-1.9c0,0-1.1,3.1.3,6.6l-.7.9c-1.9-.9-2.9-3.2-3.2-5.1-1.6.7-1,5.3-.9,7.1l-1.4.4c-1.2-2.1-1.6-5.7-1.2-8.2-2.6,1.1-1.5,5.5-1.2,7.2l-1.6.6c0,0-1.6-2.2-1.6-5.8s3.6-6.4,6.6-9.4ZM508.5,727.7h.8s.1,0,.3,0c1.1,0,4.9.3,7.2,3.5,2.1,3,2.9,6.1,2.9,6.2l.4,1.6-1.4.9c-.8.5-7.6,5-9.6,6.8-1.6,1.5-3.7,4.9-4.4,6.2v10.7h-25l-.6-25.2c-.7-1.1-3.5-4.7-5.1-5.7-2.3-1.3-7.4-4-8.9-4.8l-1-.5-.2-1c0-.1-.9-3.7,1.1-7.3,1.9-3.5,6.1-5.5,6.3-5.5l1.3-.6,6.7,5.9c.3-1.5.6-3.2.6-4.8,0-2.8-.7-6.7-1.1-8.6-1.3-.6-3.2-1.7-4.7-3-1.9-1.8-9.2-11.3-10-12.4l-.4-.5v-.6c-.1-.3-.3-3.3,1.9-6.1,2.1-2.7,5.4-3.8,5.5-3.9l1.3-.4,7.5,8c.5-1.9,1-4.2,1-5.9,0-3-.7-6.4-1-7.6l-18.9-23.2.2-1.1c0-.4.8-3.9,3.3-6,2.3-2.1,5.8-3.1,6-3.1l1.3-.4,8.5,9.4.4-11.1.5-.6c.1-.2,3.7-4.4,11.9-4.4s11.7,2.8,11.9,2.9l.8.6v1c0,.1.9,12.1.9,14.4s-.4,2.5-.8,4.1c-.5,2-1.1,4.2-1.1,6.6s0,1.9.1,2.9l2.7-2.9h.9c0,0,.2-.1.6-.1,1.3,0,4.5.3,7,2.7,3,2.9,3.5,6.9,3.5,7v1.1c.1,0-4.3,4.4-4.3,4.4l.5,3.8-.8.2c-3.8.8-7.2,2.9-10.1,6.2l-.3,12.7c2.2-1.6,3.9-3,4.8-4.1,2.3-2.5,5.7-8.1,6-8.7l.8-1.3,1.5.2c.3,0,3.3.6,6.3,3.9,3,3.3,3.1,6,3.1,6.5v.6l-.3.5c-1.8,2.8-5,7.7-6.7,9.1-.9.7-2.2,1.4-3.6,2-1.5.7-3.4,1.7-4.3,2.6-1.3,1.4-5.4,7.9-7.5,11.3v8.5l4-3.8ZM602.4,710.4c0,3.5-4.7,4.3-4.9,4.3h-.9c0,.1,0-.8,0-.8,0-.7-.2-1.2-.5-1.6-.7.5-1.8,1.2-3.6,1.7l-2,.5,1.1-1.8c.6-.9.9-1.6,1-2.2-.7.5-1.6.8-2.7.9l-1.5.2.7-1.4c.5-1,.7-1.7.9-2.2-2.6-.2-4.1-1.2-5.2-2.3-.2,2.2-.5,4.2-1,6,1.5,2.5,6.7,11.9,6.7,23.8s-1.8,15.3-1.8,15.4l-.4.7-1.7-.8v-.4c-.2-.4-.4-.9-.6-1.4-.4.9-.9,2-1.4,3.2,3,1.2,7.2,3.9,7.2,9.1v2.2h-26.3v-2.2c0-9.7-1.8-14.3-3.1-16.3-1.1,2.7-2.4,5.2-3.9,7.4,1.7,1.2,3.5,2.9,3.5,4.9s-2.1,5.1-2.6,5.6l-.7.7h-23.3l.5-1.1s.9-2.3.9-6.1-1.8-9.8-3.5-14.2c-1.7-4.5-3.5-9.2-3.5-14.6s.3-2.9.5-3.7c-.7.3-1.2,1.1-1.2,1.2l-.6,1.3-.8-1.2c0,0-1.2-1.8-1.2-4.2s1.8-5.1,3.8-8.5c.7-1.1,1.4-2.3,2.1-3.5,3-5.5,6.8-12.3,7-18.3l-2.1-4.2c-.6.3-1.1.8-1.6,1.4l-.7.8-1.4-2c-.1-.1-2.5-3.6-2.5-9.5,0-13.3,7.5-22.6,10.3-25.6-.8-3.3-2.6-12.3,1.6-18.5-.9-1.6-2.1-4.4-2.1-7.4,0-5.5,3.4-7.9,6.7-7.9s4.9,1.7,5.9,2.9c1-.1,3.2-.4,5.8-.4s2.7,0,3.9.2c.5-.7,1.6-1.7,3.2-1.7,2.3,0,4.2,2.3,4.2,5.2s0,.8,0,1.2c1.3.7,2.6,1.1,4.1,1.1h.4l.2.4c.2.2,1.5,2.2,1.5,3.8s-.3,1.3-.6,1.8c-.5.8-.8,1.4,0,2.5l.3.4-1,1.7c.4.6.9,1.5.9,2.3v.6l-.5.2c-.3.1-6.4,2.5-7.2,9.9,8.6,2.5,16.1,16.6,16.4,17.2l.9,1.6-1.8-.4s-.2,0-.6-.1c1.3,1.8,2.3,3.9,3.3,6.1,1.2,2.7,2.4,5.3,3.9,6.2l.6.4-.2.6c-.2.6-.7,1-1.4,1.2,1.8,4.9,3.7,10.1,4.6,12.6h2c3.2,0,6.3,6.3,6.3,9.1s-.3,2.3-.8,3.2c.4.8.8,2,.8,3.1ZM663.2,577h-214.5v284.6c0,0,0,0,0,0-4.1-.9-16.5-3.8-33.2-10.1-33.3-12.5-58.4-28.6-73.5-39.9-31.4-23.4-56.4-52.2-74.3-85.7-22.5-42-33.9-91.6-33.9-147.4v-1.5h214.9v-211.8h214.5v211.8Z"/>
</svg>