<?xml version="1.0" encoding="UTF-8"?>
<svg id="Layer_2" xmlns="http://www.w3.org/2000/svg" version="1.1" viewBox="0 0 913.2 1114.5">
  <!-- Generator: Adobe Illustrator 29.3.1, SVG Export Plug-In . SVG Version: 2.1.0 Build 151)  -->
  <defs>
    <style>
      .st0 {
        fill: #0c0c0c;
      }
    </style>
  </defs>
  <path id="DNA" class="st0" d="M685,239.9v-7.6c-3.7-1.7-8.3-2.6-13.2-2.6-10.6,0-20,6.1-27.2,17.5-4.2,6.6-6.4,13.2-7.3,15.9-9.5-19.2-18.4-33.4-37.8-33.4s-20,6.1-27.2,17.5c-4.2,6.6-6.4,13.2-7.3,15.9-9.5-19.2-18.4-33.4-37.8-33.4s-20,6.1-27.2,17.5c-4.2,6.6-6.4,13.2-7.3,15.9-9.5-19.2-18.4-33.4-37.8-33.4s-20,6.1-27.2,17.5c-4.2,6.6-6.4,13.2-7.3,15.9-9.5-19.2-18.4-33.4-37.8-33.4s-20,6.1-27.2,17.5c-4.2,6.6-6.4,13.2-7.3,15.9-9.5-19.2-18.4-33.4-37.8-33.4s-20,6.1-27.2,17.5c-4.2,6.6-6.4,13.2-7.3,15.9-9.5-19.2-18.4-33.4-37.8-33.4s-6.8.7-10,2v7.3s4-1.6,7,1.7v8.6s0,0,0,0v77c-3.6-.3-7-2.1-7-2.1v15.2c2.6.7,5.5,1.1,8.6,1.1,10.6,0,20-6.1,27.2-17.5,4.2-6.6,6.4-13.2,7.3-15.9,9.5,19.2,18.4,33.4,37.8,33.4s20-6.1,27.2-17.5c4.2-6.6,6.4-13.2,7.3-15.9,9.5,19.2,18.4,33.4,37.8,33.4s20-6.1,27.2-17.5c4.2-6.6,6.4-13.2,7.3-15.9,9.5,19.2,18.4,33.4,37.8,33.4s20-6.1,27.2-17.5c4.2-6.6,6.4-13.2,7.3-15.9,9.5,19.2,18.4,33.4,37.8,33.4s20-6.1,27.2-17.5c4.2-6.6,6.4-13.2,7.3-15.9,9.5,19.2,18.4,33.4,37.8,33.4s20-6.1,27.2-17.5c4.2-6.6,6.4-13.2,7.3-15.9,9.5,19.2,18.4,33.4,37.8,33.4s10.1-1.4,14.6-4.1v-13.2s-4.3,3.5-7.6,3.5-2.4-.4-3.7-1.1v-81.2c3.4-2.7,7.2-4.6,11.3-4.6ZM660.8,234.5s4.2-2.7,11-2.7,10.6,2.2,10.6,2.2v4.2c-8.9-5.8-21.6-2.6-21.6-2.6v-1.1ZM650.7,284.8c.7-2.1,1.5-4.3,2.3-6.6v-14.4c0-9.3,3.7-12.3,3.7-12.3v17.8s0,0,0,0v33.4c-2.6-5.1-5.1-10.2-7.1-14.5l1.1-3.4ZM578.4,284.8c.7-2.1,1.5-4.3,2.3-6.6v-14.4c0-9.3,3.7-12.3,3.7-12.3v17.8s0,0,0,0v33.4c-2.5-4.9-4.9-9.9-7.1-14.6l1.1-3.4ZM596.5,249.3v73s-4.2-4.9-7.2-10.3v-52.6c1.2-2.1,2.3-4,3.5-5.6v-.7c0-9.3,3.7-12.3,3.7-12.3v8.6s0,0,0,0ZM608.6,310.4c-2.4,4.3-4.8,7.9-7.2,10.3v-72.3c2.4,3,4.8,6.7,7.2,10.7v51.2ZM506.2,284.8c.7-2.1,1.5-4.3,2.3-6.6v-14.4c0-9.3,3.7-12.3,3.7-12.3v17.8s0,0,0,0v33.4c-2.5-4.9-4.9-9.9-7.1-14.6l1.1-3.4ZM524.3,249.3v73s-4.2-4.9-7.2-10.3v-52.6c1.2-2.1,2.3-4,3.5-5.6v-.7c0-9.3,3.7-12.3,3.7-12.3v8.6s0,0,0,0ZM536.4,310.4c-2.4,4.3-4.8,7.9-7.2,10.3v-72.3c2.4,3,4.8,6.7,7.2,10.7v51.2ZM433.9,284.8c.7-2.1,1.5-4.3,2.3-6.6v-14.4c0-9.3,3.7-12.3,3.7-12.3v17.8s0,0,0,0v33.4c-2.5-4.9-4.9-9.9-7.1-14.6l1.1-3.4ZM452,249.3v73s-4.2-4.9-7.2-10.3v-52.6c1.2-2.1,2.3-4,3.5-5.6v-.7c0-9.3,3.7-12.3,3.7-12.3v8.6s0,0,0,0ZM464.1,310.4c-2.4,4.3-4.8,7.9-7.2,10.3v-72.3c2.4,3,4.8,6.7,7.2,10.7v51.2ZM361.6,284.8c.7-2.1,1.5-4.3,2.3-6.6v-14.4c0-9.3,3.7-12.3,3.7-12.3v17.8s0,0,0,0v33.4c-2.5-4.9-4.9-9.9-7.1-14.6l1.1-3.4ZM379.7,249.3v73s-4.2-4.9-7.2-10.3v-52.6c1.2-2.1,2.3-4,3.5-5.6v-.7c0-9.3,3.7-12.3,3.7-12.3v8.6s0,0,0,0ZM391.8,310.4c-2.4,4.3-4.8,7.9-7.2,10.3v-72.3c2.4,3,4.8,6.7,7.2,10.7v51.2ZM289.4,284.8c.7-2.1,1.5-4.3,2.3-6.6v-14.4c0-9.3,3.7-12.3,3.7-12.3v17.8s0,0,0,0v33.4c-2.5-4.9-4.9-9.9-7.1-14.6l1.1-3.4ZM307.5,249.3v73s-4.2-4.9-7.2-10.3v-52.6c1.2-2.1,2.3-4,3.5-5.6v-.7c0-9.3,3.7-12.3,3.7-12.3v8.6s0,0,0,0ZM319.5,310.4c-2.4,4.3-4.8,7.9-7.2,10.3v-72.3c2.4,3,4.8,6.7,7.2,10.7v51.2ZM247.3,311.8c-2.3,5.1-4.7,9.8-7.2,12.4v-75.8c2.4,3,4.8,6.7,7.2,10.7v52.7ZM249.4,328.5s-3.5,4.6-12.5,4.6-4.2-.3-6.1-.8v-2.5c1.7.6,4.1,1.1,6.7,1.1,7,0,11.8-3.3,11.8-3.3v.9ZM258,285.4c-.6,1.9-1.3,3.9-2.1,6v15.3c0,9.3-3.7,12.3-3.7,12.3v-18.7s0,0,0,0v-32.3c2.3,4.5,4.6,9.2,6.9,13.9l-1.1,3.4ZM321.7,328.5s-3.5,4.6-12.5,4.6c-20.5,0-29.2-23.9-39.9-46.4-10.6-22.5-23.2-52.2-35.2-52.2s-2.7.2-3.9.5v-1.6s3-1.4,7.9-1.4c22.7,0,31.6,23.7,43.7,48.6,13.3,27.4,22.4,49.1,33.5,49.1s6.3-1.9,6.3-1.9v.9ZM330.2,285.4c-.6,1.9-1.3,3.9-2.1,6v15.3c0,9.3-3.7,12.3-3.7,12.3v-18.7h0s0-32.2,0-32.2c2.3,4.5,4.6,9.2,6.9,13.9l-1.1,3.4ZM393.9,328.5s-3.5,4.6-12.5,4.6c-20.5,0-29.2-23.9-39.9-46.4-10.6-22.5-23.2-52.2-35.2-52.2s-7,1.2-7,1.2v-1.1s4.2-2.7,11-2.7c22.7,0,31.6,23.7,43.7,48.6,13.3,27.4,22.4,49.1,33.5,49.1s6.3-1.9,6.3-1.9v.9ZM402.5,285.4c-.6,1.9-1.3,3.9-2.1,6v15.3c0,9.3-3.7,12.3-3.7,12.3v-18.7s0,0,0,0v-32.2c2.3,4.5,4.6,9.2,6.9,13.9l-1.1,3.4ZM466.2,328.5s-3.5,4.6-12.5,4.6c-20.5,0-29.2-23.9-39.9-46.4-10.6-22.5-23.2-52.2-35.2-52.2s-7,1.2-7,1.2v-1.1s4.2-2.7,11-2.7c22.7,0,31.6,23.7,43.7,48.6,13.3,27.4,22.4,49.1,33.5,49.1s6.3-1.9,6.3-1.9v.9ZM474.8,285.4c-.6,1.9-1.3,3.9-2.1,6v15.3c0,9.3-3.7,12.3-3.7,12.3v-18.7s0,0,0,0v-32.2c2.3,4.5,4.6,9.2,6.9,13.9l-1.1,3.4ZM538.5,328.5s-3.5,4.6-12.5,4.6c-20.5,0-29.2-23.9-39.9-46.4-10.6-22.5-23.2-52.2-35.2-52.2s-7,1.2-7,1.2v-1.1s4.2-2.7,11-2.7c22.7,0,31.6,23.7,43.7,48.6,13.3,27.4,22.4,49.1,33.5,49.1s6.3-1.9,6.3-1.9v.9ZM547,285.4c-.6,1.9-1.3,3.9-2.1,6v15.3c0,9.3-3.7,12.3-3.7,12.3v-18.7s0,0,0,0v-32.2c2.3,4.5,4.6,9.2,6.9,13.9l-1.1,3.4ZM610.7,328.5s-3.5,4.6-12.5,4.6c-20.5,0-29.2-23.9-39.9-46.4-10.6-22.5-23.2-52.2-35.2-52.2s-7,1.2-7,1.2v-1.1s4.2-2.7,11-2.7c22.7,0,31.6,23.7,43.7,48.6,13.3,27.4,22.4,49.1,33.5,49.1s6.3-1.9,6.3-1.9v.9ZM619.3,285.4c-.6,1.9-1.3,3.9-2.1,6v15.3c0,9.3-3.7,12.3-3.7,12.3v-18.7s0,0,0,0v-32.2c2.3,4.5,4.6,9.2,6.9,13.9l-1.1,3.4ZM683,327.6v.9s-3.5,4.6-12.5,4.6c-20.5,0-29.2-23.9-39.9-46.4-10.6-22.5-23.2-52.2-35.2-52.2s-7,1.2-7,1.2v-1.1s4.2-2.7,11-2.7c22.7,0,31.6,23.7,43.7,48.6,13.3,27.4,22.4,49.1,33.5,49.1s6.3-1.9,6.3-1.9ZM661.6,311.6v-52.1c1.8-3.1,4.2-6.8,7.2-10.2v72.4c-2.4-2.7-4.9-6.2-7.2-10Z"/>
  <g id="STAFF">
    <path class="st0" d="M512.3,773.7h-23.9l-.6-25.2c-.5-.9-3.7-5.2-5.7-6.3-2.7-1.6-9.2-4.9-9.2-4.9l-.6-.3-.2-.6c0-.1-.8-3.5,1-6.9,1.8-3.3,5.9-5.2,6.1-5.3l.8-.4,7.6,6.6c.4-1.7.9-4.2.9-6.5s-.9-7.7-1.3-9.4c-1.1-.5-3.4-1.7-4.9-3.1-1.9-1.8-9.3-11.5-10.1-12.6l-.2-.3v-.4c0-.1-.3-3,1.8-5.7,2-2.6,5.1-3.6,5.3-3.7l.9-.3,8.3,8.9c.6-2.1,1.4-5.4,1.4-7.8s-.8-7-1.1-8.1l-19.3-23.6v-.7c.2-.1.8-3.6,3.2-5.7,2.2-2,5.7-3,5.8-3l.8-.2,9.7,10.8.5-13.2.3-.4c.1-.2,3.5-4.1,11.5-4.1s11.5,2.7,11.7,2.8l.5.4v.7c0,.5.9,12.4.9,14.7s-.4,2.4-.8,4c-.6,2.1-1.2,4.4-1.2,7s.2,3.6.4,4.9l3.7-4.1h.6c.2,0,4.2-.4,7.1,2.4,2.8,2.7,3.3,6.5,3.3,6.7v.7c0,0-4.5,4.5-4.5,4.5l.5,3.5c-4.2.9-7.9,3.3-11.1,6.9l-.3,15.1c2-1.4,4.9-3.6,6.5-5.3,2.5-2.8,6.2-9,6.3-9.1l.5-.8h.9c.3.2,3.1.7,5.9,3.8,2.9,3.2,3,5.8,3,6v.4l-.2.4c-1,1.6-4.9,7.6-6.7,9.1-.8.7-2.1,1.3-3.5,2-1.7.8-3.7,1.8-4.6,2.8-1.5,1.6-6,8.8-7.9,11.9v11l5.3-5.1h.5c.2,0,4.5-.2,6.8,3.2,2,3,2.8,6,2.9,6.1l.3,1-.9.6c0,0-7.7,5-10,7.1-1.8,1.7-4.2,5.6-4.8,6.8v10.3ZM490.9,743.4l6.8,7v15.2h1l1.7-9.3h1c.5,5.8,2.8,11.3,5.1,14.6,0,0,1-13.6,3.5-15.8,1-.9,6.4-5.8,8.2-7.3,0,0-1.4-1.7,0-3.3.6,1.4,5.3,4.4,6.2,3.3-.4-1-1.1-2.6-2.2-4.3-1.1-1.6-3-1.9-3.8-2l-9.4,9-1.2-16.8-2.9,4c-1.1-9,3.3-12,5.3-14.1,5.1-5.2,8.3-7.8,10.9-8.6s4.3-3.1,6.9-6.4c-3-4-1.8-5.5-1.7-5.8,1.1,1.7,3.8,3.2,5.6,3.1-.1-.6-.6-2-2.2-3.8-1.3-1.5-2.6-2.2-3.4-2.5-1.4,2.3-3.8,6.1-6,8.5-1.8,2-7.7,7.9-9.9,9.4l-1.7-.6-.4-22.2c2.4-3.5,5.1-6.1,8.2-7.8,2-2.6,1.2-5.8.1-8.9l.7-.7c2,2.1,4.3,3.2,6.8,3.2-.2-1-.9-2.9-2.4-4.3-1.5-1.4-3.4-1.7-4.3-1.7l-8.8,9.6-.6-2.4c0-.1,1.1-5.9,1.1-10.8s1.3-9.8,1.3-12.6,0-9.5-.1-12.2c-1.2-.6-4.2-1.9-9.5-1.9s-7.2,1.2-8.1,2c4.8,2,9.8,2.1,15,.6v1.3s-10.2,4.1-10.2,7.8v14.4h-.9s-1.2-5.7-2.7-5.7-2.7.8-2.7.8l-13.1-13.8c.1,1.8-2.2,4.3-4,5.4l4.3,5.6,8,8.1-.6-2.3-4.7-6,1.1-.5c9.5,7,12.1,9.3,12.1,14.7s-.3,7.1-.3,7.1h.9c0,0,1.8-3.1,1.8-3.1,0,0,.8,0,.8,0v20.4s-.7-.5-2.4-.4c-2.2,0-3.6,2.6-6,2.6l-10.3-11c.3,1.8-.2,3.3-1.5,4.7,2.4,3.2,10.3,9.6,13.5,12.1,3.2,2.5,8.9,0,8.9,0,0,0,2.1,4.2-2.3,6.5v24.8l-8.7-4.5-9.5-8.3s.2,2.6-.5,4-1.8,2.3-1.8,2.3l11.2,7.5,2.6,2.4Z"/>
  </g>
  <path id="BEAR" class="st0" d="M574,637.3h-1.9s.3,0-.9,0c-1.9,0-1.7-1.6-1.7-1.6h-1.6s.4-1.9,3.2-1.9,4,1.7,4,1.7c-.6.6-.9,1-1,1.8ZM611.4,716.8c.5.8,1,2,1,3.2,0,2.9-4.3,3.5-4.3,3.5,0-1.9-1.2-2.9-1.2-2.9,0,0-1,1.4-4,2.1,1.3-2,1.4-2.9,1.2-4.8-1,1.4-2.1,1.9-3.8,2.2,1.1-2.4,1.1-3.4,1.1-3.4-4.3,0-5.8-2-7-3.8-.2,3.3-.6,6.1-1.2,8.5,1.4,2.3,6.9,12.1,6.9,24.3s-1.8,15.4-1.8,15.4l-.6-.3s-.5-2.3-1.4-3.1c0,0-1.2,2.9-2.5,5.6,2.7,1,7.6,3.5,7.6,8.8v1.4h-25.3v-1.4c0-12.2-2.7-16.8-4.3-18.4-1.3,3.6-3,6.8-5,9.5,1.7,1,3.9,2.8,3.9,4.7s-2.1,4.9-2.4,5.1l-.4.5h-22.3s1-2.5,1-6.6c0-10.9-7.2-18.8-7.2-29.5s1-4.5,1-4.5c-2.1-.8-3.2,1.6-3.2,1.6,0,0-1-1.6-1-3.9s3.3-7.3,5.9-11.9c3.2-5.8,7.2-12.9,7.3-19.3l-2.6-5.3c-1,.4-1.9,1-2.7,2l-.8-1.2c0-.1-2.4-3.5-2.4-9.2,0-14,8.2-23.5,10.6-26-.8-3-3-12.8,1.8-19.1-.9-1.5-2.3-4.4-2.3-7.7,0-5,3-7.3,6-7.3s4.8,1.9,5.7,3.1c0,0,5.5-1,10.7-.2.3-.4,1.2-1.8,2.9-1.8s3.4,2.1,3.4,4.4,0,1.2-.1,1.6c1.3.8,3,1.5,5.1,1.5,0,0,1.4,2,1.4,3.4s-2.1,2.5-.6,4.8l-1,1.7s1.1,1.4,1.1,2.4c0,0-7.5,2.8-7.9,11.6,8.9,1.9,16.9,17.4,16.9,17.4,0,0-1.3-.3-2.8-.3,3.9,3.7,5.4,12.1,8.8,14.3-.4,1.1-1.8.8-1.8.8,2.1,5.7,4.4,12.1,5.3,14.5h2.6c2.7,0,5.6,6,5.6,8.5s-.5,2.6-1,3.2ZM556.2,770.1c-.4-.6-.8-.5-1.3,0,0,.5.4.7.4.7h.4s.4-.1.4-.7ZM560.5,770.1c-.4-.6-.8-.5-1.3,0,0,.5.4,1.3.4,1.3h.4s.4-.6.4-1.3ZM564.4,769.5c-.4-.6-.9-.4-1.5,0,0,.5.9,1.6,1.4,1.9h.4s0-1.3-.3-1.9ZM569.2,741.7l2.2.5c0,0-1.8-9.8-10.8-16.6l-.4.4s4.3,7.1,4.3,19l-2.5-1.3s2,7.9.4,17.9c-.1.7-1.3,4.4-3.1,4.4s-3.2,2.4-3.2,2.4c0,0,1.3-.5,2.4-.5s1.9.5,2.6.5,1-1,3-1,2.7,3.4,2.7,3.4c.5-.7,1.2-1.8,1.2-2.7,0-.6-2-2.1-3.9-3l-1.6-.8,1.1-1.4c2.6-3.2,6.1-8.8,6.1-14.2s-.6-7-.6-7ZM571.7,715.7c0-1-.9-.5-.9-.5l-1.2,3.7c1.4-.4,2.1-2.4,2.1-3.2ZM575.8,714.7c-.7-.6-1-.6-1.7.4v3.7c1.7-.8,1.7-1.9,1.7-4.1ZM588.6,769.3c-.3-.5-.7-.3-1.1,0,0,.4.7,1.2,1,1.5h.3s0-1-.2-1.5ZM593.3,770.8s-.9-2.5-1.9-2.5-1.2.6-1.2.6c.8.2,1.9,1.2,2.5,1.8h.7ZM589.4,764.9c-1,0-1.5,1-2.2,1s-1.1-.8-2.2-.8-2.8,1.9-2.8,1.9c0,0,.5-.2,1.3-.2s2.1.7,3,.7,1.4-.8,2.9-.8,4.4,1,6.1,1.8c0,0-.6.4-.6.9,0,1.4,3.5,1.4,3.5,1.4-1.2-3.8-7.9-6-8.9-6ZM592.7,727.9c-.9,3.5-3.4,8.2-5.1,10.7,1.2-.2,2.3-.6,3.4-1.1-.4,4.3-1.8,8.3-4.1,11.9,0,0,1.5.2,2.7-.4,0,0-.3,5.5-2.9,11.7,0,0,10.4-5.7,10.4-15.3s-4.3-17.4-4.3-17.4ZM608.2,715.8s1.3-.2,1.3-2.2c0-3.4-2.8-5.6-2.8-5.6h-4.5l-.3-.9c0-.1-3.3-9-6-16.3,0,0-.2-3.4-2.4-7.6-3.6-7-6.8-10.4-6.8-10.4l3.9.5c-4.9-7-9.2-10.6-13.3-11.9-.2,0-.5,6.4-.5,6.4-2.8-3.5-4.9-7.3-6.1-11.3-.8,1.4-1.5,3.5-1.5,3.5,0,0-5.2-6-5.2-11.4s1-3.5,1-3.5c0,0,1.7,1.4,3.7,1.4s4-.9,4.9-2.1c0,0,1.2,2.3,3.4,2.3s3.8-.6,5.6-.6l-1.2-1.3h-3.3s.7-2.1,4.6-2.1c0-3-2.3-3-2.3-4.5s1.4-1.7,1.4-1.7c-5.1-.6-6.1-3.7-6.1-4.8-4-.8-9.4-.4-13.2.5l-1,.2s-.9-3.4-4-3.4-3.5,1.6-3.5,3.5c0,3.3,3.4,4.4,3.4,4.4,0,0-1.6-1.8-1.6-3.5s1-2.2,2.1-2.2c2,0,2.4,2.7,2.4,2.7l2.9.4c-9.3,10.7,1.3,30,1.3,30.1-6.7.2-8.2,6.6-8.3,14.8l-2.3-1.5c-.1,0-2.1,9.5,6.6,19.2l-2.7.5c6,7.1,10.2,6.2,11.7,8.8s1.6,6.7,3.5,6.7,4.1-2.9,5.4-.4c0,0-.9.2-.9,1.2s1.2,2.5.9,4.3c0,0,2.1-.9,2.1-6.6,0,0-2.8-1.9-4.5-5.1-1.7-3.3-11.3-17.5-9.1-23.6,0,0,1.9,1.7,2.3,1.7,0,0,.8-4.3-.1-9.8h.8s7.1,13.1,7.1,16c0,0,0,1.4-1,2.3,0,0,8.3,14.1,8.3,25s-3,15.3-4.8,18.8c5.2-5,10.9-12.6,10.9-22.1,0-14.8-5-22.4-5-22.4,0,0,.5-.6.5-1.7,0-2-2.7-13.4-2.7-13.4l1.1-2.5s3.1,13,7.8,16.7c1.4,6.3,5,12.4,5,12.4-1.1,0-2.1-.2-3.2-.6,0,0,2.5,8.4,8.9,8.4s1.8-.4,2.6-.4c2.9,0,3,5.1,3,5.1ZM609.4,717.8h-1.7l1.8,3.2c1.2-.4.7-2.7-.1-3.2Z"/>
  <path class="st0" d="M394.9,450.4c-3.6,0-4.3,4-4.3,4l2.3-.6s.7,1.1,2.7,1.1,3.2-1.3,3.2-1.3c0,0-.4-3.2-4-3.2Z"/>
  <g>
    <path class="st0" d="M411.8,699.8c-2.7-6.5-7-13-12.8-19.1-1-1.1-2.1-2.2-3.3-3.3-5.1-4.8-11.1-9.4-18-13.5-7.2-4.2-14.3-7.4-21.2-9.5-6.9,2.1-14,5.3-21.2,9.5-4.4,2.6-8.5,5.4-12.2,8.4-2.1,1.7-4,3.4-5.8,5.1-1.6,6.8-2.4,14.3-2.4,22.3s.8,15.5,2.4,22.3c5.1,4.8,11.1,9.4,18,13.5,7.2,4.2,14.3,7.4,21.2,9.5,6.9-2.1,14-5.3,21.2-9.5,4-2.4,7.6-4.9,11-7.5,2.5-1.9,3.8-1.4,3.8-1.4,0,0-2,3.2-4.1,4.8-3,2.2-6.1,4.3-9.4,6.2-5.9,3.5-12.1,6.4-18.1,8.6,8.3,2.1,16.1,2.6,23.2,1.7,4.5-5.7,8.1-13,10.5-21.5.4-1.5.8-2.9,1.2-4.5,1.6-6.8,2.4-14.3,2.4-22.3s-.3-10-1-14.6c-.4-2.7.1-3.5.1-3.5,0,0,2.5,4.1,2.8,6.7.4,3.7.6,7.5.6,11.4,0,6.6-.6,13-1.7,19.1,3.8-4,6.7-8.3,9.4-12.4,1.4-2.1,3.3-2.2,3.3-2.2,0,0-1.5,4.9-2.1,5.8-3.3,4.7-7.2,9.2-11.7,13.5-2.1,8.9-5.2,16.9-9.2,23.8,9.5-2.3,17.2-7.4,21.9-15.4,4.9-8.2,5.6-17.8,2.7-27.6-.4-1.5-1-3-1.6-4.4ZM350,668.6c3.5-3.5,9.2-3.5,12.8,0,3.5,3.5,3.5,9.2,0,12.8-2.9,2.9-7.2,3.4-10.6,1.6l.2-.3c2.9,1.2,7.1,0,9.4-2.3,0,0-4.6.8-8.1-2.7s-2.7-8.1-2.7-8.1c-2.2,2.2-3.5,6-2.5,8.9l-.3.2c-1.5-3.3-.9-7.3,1.9-10.1ZM330.1,694.5c-3.5-3.5-2.7-8.1-2.7-8.1-2.2,2.2-3.5,6-2.5,8.9l-.3.2c-1.5-3.3-.9-7.3,1.9-10.1s9.2-3.5,12.8,0c3.5,3.5,3.5,9.2,0,12.8-2.9,2.9-7.2,3.4-10.6,1.6l.2-.3c2.9,1.2,7.1,0,9.4-2.3,0,0-4.6.8-8.1-2.7ZM347.9,726.7c-2.9,2.9-7.2,3.4-10.6,1.6l.2-.3c2.9,1.2,7.1,0,9.4-2.3,0,0-4.6.8-8.1-2.7-3.5-3.5-2.7-8.1-2.7-8.1-2.2,2.2-3.5,6-2.5,8.9l-.3.2c-1.5-3.3-.9-7.3,1.9-10.1,3.5-3.5,9.2-3.5,12.8,0s3.5,9.2,0,12.8ZM352.2,707.5l.2-.3c2.9,1.2,7.1,0,9.4-2.3,0,0-4.6.8-8.1-2.7-3.5-3.5-2.7-8.1-2.7-8.1-2.2,2.2-3.5,6-2.5,8.9l-.3.2c-1.5-3.3-.9-7.3,1.9-10.1s9.2-3.5,12.8,0c3.5,3.5,3.5,9.2,0,12.8-2.9,2.9-7.2,3.4-10.6,1.6ZM377.7,726.7c-2.9,2.9-7.2,3.4-10.6,1.6l.2-.3c2.9,1.2,7.1,0,9.4-2.3,0,0-4.6.8-8.1-2.7-3.5-3.5-2.7-8.1-2.7-8.1-2.2,2.2-3.5,6-2.5,8.9l-.3.2c-1.5-3.3-.9-7.3,1.9-10.1,3.5-3.5,9.2-3.5,12.8,0s3.5,9.2,0,12.8ZM386.4,698.2c-2.9,2.9-7.2,3.4-10.6,1.6l.2-.3c2.9,1.2,7.1,0,9.4-2.3,0,0-4.6.8-8.1-2.7-3.5-3.5-2.7-8.1-2.7-8.1-2.2,2.2-3.5,6-2.5,8.9l-.3.2c-1.5-3.3-.9-7.3,1.9-10.1,3.5-3.5,9.2-3.5,12.8,0,3.5,3.5,3.5,9.2,0,12.8Z"/>
    <path class="st0" d="M415.2,666.2c-1.9,0-2.7,1.1-4.7,1.1s-3.5-1.7-3.5-3.5.6-3.2.6-3.2l-.4-.4c-.5.5-.9,1-1.2,1.6-2.1,3.4-1.3,9.8,1.6,12.7,0,0,.1.7.1.7-.6-.4-1.2-.9-1.7-1.4-3.6-3.6-4-9.2-1.3-13.2-1.5-1.4-2.6-2.3-2.8-2.4-3.7-2.7-8.1-4.6-12.9-5.7,4,6.8,7.1,14.8,9.2,23.6,6.3,6,11.5,12.6,15.3,19.2,0,0,0,0,0,0,1-3.2,1.7-6.1,1.7-10.7,0-8.3-1.8-10.7-1.8-13.4s.9-3.5,2.6-3.5,2.4,1.2,2.4,1.2l.3-.3c-.4-1.1-2.1-2.5-3.5-2.5Z"/>
  </g>
  <g id="BOOK">
    <g>
      <path class="st0" d="M566.4,437.2v-1.4c-2.4-3.7-9.9-9.4-15.7-9.4s-4.8.3-7.1,1c-6.3,1.9-11.2,6.2-17.2,8.4-1.9.8-3.9,1.2-6,1.3,0,0,0,1.1,0,1.1,4.4.2,8.7-1.5,12.4-3.7,13.1-8,22.4-9.7,33.6,2.6Z"/>
      <path class="st0" d="M595.2,449c8.2,2.4,15.7,9.3,24.9,8.6,0,0,0-1.3,0-1.3-4.3-.3-8.3-1.8-12.1-3.7-6.5-3.6-13.1-6.7-19.8-6.7s-14.9,6.7-16.1,8.7l.2,2.4c5.8-6.8,14-10.8,23-7.9Z"/>
      <path class="st0" d="M566.6,444v-1.8s-7.2-9.2-15.6-9.2-12.8,3-19.2,6.7c-3.7,2-7.6,3.6-11.8,3.9,0,0,0,1.2,0,1.2,4.5.2,8.8-1.4,12.6-3.5,13.1-7.7,22.8-9.6,34,2.8Z"/>
      <path class="st0" d="M614,517.2c12.6,4.3,20.5,3.4,24.6,3.4-7.3-45.8-1.2-86-1.2-86h-4.2c-1.6,23.4-1.9,57.1,1.1,81.7-3.8,1.8-13.1,1.5-20.3-.3v1.2Z"/>
      <path class="st0" d="M606.5,434.6c3.7,2.2,8,3.9,12.4,3.7,0,0,0-1.1,0-1.1-2.1-.1-4.1-.6-6-1.3-6-2.2-10.9-6.4-17.2-8.4-2.3-.7-4.7-1-7.1-1-5.8,0-13.3,5.7-15.7,9.4v1.4c11.2-12.3,20.5-10.6,33.6-2.6Z"/>
      <path class="st0" d="M595.2,442.3c8.2,2.4,15.4,9.4,24.5,8.8,0,0,0-1.3,0-1.3-2.1-.1-4.2-.6-6.1-1.3-6.2-2-11.3-6.2-17.8-8.2-2.4-.7-4.9-1.1-7.4-1.1-8.6,0-16,8.8-16,8.8,0,0,0,2.1,0,2.1,5.9-6.7,13.9-10.7,22.8-7.9Z"/>
      <path class="st0" d="M544.1,442.3c8.9-2.9,16.9,1.2,22.8,7.9,0,0,0-2.1,0-2.1,0,0-7.4-8.8-16-8.8s-5,.3-7.4,1.1c-6.4,2-11.5,6.2-17.8,8.2-2,.7-4,1.2-6.1,1.3,0,0,0,1.3,0,1.3,9.1.6,16.3-6.4,24.5-8.8Z"/>
      <path class="st0" d="M606.7,441.2c3.8,2.1,8.2,3.8,12.6,3.5,0,0,0-1.2,0-1.2-4.2-.3-8.1-1.9-11.8-3.9-6.3-3.7-12.7-6.7-19.2-6.7s-15.6,9.2-15.6,9.2v1.8c11.1-12.4,20.8-10.5,33.9-2.8Z"/>
      <path class="st0" d="M501.7,519.9c4.9,0,18.7-.8,29.6-6.1v-1c-10,4.2-21.8,3.3-25.6,1.5,3-24.6,2.2-56.3.5-79.7h-3.2s1.7,53.1-1.3,85.3Z"/>
      <path class="st0" d="M228.2,360.7v227c0,58.1,11.9,109.8,35.5,153.8,18.9,35.3,45.2,65.6,78.2,90.2,56.3,41.9,115,52.9,115,52.9,0,0,58.2-11,114.5-52.9,33-24.6,59.3-55,78.2-90.2,23.5-44,35.5-95.8,35.5-153.8v-227H228.2ZM500.5,437.4h1.2c0-1.3,0-2.8,0-4.3,1.6-.8,2.9-1.2,4.4-1.1,0-1.1-.1-2.1-.2-3.2h5.3s-1.3,1.4-3.8,1.2c1.3,12.1,2.5,41.2,2,63h.9c3.2-21.5,3.2-41.3,2.6-68.4,14.2,3.5,21.1-10.4,37.1-10.4s20,12.4,20,12.4c0,0,4.2-11.8,20.2-11.8s23.6,11,37.9,7.5c-.7,31-2.1,60.7,2.5,87.2h.8c-1.9-19.9-.2-63.3,1.1-79.4-2.5.2-2.6-1.2-2.6-1.2h4c0,1.1-.1,2.1-.2,3.2,1.4,0,4.4.5,6,1.3-3,15.8-3,45.4-1.4,59.9h.8c.1-20.9.5-47,1.8-54.1l4.4,3.6v86h-60.4l-.7-1.6,59.5-1-3.7-3.5c-27-.2-39.5-13-52.2-13.1-9.5.2-13.8,8.3-13.8,8.3l-.6-14.1c4.5-7.5,13.7-10.4,22.1-7.8,9,2.6,17.8,7.5,27.5,6.9,0,0,0-1.3,0-1.3-9.7-.3-17.4-6.1-26.6-8.9-7.5-2.3-17-1.3-23.3,4.2,4.6-6.7,13.5-10.1,21.9-7.5,8.9,2.5,17.5,7.9,27.1,7.1,0,0,0-1.4,0-1.4-2.3-.2-4.5-.6-6.7-1.2-6.9-1.8-12.5-5.7-19.5-7.8-7.7-2.4-16.9-.8-23.2,4.6v-.2s0,0,0,0c5.2-7.3,13.9-10.3,22.6-7.8,4.3,1.1,8.4,3.1,12.8,4.8,4.4,1.8,9.2,2.9,13.9,2.5,0,0,0-1.4,0-1.4-9.4-.6-17.1-6.2-25.9-9-6.9-2.3-15.5-1.7-21.6,2.9-.8.6-1.5,1.3-2.2,2v-1c5.4-6.8,14.4-10.1,22.9-7.5,8.6,2.4,17,8.6,26.4,7.6,0,0,0-1.4,0-1.4-4.5-.4-8.7-1.8-12.8-3.6-11.2-5.5-22.3-10.8-33.9-2.4-1,.8-1.9,1.7-2.8,2.6v-1.4c5.5-6.8,14.5-10.8,23.1-8.1,8.5,2.4,16.6,8.8,26,7.8,0,0,0-1.3,0-1.3-4.4-.4-8.6-1.8-12.6-3.7-6.7-3.4-13.4-6.7-20.2-6.7s-13.5,4-16.6,6.8v-1.3c5-6.5,14.7-11.1,23.4-8.4,8.4,2.4,16.3,9,25.6,8.1,0,0,0-1.1,0-1.1-4.4-.4-8.5-1.9-12.5-3.7-6.6-3.4-13.3-6.7-20-6.7s-16.2,7.1-16.2,7.1l-.4,2.4-.2-4.2c5.8-6.7,15-11.2,23.7-8.5,8.3,2.4,16,9.2,25.2,8.3,0,0,0-1.2,0-1.2-4.4-.4-8.4-1.9-12.3-3.8-6.6-3.5-13.3-6.7-20.1-6.7s-14.4,5.7-15.6,7.7l-1,2.6-1.4-33.4h-.8l-1.4,33.4-1-2.6c-1.2-2.1-7.3-7.7-15.6-7.7s-13.5,3.2-20.1,6.7c-3.9,1.9-7.9,3.4-12.3,3.8,0,0,0,1.2,0,1.2,9.2.9,16.9-5.9,25.2-8.3,8.7-2.8,17.9,1.8,23.7,8.5l-.2,4.2-.4-2.4s-7.7-7.1-16.2-7.1-13.4,3.3-20,6.7c-4,1.9-8.1,3.3-12.5,3.7,0,0,0,1.1,0,1.1,9.3,1,17.2-5.7,25.6-8.1,8.6-2.7,18.3,2,23.4,8.4v1.3c-3.2-2.8-9.3-6.8-16.6-6.8s-13.5,3.4-20.2,6.7c-4.1,1.8-8.2,3.2-12.6,3.7,0,0,0,1.3,0,1.3,9.4,1,17.5-5.5,26-7.8,8.6-2.6,17.6,1.3,23.2,8.1v1.4c-.9-.9-1.8-1.8-2.8-2.6-11.6-8.4-22.8-3.1-33.9,2.4-4.1,1.8-8.3,3.2-12.8,3.6,0,0,0,1.4,0,1.4,9.4,1,17.8-5.2,26.4-7.6,8.5-2.5,17.5.8,22.9,7.5v1c-.7-.7-1.4-1.3-2.2-2-6.1-4.6-14.6-5.2-21.6-2.9-8.8,2.8-16.5,8.4-25.9,9,0,0,0,1.4,0,1.4,4.8.4,9.6-.7,13.9-2.5,4.4-1.7,8.5-3.8,12.8-4.8,8.7-2.5,17.5.5,22.6,7.8v.2c-6.3-5.5-15.5-7-23.2-4.6-7,2-12.7,6-19.5,7.8-2.2.6-4.4,1-6.7,1.2,0,0,0,1.4,0,1.4,9.6.8,18.2-4.5,27.1-7.1,8.4-2.6,17.3.9,21.9,7.5-6.2-5.5-15.8-6.5-23.3-4.2-9.2,2.8-16.8,8.5-26.6,8.9,0,0,0,1.3,0,1.3,9.7.6,18.5-4.3,27.5-6.9,8.4-2.6,17.6.3,22.1,7.8l-.6,14.1s-4.2-7.8-13.8-8.1c-12.8.2-23.7,11.8-51.3,11.8l-4.5,4.6,59.5,1-.7,1.6h-60.4v-86s6.2-5.2,6.2-5.2ZM579.8,528.7s-4.9,3.9-10.1,3.9-10.1-3.9-10.1-3.9c6.7,1.4,13.6,1.4,20.3,0ZM543.8,516.6c-4.7,1.2-9.4,2.7-14.1,3.9-1.6.4-3.2.7-4.9.6,1.6-.1,3.2-.7,4.7-1.2,9.4-3,24.6-11.4,32.1-1.2-4.8-5.2-11.8-3.9-17.9-2.2ZM577.7,518.9c6.5-9.3,19.3-3.4,27.7-.2,1.3.5,2.6.9,4,1.1-1.4.2-2.9,0-4.2-.4-8.9-1.9-19.7-8-27.5-.5ZM380.6,758.3c-4.1,4.2-8.6,7.4-13.5,9.3,0,0,0,0,0,0-.4,1.9-1.3,3.8-2.8,5.3-2,2-4.7,3-7.3,3s-3.3-.5-4.5-1.1l.5-.6c3.1,1.4,8.1-.3,8.2-1.8-4.3-1.8-1.6-3.9-1.6-5.8s-1.1-2.1-1.1-2.1h-.4s.4.6.4,1.5c0,2.5-2.9,3-6.2,3-10.9,0-20.9-11.4-25.2-17.5-1-1.4-1.9-2.8-2.8-4.3-2.4-4.1-4.5-8.6-6.2-13.4-1.2-3.3-.7-6-.7-6,0,0,2.8,4,3.8,6.4,2.1,5.3,4.8,9.9,7.9,13.8,5.2.7,10.8.5,16.8-.4,4.7-.7,6.2,1.4,4,2-6,1.4-12,2.1-17.6,2.1,4.1,4.3,13,11.5,18.2,11.5s3.1-.4,3-.4l-.2-.5c-2.5-.9-1.3-3.5-1.3-3.5-1.3.3-3.5,2.8-3.5,2.8l-.6-.2s2.9-6,9.2-6,5.3,1,7.3,3,1.5,1.8,2,2.8c.2,0,.5-.1.7-.2,3.1-1.1,6-2.6,8.8-4.6,1.9-1.3,3.7-2.7,3.7-2.7h1.9c0,0,1.2,2.7-.7,4.7ZM420.8,673.9c-.1.1-.3.3-.5.4,1.3,7.9-.4,16.8-4.6,25.6,6.1,12.8,6.9,25.6,1,35.6-5.8,9.8-17,15.1-30.7,16.2-1.7.1-3.4.2-5.2.2-7.7,0-16-1.3-24.4-3.9-1.5-.4-2.9-.9-4.4-1.5-6.1-2.2-12.2-5-18.1-8.6-5.7-3.4-10.9-7.1-15.5-11.2-1.2-1-2.4-2.1-3.5-3.1-6.3-6-11.5-12.6-15.3-19.2-3,9.8-2.2,19.4,2.7,27.6,4.1,6.9,10.4,11.7,18.3,14.4,1.2.4,3.2,5.1,1.6,4.8-11.5-1.8-20.9-7-26-15.6-5.9-10-5-22.8,1-35.6.7-1.5,1.5-3,2.3-4.4,2.9-5,6.6-10,10.9-14.8.6-.6,2,1.7-.2,4.3-4.1,4.7-7,9.9-9.1,14.9,2,4.9,5,9.8,8.8,14.6,1.2,1.5,2.5,3,3.9,4.5-1.1-6.1-1.7-12.5-1.7-19.1s.6-13,1.7-19.1c.3-1.6.6-3.1.9-4.6,1.5-6.6,4-12.7,6.4-18.4,1.5-3.6,6.7-5.1,6.3-4.5-3.9,5.5-7,12.1-9.2,19.8,1.5-1.3,3-2.6,4.6-3.8,3.4-2.6,7-5.1,10.9-7.4,5.9-3.5,12.1-6.4,18.1-8.6,1.5-.5,2.9-1,4.4-1.5,6.1-1.9,12.2-3.2,18-3.6,4.3-.3,6.4,3,4.8,3-5.8-.2-12,.5-18.5,2.1,6.1,2.2,12.2,5,18.1,8.6,5.7,3.4,10.9,7.1,15.5,11.2-2.4-8.5-6-15.7-10.5-21.5-1-1.3-2.1-2.5-3.2-3.7-6.8-7-15.2-11-24.4-11s-17.6,4-24.4,11c4.5,0,9.1.5,13.9,1.3,3.4.6,4.7,2.4,4.7,2.4,0,0-3.5.5-5.9.2-5.6-.8-10.9-.9-15.9-.3-1.6.2-3.2.5-4.8.9-4.7,1.1-8.9,2.9-12.6,5.5,0,0-.2.1-.3.2,1.8,3.8,1.1,8.5-2.1,11.7-2,2-4.7,3-7.3,3v-.5c2.4-.3,5-1.9,6.1-3.7h-.3c-2.1,1.5-5.3.2-5.6-1.8,0,0-4.3,7-4.3,16.1s0,3.3.2,4.9c.3,2.5,1,5.4-.1,6.7-1.1,1.3-2.7.6-3.5-1.8-1.9-5.9-2.6-11.7-2-17.1.9-7.3,2.9-14.6,7.7-14.6s2.9,1.9,2.9,1.9h.5c0-5.9-7.9-1.3-7.9-6.6-1.6.8-3.2,3.4-3.9,5.6h-.3c.1-2.5,1.1-4.9,3-6.8,3.5-3.5,8.8-4,12.8-1.5,0,0,0,0,0,0,5.5-3.1,12.1-4.9,19.5-5.5,7.8-11.2,18.2-18.1,29.5-18.1s21.7,6.9,29.5,18.1c0,0,0,0,0,.1,7.5.6,14.2,2.4,19.7,5.6,1.5.8,2.8,1.8,4.1,2.8,3.7-1.3,7.9-.4,10.8,2.5,4.1,4.1,4.1,10.7,0,14.8ZM673.9,587.8c0,56.1-11.4,106-34,148.3-18,33.8-43.2,62.9-74.7,86.6-49.1,36.8-98.9,48.8-108.4,50.8v-287.2h-217.6v-214.4h217.6v214.4h217.1v1.5Z"/>
      <path class="st0" d="M501.8,469.4c0-11.9.2-17,0-30.2-.5,0-1.1,0-1.1,0l-2.5,1.4c1.3,9,1.9,18.7,2.2,28.7h1.4Z"/>
      <path class="st0" d="M544.1,449c8.9-2.8,17.1,1.1,23,7.9l.2-2.4c-1.2-2-8.9-8.7-16.1-8.7s-13.2,3.1-19.8,6.7c-3.8,1.9-7.8,3.5-12.1,3.7,0,0,0,1.3,0,1.3,9.1.6,16.6-6.2,24.9-8.6Z"/>
    </g>
    <polygon class="st0" points="566.7 490.2 566.7 490.2 566.7 490.2 566.7 490.2"/>
  </g>
  <path class="st0" d="M435.1,460.1l-.3-.3c-1.7,1-4.1,1.7-6.3,1.3,1.5-2,3-5.1,3-9.8,0-9.5-7.1-18.2-13.5-25.8-4.4-5.3-8.5-10.3-8.5-13.9s4.8-4.8,5-4.8l.5-2.3c-2.4-1.4-3.1-3.2-2.4-5.8l-1.6-1.5c-.5.2-11.5,4.2-11.5,14.8s12.9,26.2,15.1,29.3c-.2,1.5,0,3.3,1,4.3-.8.6-1.1,2.2-.5,3-1.1.1-2.4,1.3-2.7,2.3-.6-1.1-2.5-2-3.8-1.7-2.5-1.9-7.6-6-10.7-8.2-3.4-2.4-7.6-2.4-9.4-2.3,0,0-4.5-6.3-13.3-6.3s-14.4,6.5-19.6,12v-1.4c-1.2-1.4-2.5-2.8-3.8-4.1v-9c1.3-.4,2.5-.8,3.8-1.2v-4c-.8-.9-1.7-1.8-2.5-2.6l2.5-.3v-11.2c-6.2-2.6-12.7-4-19-4.2v-3.4c-7.7-1.9-15.7-1.9-23.5,0v3.4c-6.3.2-12.7,1.7-18.9,4.3v10.2c.8.3,1.5.5,2.3.8-.8,1-1.5,1.9-2.3,2.9v4.1c1.2.3,2.4.7,3.6,1.2v9c-1.2,1.3-2.4,2.7-3.6,4.2v3.4c1.2.3,2.4.6,3.6.9v7.3c-12.6,6.6-24.8,28-29.9,52.4-1,5-4.2,8.1-7.4,11.2-3,3-6.6,5.4-6.6,9.4s1.5,5.7,1.6,5.8l1.5-.6c-.3-1.7-1.4-6.1,1.2-7.2-.4,2.5,0,6.1,1.2,8.2l1.4-.4c-.1-1.8-.7-6.5.8-7.1.3,1.9,1.3,4.2,3.2,5.1l.7-.9c-1.4-3.6-.3-6.6-.3-6.6,1.2,1.2,2.2,1.9,2.2,1.9l.9-.9s-.7-1.6-.7-7,3.5-9.1,6.4-13.9c1.2-1.9,2.2-3.7,3-5.2l1.7-3.8h.3c0,9.1-4.1,21.3-5.9,26.5-1.1,3.1-1.5,4.1-1.5,4.8s.1,1.2.4,1.7c-1.1.6-2.1,1.6-2.1,2.7s.3,1.6.7,2.1c-.7,1.9-2.2,5.3-2.2,7.7s.5,3.9.5,5.3c0,3.2-1.3,5.6-1.3,8.6s2.8,5.2,2.8,5.2h22.6s1.7-2,1.7-5.2-2-5.1-3.7-6c-1.5-.8-2.6-1.4-2.6-4.3,0-5.2,2.8-11.1,4.5-14.2,1.7,4.7,3.6,10.7,3.6,12.4v4.4c0,1.5,1.2,2.5,2.2,2.9-.2,1.2-.5,3.3-.5,4.6,0,2.3,2.4,4.8,2.7,5l.4.4h19.6l.4-.7c0,0,1.1-2,1.1-4.6s-2.5-5.2-4.7-7.3c-1.4-1.4-3-2.9-3.1-3.9-.2-1.7-.9-3.2-1.6-4.6-.7-1.5-1.4-2.9-1.6-4.7-.3-3-.9-10.9-1.1-14,10.2-.1,19.4-2.6,27.3-7.3.8,2.5,1.9,4.7,3.3,6.6-.5.7-1,1.7-1,3s.9,3.8,1.3,4.7c-.5,2.9-2.3,12.8-2.3,14.3s.3,1.7.6,2.4c.3.7.5,1.3.5,2.1s-.5,1.6-1,2.6c-.8,1.6-1.6,3.4-1.6,5.4,0,3.6,2.6,5.4,2.7,5.5l.3.2h22l.4-.6c0,0,1.2-2,1.2-4.5s-1.3-3.2-2.5-4.5c-1.6-1.6-3.2-3.3-3.2-6.7s1.3-7,2.3-9.9c1.4,5.1,2.7,10,2.7,10.8v2.6c0,1.4,1,2.4,1.8,3-.2.9-.4,2.5-.4,4.1,0,2.9,2.7,5.1,3,5.4l.3.3h18.9l.4-.4c.1-.2,1.4-1.7,1.4-4.6s-2.1-5-4.2-6.7c-2-1.6-4.2-3.3-4.8-6.9-.6-3.3-2.5-15.6-2.9-18.1.2-.4.4-1.2.4-2.1,0-1.4-1.3-2.3-2.4-2.8l.4-2.2-.2-.4c0,0-4.3-7.6-4.3-15.7s12.2-13.5,19.5-17.5c1-.6,1.9-1.1,2.8-1.5,2.2-1.3,3.5-2.6,4.5-3.6,1.4-1.4,2.2-2.2,4.8-2.2,4.7,0,11.3,5.2,11.4,5.3l2-.7c.5-2.7.3-5-.7-7.1,8.4-.2,16.2-4.7,20.6-12ZM353.6,443.7c-6.4-2.4-13-3.5-19.4-3.4,0,0,.1,0,.2-.1,3.9-2.1,8.2-2.7,12.9-1.7,0-.3,0-.5,0-.8-2.3-.6-4.6-1-6.9-1.2,0-7.2,3.2-7.8,5.4-7.3,1.9.4,3.4,2.2,3.4,5.4s0,3.2,0,4.8c1.4,1.4,2.8,2.9,4.2,4.4ZM337.1,488.4c-4.4.8-9.4,0-14.8-.8-3.9-.6-7.9-1.2-11.7-1.2-6.3,0-10.7,1.7-13,2.9-.4-5.4-.7-20.9,7.4-30.2,2.6-3,7.8-7.3,17.7-7.3s20,1.3,24.4,1.8c-7.9,6.4-11.2,22.6-10,34.6ZM315.5,436.3c3.9-2.8,8.2-4.1,12.9-4,0-.3,0-.6,0-.8-2.3-.2-4.6-.2-6.9,0,0-7.2,3.2-8.4,5.4-8.2,1.9,0,3.4,2,3.4,4.8,0,0,0,3.2,0,4.8,1.4,1.2,2.8,2.4,4.2,3.7-6.4-1.3-13-1.3-19.4,0,0,0,.1,0,.2-.1ZM313.8,434.8v-7.9c1.1-.8,2.2-1.5,3.2-2.2v7.1c-1.1.9-2.2,1.9-3.2,2.9ZM332.9,431.9v-6.9c1,.7,2.1,1.4,3.1,2.1v7.7c-1-1-2.1-1.9-3.1-2.8ZM332.9,442.6c1,.6,2.1,1.2,3.1,1.9v5.6c-1,0-2.1-.2-3.1-.2v-7.2ZM322.8,449.4c-.4,0-.7,0-1.1,0,0-5.3,1.5-9.1,5-9.1s3.6,2.8,3.7,5.5v4c-2.4-.1-5-.2-7.6-.3h0s0,0,0,0ZM313.8,449.7v-5.2c1.1-.7,2.2-1.4,3.2-2v7c-1.1,0-2.2.1-3.2.2ZM341.2,450.6c.8-3,2.6-4.8,4.5-4.4,2.4.5,3.4,2.9,3.6,5.4-1.4-.2-4.2-.6-8.1-1ZM338,408.9c1.2,0,2.4.2,3.6.3v5.1c.8.1,1.7.2,2.5.4v-5.1c1.1.2,2.2.4,3.3.7v5.1c.8.2,1.7.4,2.5.7v-5.1c1.1.3,2.2.7,3.3,1.1v7.1s0,0-.1,0c-5-1.8-10.1-2.9-15.1-3.1v-7.2ZM348.9,420.9c1.8,1.6,3.5,3.3,5.3,5.2,0,0,0,0,0,0-6.7-2.6-13.6-3.8-20.3-3.6,0,0,0,0,0,0,.8-.4,7.6-3.7,15.1-1.6ZM335.1,418.7c-6.7-1.4-13.6-1.4-20.3,0,0,0,0,0,0,0,.8-.6,7.6-5,15.1-4.2,1.8,1.3,3.5,2.7,5.3,4.2,0,0,0,0,0,0ZM319,404.4c1.2-.1,2.4-.2,3.6-.3v5.1c.8,0,1.7,0,2.5,0v-5.1c1.1,0,2.2,0,3.3.1v5.1c.8,0,1.7.1,2.5.2v-5.1c1.1.1,2.2.3,3.3.5,0,2.4,0,4.7,0,7.1,0,0,0,0-.1,0-5-.9-10.1-1.1-15.1-.5v-7.2ZM299.9,411.1c1.2-.4,2.4-.7,3.6-1v5.1c.8-.2,1.7-.4,2.5-.5v-5.1c1.1-.2,2.2-.4,3.3-.5v5.1c.8,0,1.7-.2,2.5-.2v-5.1c1.1,0,2.2-.1,3.3-.1v7.1s0,0-.1,0c-5,0-10.1.8-15.1,2.4v-7.2ZM295.7,426.2s0,0,0,0c.8-.8,7.6-6.5,15.1-7.1,1.8,1,3.5,2.1,5.3,3.2,0,0,0,0,0,0-6.7-.1-13.6,1.2-20.3,3.8ZM296.2,443.9c0,0,.1-.1.2-.2,3.9-3.5,8.2-5.7,12.9-6.4,0-.3,0-.6,0-.8-2.3.3-4.6.7-6.9,1.3,0-7.2,3.2-9,5.4-9.3,1.9-.3,3.4,1.3,3.4,4.2,0,0,0,3.2,0,4.8.6.4,3.6,2.4,4.3,2.9-6.4,0-13,1.2-19.4,3.7ZM311.3,450c-3,.5-5.7,1.2-8.3,2.3.8-3.7,2.6-6.4,4.7-6.7,2.5-.4,3.5,1.9,3.7,4.5ZM283.7,557h-1.3s.7-2.5-1.5-3.4c4,0,2.8,3.4,2.8,3.4ZM311.6,557h-1.3s.7-2.5-1.5-3.4c4,0,2.8,3.4,2.8,3.4ZM315.9,549.7c2.1,1.6,2.4,2,2.1,3.6,2.2,1.4.6,3.7.6,3.7h-4.1s-1.9-2,.8-3.7v-.5c-16.7,0-6.3-17.5-5.6-13.8.8,4.5,4,9,6.2,10.8ZM352.9,557h-1.3s.7-2.5-1.5-3.4c4,0,2.8,3.4,2.8,3.4ZM377.9,557h-1.3s.7-2.5-1.5-3.4c4,0,2.8,3.4,2.8,3.4ZM372.2,515.8c-.1,1.7-1.2,3.5-2.9,4.8v.5c1.8-.2,3.2-.7,4.3-1.5.8.5.9,1.1.8,1.8-1,.6-2.4,1.1-4,1.4.9.8,1.8,1.4,2.7,1.6,0,.1,3.1,13.2,3.7,16.9.8,4.5,3.5,6.7,5.7,8.4,2.1,1.6,2.4,2,2.1,3.6,2.2,1.4.6,3.7.6,3.7h-4.1s-1.9-2.1.8-3.8v-.4c-12.9,0-12.6-16.1-15.1-28.2-.6,0-1.5-1-1.5-1,0,0,.1-1.3.6-1.6-1.7-4.5-1.5-8.4,1.2-11.9l4.9,5.8ZM412.6,476.7c-1.1-1.9-2.9-3.7-5-4.9v-.5c1.5.5,3,.8,4.3,1,.8,1.2,1.1,2.7,1.2,4.3h-.4ZM406.1,466.6c-.1-1.1.5-2,1.9-2.6,0,0-.6-.5-1.9-.5-4.1,0-4.2,5.5-8,5.5s-2.6-2.4-2.6-3.7,1-3.7,1-3.7c0,0-3.5,2.8-7,2.8s-7.1-4.2-7.1-4.2c0,0-2.7,2.2-6.6,2.2-5.9,0-10.1-8.5-10.1-8.5l-.6.6s6.3,12.3,6.3,18.2c0,9.9-4.4,11.5-4.4,11.5,0,0,1.2,1.8,1.2,4,0,7-6.6,11.4-6.6,21.1s.7,9.4.7,9.4c0,2.5-4.2,3.6-5.8,3.9v.4c1,.6,2.9.9,3.7,1,.5.6.4,1.2-.1,1.8-.9.2-2.7,0-3.5-.4.1,1.1.4,1.9,1,2.5,0,0-2,9.7-2,14.5s1.9,6.7,3.6,8.4c1.1,1.2.8,2.3.8,2.3,1.7.5,1.7,2.9.9,3.7h-3.7c-1.4,0-2.8-2.2-.4-3.8v-.5c-4.3,0-9.5-2.3-9.5-8.7s3.8-19.6,3.8-19.6c-.6-.5-.6-1.8-.6-1.8,0,0,.8-1.3,1.9-1.1,0,0,1.3-2.6,1.3-4.8,0-8.1-5.1-13.8-5.1-13.8v6.2s-4.6-7.5-4.6-12.3,1.4-7.5,1.4-7.5c-4,0-12,21.1-29.9,21.1s-11.3-3.3-11.3-3.3c0,5-12.6,24.7-21.2,25.9v.5c2.6.8,2.9,4.4,2.9,10.5s2.2,5.7,3.8,6.5c2.1,1,1.5,2.7,1.5,2.7,1.7,1.2.5,3.9.5,3.9h-4.1c-2.2,0-2.6-3.2-.4-3.6v-.6c-4.4,0-10-5-10-11.3s2.1-6.8,2.1-6.8c-.6-2.2-3.2-2.7-3.2-2.7v-.7c2.7,0,7.2-1.4,7.2-3.3s-1-1.9-1-1.9c0,0,7.1-4.8,7.1-18.5s-2.9-13.6-2.9-25,.7-6.2,1.9-9.4l1.2-2.7c4-8.3,11.4-15.7,18.8-17.2-17.1,11.1-14.6,41.7-14.6,41.7,0,0,11.5-6.6,11.5,7.2h.5c1.9-4.2,7.4-10.4,25.9-10.4s4.9-.6,5.7-.9c0,0,0,0,0,0h0c.2,0,.3-.1.3-.1h0s2.1-.7,2.1-.7c-.5-4-.7-8,0-11.4h0s0-.4.2-1c0-.1,0-.2,0-.3.6-2.1,2.4-6.2,7.6-6.2s16,6.5,16,12.8-.3,2.7-.3,2.7h.6s1-2,1-4.9c0-10.4-15.3-15.3-15.3-23.6s13.6-12.4,13.6-12.4c.3-6.2,6.6-11.1,12.6-11.1s11.2,6.5,11.2,6.5h.9c0,0,5-.6,8.7,1.8,3.7,2.4,5,7.2,5,7.2,1.9-1,3.7-1.2,5.3,0-1.7.3-2.8,2-3.7,4.1,2.3-1.4,4.7-3.1,6.1-1.7-2.3,2.6-2.6,4.9-2.1,7.1,1.1-2.3,2.5-4.2,4.7-4.8.2,1.2.6,2,1.3,2.6.4-2.5.9-4.7,3-4.9.4.9,1.1,1.4,2,1.9,0,0-1.4-3.2-.3-4.7,1-1.5,4.3-1.5,4.3-1.5,0,0-2.9-1.1-3.5-3.4-.6-2.3,1.7-4,1.7-4,0,0-17-19.7-17-29.1s3.5-10,6.4-11.6c0,1.8.6,3.4,1.9,4.7-2.3,1-4.6,3-4.6,6.6s4.2,9.6,9.1,15.5c6,7.3,11.9,14.2,11.9,21.8,0,15-17.1,14.6-17.1,14.6,0,0,4.1,1.5,8.6,1.5s8.6-1.2,10.2-1.6c-4.9,4.6-17.4,6.4-23.6,3.3Z"/>
</svg>