<svg version="1.1" viewBox="0 0 459.25 642.3" xmlns="http://www.w3.org/2000/svg">
 <defs>
  <style>.st0 {
        fill: #fdfcfc;
      }</style>
 </defs>
 <g id="NEGATIVE" transform="translate(-220.97 -224.1)">
  <path class="st0" d="m224 573.9c0 57.4 11.8 108.4 35 151.8 18.6 34.7 44.5 64.6 77 88.8 50.1 37.4 102.2 49.8 112.1 51.9h0.3 0.3c9.8-2.1 61.4-14.5 111.7-51.9 32.5-24.2 58.4-54.1 77-88.8 23.2-43.4 35-94.5 35-151.8v-222.8h-448.4zm275.6 99.6c7.7-5.1 11-12.8 11-12.8s5.1 0.2 8 3c2.8 2.7 4 7.1 4 7.1l-5.2 4.8 0.5 3.5c-4.2 0.9-7.9 3.3-11.1 6.9l-0.2 11.1c-1.8 1.8-3.8 3.4-6.2 4.8-1.4 0.9-1.9 2.6-1.1 4 7-3.6 12.3-8.6 13.7-10.2 2.5-2.8 6.8-9.9 6.8-9.9s4 0.7 6.9 3.8c2.9 3.2 3 6.5 3 6.5s-5.1 8-6.9 9.5c-0.8 0.7-2.1 1.3-3.5 2-1.7 0.8-3.7 1.8-4.6 2.8-1.5 1.6-6 8.8-7.9 11.9v6.9c-2 2.6-4.3 5-6.8 7.2-1.2 1.1-1.4 2.9-0.4 4.2 9-7.2 12.5-12.4 12.5-12.4s4.9 0 7.4 3.2c2.7 3.5 3.1 7.1 3.1 7.1s-8.6 5.6-10.8 7.7c-1.8 1.7-4.2 5.6-4.8 6.8v10.3h-24.5v-25.2c-0.5-0.9-3.7-5.2-5.7-6.3-2.7-1.6-9.8-5.2-9.8-5.2s-1-4.1 0.9-7.5c1.8-3.3 6.9-5.7 6.9-5.7l7.6 6.6c0.4-1.7 0.9-4.2 0.9-6.5s-0.9-7.7-1.3-9.4c-1.1-0.5-3.4-1.7-4.9-3.1-1.9-1.8-10.4-12.9-10.4-12.9s-0.3-3.4 1.8-6.1c2-2.6 6.1-3.9 6.1-3.9l8.3 8.9c0.6-2.1 1.4-5.4 1.4-7.8s-0.8-7-1.1-8.1l-19.3-23.6s0.8-4.3 3.2-6.4c2.2-2 6.6-3.3 6.6-3.3l10.2 10.8v-14.4s3.8-3.4 11.8-3.4 13.1 2.6 13.1 2.6v16c0 1.1-0.4 2.4-0.8 4-0.6 2.1-1.2 4.5-1.2 7.8-2 3-4.2 5.6-6.8 7.8-1.2 1.1-1.5 2.9-0.5 4.3zm60.4-6.9c-2.7 12.8 5.3 22.7 10.2 28.8 1.7 2.1 4 4.8 4 7.9s-0.2 2.4-0.4 3l-2.9-3.2-2.1 3.9-2.2-3.2-2.1 2.2c-15-8.7-22.7-22-22.7-22-1 0.4-1.9 1-2.7 2 0 0-3.3-3.6-3.3-10.4 0-14 8.2-23.5 10.6-26-0.8-3-3-12.8 1.8-19.1-0.9-1.5-2.3-4.4-2.3-7.7 0-5 3-7.3 6-7.3s4.8 1.9 5.7 3.1c0 0 5.5-1 10.7-0.2 0.3-0.4 1.2-1.8 2.9-1.8s3.4 2.1 3.4 4.4-0.1 1.6-0.1 1.6 2.4 1.5 5.1 1.5c0 0 2 1.2 2 2.6s-2.2 3.2-0.1 5.6l-2 1.7s1.7 1.7 1.7 3.5c0 0-10.1-1.2-7.7 10.4 8.9 1.9 16 17.4 16 17.4s-1.3 0.1-2.4 0.4c3.9 3.7 13.7 26.6 14.6 28.9 0 0 4.6 4.2 4.6 12.4s-4 7-4 7v-3.9s-1.3 2.3-3.3 2.3v-4.6s-0.8 2-3.1 2v-3.4c-1.6 0-3.7-1.9-3.7-4.7 0-7.8-6.3-21.6-9.1-27.5-0.7-1.5-2.5-2.1-4-1.3 0 0 10.1 19.5 10.1 28.8 0 15.7-12.5 26.5-12.7 26.6 1.1 1.3 3 1.3 4.2 0.1 2.5-2.6 6.5-7.5 9.1-14.1 2.1 4.3 5.2 12.1 5.2 21.2s-1.8 15.4-1.8 15.4h-0.6s-0.9-1.7-1.8-2.5c0 0-0.9 2.1-2.1 4.7 2.7 1 7.6 4.2 7.6 10.3h-25.3s0.4-10.7-2.3-16.6c1.1-2.9 2.4-7.2 2.4-11.8 0-7.7-6.4-14.5-10-17.8-1.2-1.1-3.2-0.9-4.2 0.4 0.1 0 11.2 8.3 11.2 17.3s-0.7 6.4-1.5 8.8c-1.3 3.5-2.9 6.6-4.9 9.3 1.7 1 3.9 2.8 3.9 4.7s-2.8 5.6-2.8 5.6h-22.3s1-2.5 1-6.6c0-10.9-7.2-19.7-7.2-27.5s1-6.5 1-6.5c-2.1-0.8-3.2 1.6-3.2 1.6s-1-1.6-1-3.9c0-6.6 11.2-19 12.7-27.3 10.2 11.6 20.2 16.2 20.2 16.2l2.7-1.4 2.3 3.6 2.3-4.4 2.8 3.8s3.1-2.8 3.1-8.1-2.5-6.8-4.6-9.4c-5.2-6.5-13.2-16.3-8.9-29-1.6-0.5-3.3 0.4-3.7 2.1zm105.3-94.2h-216.9v287c-12.1-2.7-61-15.2-108.2-50.5-31.7-23.6-56.9-52.7-75-86.5-22.7-42.4-34.1-92.3-34.1-148.5v-1.5h217.4v-214.2h216.9v214.2zm-255.2-107-2 0.7s-6.6-5.3-11.4-5.3-6.4 4.8-11.4 8c-4.1 2.7-7.3 3.1-13.1 7-14.2 9.6-14.5 14.4-14.5 26.8v5.7c0 3.6-1.1 7.2-2.3 10.7 0 0.2-0.1 0.4-0.2 0.6-1 2.9-2.3 7-2.3 9.9s0.6 5.1 2.2 6.7c1.2 1.2 2.5 2.5 2.5 4.5s-1.5 5.1-1.5 5.1h-21l-0.3-0.2c-0.1 0-2.7-1.9-2.7-5.5s2.6-5.4 2.6-8-1.1-2.9-1.1-4.5 1.8-11.5 2.3-14.3c-0.4-0.9-1.3-3.1-1.3-4.7s0.5-2.3 1-3c-1.4-2-2.5-4.2-3.3-6.6-7.9 4.7-17.1 7.2-27.3 7.3-7 0-12.3-2.9-12.3-2.9v2.9c0 6.1-9.5 12.6-9.5 24.1s1.1 3.5 2.6 4.3c1.6 0.9 3.7 2.1 3.7 6s-1.7 5.2-1.7 5.2h-22.6s-2.8-2.1-2.8-5.2 1.3-5.4 1.3-8.6-0.5-3.3-0.5-5.3 1.5-5.9 2.2-7.7c-0.3-0.5-0.7-1.2-0.7-2.1s1-2.1 2.1-2.7c-0.2-0.5-0.4-1-0.4-1.7 0-3.6 7.4-13.6 7.4-31.3h-0.8c-5 13.9-12.6 20.3-12.6 25.5s1.3 7.2 1.3 7.2l-0.3 0.4c-1.6 0-3-1.4-4-3.4l-0.7 0.2s-1.1 2.8 1.2 9.3l-0.6 0.2c-3.7-1.7-5.4-7.5-4.9-9.8l-0.9-0.4c-1 2-1.3 4.4-0.8 7l-0.6 0.2s-3.3-2-3.3-5.3c0-7.4 12.7-10.3 16.2-20.9 3.8-11.3 14.8-53 41.9-53-10.1 5.1-14 18.6-14 36.2l0.2 2.3 2-1c2-1 6.3-2.8 12.3-2.8s18.7 3.2 26.8 1.9l1.4-0.2v-1.4c-1.1-10 1.2-23.6 7-30.9 0.5 3.9 3.8 7.4 7.3 11.1 3.7 3.9 8.7 8.2 8.7 18.8h0.7s7.4-5.5 7.4-15-2.8-12.2-4.7-15.5c-0.8-1.4-2.7-1.8-4.1-0.8 0 0 5.8 8.1 5.8 16.3s-1.1 6.8-2.5 8.7h-0.7c0-5.6-4.5-10.3-8.4-14.5-3.3-3.5-6.5-6.8-6.5-10s1.9-6.9 4.3-9.5c5.5-5.6 15.8-13.6 22.3-13.6s13.3 6.3 13.3 6.3c1.8 0 6 0 9.4 2.3 3.1 2.2 8.2 6.2 10.7 8.2 1.3-0.3 3.2 0.6 3.8 1.7 0.3-1 1.6-2.2 2.7-2.3-0.6-0.8-0.3-2.4 0.5-3-1-1-1.3-2.8-1-4.3-2.3-3.1-15.1-19.8-15.1-29.3s11-14.6 11.5-14.8l1.6 1.5c-0.7 2.7 0 4.4 2.4 5.8l-0.5 2.3c-0.2 0-5 0.8-5 4.8s4.1 8.6 8.5 13.9c6.3 7.6 13.5 16.3 13.5 25.8s-1.5 7.8-3 9.8c-0.5 0.7-1 1.4-2.2 1.7-2.4 0.7-5 1.2-7.2 1.2-6.1 0-7.7-1.6-9.6-1.6s-3.8 2.3-3.8 4.3c0 0 3.2 1.5 7.6 1.5 14.8 0 21.5-8.3 21.5-8.3l1.3 1.3c-4.4 7.3-13.2 10.8-21.6 11 1 2.1 1.2 4.4 0.7 7.1zm-52.2 67.5v-2.6c0-0.5-0.5-2.5-1.2-5.3 0.3-1.6 0.9-3.3 1.5-5.1 1.2-3.5 2.5-7.5 2.5-11.6v-5.8c0-8.5-0.3-12.5 4.4-17.4v0.5c0 8 4.5 16.1 4.5 16.1l-0.4 2.2c1.1 0.5 2.4 1.4 2.4 2.8s-0.2 1.7-0.4 2.1c0.4 2.5 2.3 14.8 2.9 18.1 0.6 3.6 2.8 5.3 4.8 6.9 2.1 1.6 4.2 3.3 4.2 6.7s-1.8 5.1-1.8 5.1h-18.9s-2.5-2.7-2.5-5.7v-4.1c-0.8-0.6-2.1-1.6-2.1-3zm-66.5-0.1v-4.4c0-1.2-1-4.7-2.2-8.3 0.9-2.2 6.4-8.2 6.4-12.6 1.9 0.6 5.2 1.4 9.7 1.5v11c0 2.2 4.1 6 4.1 9.3s7.7 6.6 7.7 11.2-1.4 5.2-1.4 5.2h-19.6s-3.1-2.4-3.1-5.4 0.3-3.4 0.5-4.6c-0.9-0.5-2.2-1.4-2.2-2.9zm5.9-128.7v-6.1c1.6-0.4 3.3-0.7 4.9-1v6.1l2.7-0.3v-6.1c1.1-0.1 2.1-0.2 3.1-0.2v-3.4c2-0.5 4-0.8 6-1.1v6l2.7-0.4v-5.9c1.9-0.1 3.8-0.1 5.7 0v5.9l2.7 0.4v-6c2.1 0.2 4.2 0.6 6.3 1.1v3.4c0.9 0 1.9 0 2.8 0.2v6.1l2.7 0.3v-6.1c1.6 0.2 3.3 0.5 4.9 0.9v6.1l2.7 0.8v-6.2c1.9 0.6 3.9 1.2 5.8 2v10.3l-3.8 1.1v16.8c-2.4 2.3-4.5 5-5.6 8.4-2.3-0.3-5.9-0.8-10.3-1.1v-26c-1.1-0.7-2.1-1.4-3.1-2.1v27.9c-5.4-0.4-10.4-0.5-15.9-0.5v-27.6c-1.1 0.7-2.2 1.4-3.2 2.2v25.3c-5.2 0-10.4 0.3-15.9 2.7v-26l-3.6-1.1v-10.2c1.8-0.8 3.6-1.4 5.4-2v6.1l2.7-0.8zm33.1 68.1c-12.5 0-16.8-2.1-24.9-2.1s-9 1.1-11.6 2.2c0-9.1 2.6-33.7 20.8-33.7s19.4 0.8 24.2 1.4c-6.5 7.5-9.1 21.3-8.4 32.2z"/>
  <path class="st0" d="m550.5 519.8h13.1c1.7 0 3-1.3 3-3h-19.1c0 1.7 1.3 3 3 3z"/>
  <path class="st0" d="m481.5 518.3h57.7c1.6 0 3-1.1 3.4-2.6h-59.5s4.5-4.7 4.5-4.7c27.6 0 38.5-11.7 51.3-11.8 6.5 0.2 12.3 3.8 15.4 6.2l0.9-82.8h3l0.9 82.8c3.1-2.3 9-6 15.4-6.2 12.8 0.2 23.7 11.8 51.3 11.8l4.5 4.6h-59.5c0.4 1.6 1.8 2.6 3.4 2.6h57.7v-86l-4.2-3.2v-7.3h-6.2v-3.4h-5.3v3.2h2.8v58.2c0 1.6-1.3 2.8-2.8 2.8l-2.6-68.4c-14.2 3.5-21.1-10.4-37.1-10.4s-20 12.4-20 12.4-4-12.4-20-12.4-22.9 13.9-37.1 10.4l-2.6 68.4c-1.6 0-2.8-1.3-2.8-2.8v-58.2h2.8v-3.2h-5.3v3.4h-6.2v7.3l-4.2 3.2v86zm115-21.6c6.4 2.9 13.3 5.1 20.3 6.1 1.6 0.2 3.3 0.3 4.9 0.4v-77.4h4v81.4c-9 0-20.1-3.5-28.4-7.7-1-0.5-1.4-1.8-0.9-2.8zm-108.6-70.9h4v77.4c6.3-0.1 12.6-1.7 18.6-3.8 2.2-0.8 4.5-1.7 6.6-2.7 0.5 1 0.2 2.3-0.9 2.8-8.2 4.2-19.5 7.7-28.4 7.7v-81.4z"/>
  <circle class="st0" cx="353" cy="684.2" r="9.2"/>
  <circle class="st0" cx="338" cy="704.7" r="9.2"/>
  <circle class="st0" cx="353" cy="659.4" r="9.2"/>
  <circle class="st0" cx="329" cy="676.1" r="9.2"/>
  <path class="st0" d="m291.2 684.2c-5.8 12.8-6.5 25.7-0.5 36 5.9 10.3 17.4 16.2 31.5 17.5 5.7 8 12.7 13.8 20.3 16.6l1.8 0.6h0.2c0.6 0.2 1.1 0.3 1.7 0.4 0.4 0 0.8 0.2 1.2 0.2h0.5c1.7 0.3 3.5 0.5 5.2 0.5 0 2.2-2 4-4.2 3.7-1.8-0.2-3.6-0.6-5.3-1.1 1.7 3.5 5.3 6 9.5 6s10.6-4.7 10.6-10.5c7.7-2.8 14.6-8.6 20.3-16.6 14.1-1.4 25.6-7.3 31.5-17.6s5.3-23.2-0.5-36c4.8-10.6 6.1-21.2 3.1-30.3 2.5-1.9 4.1-5 4.1-8.3 0-5.9-4.7-10.6-10.6-10.6s-4.8 0.9-6.7 2.4c-5.8-3.6-12.9-5.8-20.8-6.6-8.2-11.5-19.1-18.5-30.9-18.5s-22.7 7-30.9 18.5c-7.6 0.7-14.4 2.8-20 6.1-1.7-1.2-3.8-1.8-6-1.8-5.9 0-10.6 4.7-10.6 10.6s1.1 5.4 2.9 7.3c-3.5 9.4-2.3 20.4 2.7 31.4zm2.9 34c-4.9-8.4-4.8-18.8-0.6-29.5 3.9 7.1 9.4 14.1 16.2 20.5 2.2 9.1 5.5 17.3 9.7 24.2-11.3-1.8-20.3-6.9-25.2-15.3zm68.8 32.2c-1.6-3.9-5.4-6.7-9.9-6.7s-8.3 2.8-9.9 6.7c-12.4-4.8-22.7-18.3-28.2-36.3 4.5 3.7 9.5 7.2 14.9 10.3s10.9 5.7 16.3 7.7c-5.9 1.4-11.7 2.1-17.1 2.1 1 1.4 2.1 2.6 3.2 3.8 6.7-0.3 13.7-1.5 20.8-3.7 8.4 2.5 16.7 3.8 24.4 3.8h1.4c-4.7 5.8-10.1 10-16 12.3zm39.3-110.1c-0.9 1.5-1.4 3.3-1.4 5.2 0 5.5 4.1 10 9.5 10.5-0.5-1.4-1.1-2.7-1.8-3.9-0.6-1.1-1.4-2.1-2.2-3.1 1.6-1.4 4-1.1 5.3 0.6 0.1 0.2 0.2 0.3 0.3 0.5 4.9 8.4 4.8 18.8 0.6 29.5-3.9-7.1-9.4-14.1-16.2-20.5-2.2-9.1-5.5-17.3-9.7-24.2 5.8 0.9 11.1 2.7 15.4 5.4zm-49.2-24.2c16.7 0 31.1 15.6 38 38.2-4.5-3.7-9.5-7.2-14.9-10.3s-10.9-5.7-16.3-7.7c5.9-1.4 11.7-2.1 17.1-2.1-1-1.4-2.1-2.6-3.2-3.8-6.7 0.3-13.7 1.5-20.8 3.7-9-2.7-17.7-3.9-25.8-3.7 7.2-8.9 16.1-14.2 25.8-14.2zm-58.9 34.1c0.1-0.2 0.2-0.4 0.3-0.5 1.2-1.6 3.6-1.9 5.3-0.6-0.8 1-1.5 2-2.2 3.1-0.7 1.3-1.3 2.6-1.8 3.9h0.4c5.9 0 10.6-4.7 10.6-10.6s-0.7-4.2-1.8-5.9c4.1-2.3 9-3.9 14.3-4.7 1.6-0.3 3.3-0.4 5-0.5 6.8-0.5 14.3 0.2 22 2-5.5 2.1-11 4.6-16.3 7.7-3.2 1.9-6.3 3.9-9.3 6-0.8 2.2-1.6 4.4-2.2 6.7 4.1-3.3 8.6-6.4 13.5-9.2 7-4 14.1-7.1 21.2-9.3 7 2.2 14.2 5.3 21.2 9.3 17 9.8 29.8 23.2 36.4 36.7-3 6.1-7.3 12.2-12.7 18 1-5.8 1.5-11.8 1.5-18s-0.2-7.3-0.5-10.9c-1.5-1.8-3-3.6-4.7-5.3 0.8 5.2 1.2 10.6 1.2 16.2 0 17.5-4.1 33.5-10.9 45.6 1.7-0.2 3.3-0.5 4.9-0.8 3-5.9 5.4-12.5 7.1-19.7 6.8-6.4 12.2-13.4 16.1-20.5 4.1 10.6 4.2 21-0.6 29.5-4.9 8.4-13.9 13.5-25.2 15.3-1.6 0.3-3.3 0.4-5 0.5-6.8 0.5-14.3-0.2-22-2 5.5-2.1 11-4.6 16.3-7.7 3.2-1.9 6.3-3.9 9.3-6 0.8-2.2 1.6-4.4 2.2-6.7-4.1 3.3-8.6 6.4-13.5 9.2-7 4-14.1 7.1-21.2 9.3-7-2.2-14.2-5.3-21.2-9.3-17-9.8-29.8-23.2-36.4-36.7 3-6.1 7.3-12.2 12.7-18-1 5.8-1.5 11.8-1.5 18s0.2 7.4 0.5 11c1.5 1.8 3 3.6 4.7 5.3-0.8-5.2-1.2-10.7-1.2-16.3 0-17.5 4.1-33.5 10.9-45.6-1.7 0.2-3.3 0.5-4.9 0.8-3 5.9-5.4 12.5-7.1 19.7-6.8 6.4-12.2 13.4-16.1 20.5-4.1-10.6-4.2-21 0.6-29.4z"/>
  <circle class="st0" cx="368" cy="704.7" r="9.2"/>
  <circle class="st0" cx="377" cy="676.1" r="9.2"/>
  <path class="st0" d="m516.7 738.4 2.9-0.9c-1.2-3.7-3-5.7-6-6.5l-1 2.6c0.8 2 2.1 3.5 4.2 4.8z"/>
  <path class="st0" d="m517.2 671.2 2.4-1.4c-1.3-3.3-3.6-4.9-7.1-6.3l-0.9 2.2c1.1 2.4 2.8 4.3 5.6 5.5z"/>
  <path class="st0" d="m504.2 636.3c-5.1-2.1-10.1-2.1-15.6 0l0.9 2.2c4.7 1.4 9.3 1.2 13.8 0z"/>
  <path class="st0" d="m389.6 436.6c-3.6 0-4.3 4-4.3 4l2.7-1.7s0.3 2.2 2.4 2.2 3.2-1.3 3.2-1.3-0.4-3.2-4-3.2z"/>
  <path class="st0" d="m524.8 696.6 2.3-1.2c-1.3-3.3-3-5.2-6.1-6l-0.7 2.9c0.7 2 2.2 3.4 4.5 4.3z"/>
  <path class="st0" d="m552 619c-1.9 0-2.9 1.7-2.9 2.9s0.5 2 1.7 1.9c0 0-0.1-2.3 1.2-2.3s0.5 0.1 0.7 0.3c1.1 0.8 2.7 1 3.5 0-1-1.4-2.4-2.8-4.2-2.8z"/>
  <path class="st0" d="m568.1 626.4c0.2-0.8 0.4-1.2 1-1.8 0 0-2.2-1.7-4-1.7s-2.3 2-2.3 2 0.6 1.4 2.5 1.4h2.7z"/>
  <path class="st0" d="m263.4 294.9-0.7-2.1s-10.6 23.3-21.3 28.8v-16c5.9-7.4 10.2-15.3 14.7-26.7l-0.6-1.6c-4.6 10.3-8.6 15.9-14.1 22.4v-57.2s-3.7 1.7-3.7 13.2v67.2c-0.7 0.1-1.4 0.2-2.1 0.2-1.5 0-3-0.4-4.5-1.2v-89.1c-0.1 0-3.8 1.7-3.8 13.6s0.1 66 0.1 72.7c-1.1-1-2.2-2.3-3.3-3.7v13.3c2 0.6 4.2 0.9 6.5 0.9 23.3 0 32.8-34.9 32.8-34.9z"/>
  <path class="st0" d="m664.6 227.7c3.3 0 5.9 1.3 7.6 2.6l0.2 0.2v-6.2c-1.2-0.1-2.5-0.2-3.7-0.2h-1.4c-18.8 0-31.7 23.6-35 32.5-9.3-19.1-17.8-32.5-36.2-32.5h-1.4c-18.8 0-31.7 23.6-35 32.5-9.3-19.1-17.8-32.5-36.2-32.5h-1.4c-18.8 0-31.7 23.6-35 32.5-9.3-19.1-17.8-32.5-36.2-32.5h-1.4c-18.8 0-31.7 23.6-35 32.5-9.3-19.1-17.8-32.5-36.2-32.5h-1.4c-18.8 0-31.7 23.6-35 32.5-9.3-19.1-17.8-32.5-36.2-32.5h-1.4c-19.6 0-32.8 25.9-35.4 33.5-9.5-19.6-18-33.5-36.8-33.5s-8.1 1.4-8.1 1.4v1.7c1.2-0.3 2.4-0.5 4-0.5 12.2 0 24.9 30.2 35.7 53.1 10.8 22.8 20.6 50.2 41.8 50.2s30-31.1 30-31.1l-0.7-1.2s-8.5 20.2-19.9 24.8v-17.2c5.7-7.3 9.9-15.1 14.3-26.2l-0.6-1.6c-4.5 10-8.4 15.7-13.7 21.9v-56.8s-3.7 1.7-3.7 13.2v67.4h-0.7c-2.7 0-5.3-1.3-7.8-3.6v-86.6c-0.1 0-3.8 1.7-3.8 13.2s0 58.7 0.1 69.3c-2.8-3.6-5.7-8.4-8.6-14v-57.5s-3.7 2.9-3.7 12.5v37.7c-3.1-6.3-6.5-13.4-10.1-20.9-1.9-4-3.8-7.9-5.6-11.7 1.9-7.5 14.5-34 30.7-34s5.9 1.3 7.6 2.6c9.7 8.7 19.5 31.4 28.1 49.5 10.8 22.8 20.6 50.2 41.8 50.2s30-31.1 30-31.1l-0.7-1.2s-8.9 21.3-20.8 25.1v-18c5.5-7.1 9.6-14.8 13.9-25.7l-0.6-1.6c-4.4 9.8-8.2 15.4-13.3 21.5v-56.3s-3.7 1.7-3.7 13.2v67.4c-2.9 0-5.7-1.6-8.5-4.4v-85.8c-0.1 0-3.8 1.7-3.8 13.2s0 55.3 0.1 68.1c-2.8-3.9-5.7-8.8-8.6-14.6v-55.8s-3.7 2.9-3.7 12.5v35.9c-2.9-5.9-5.9-12.3-9.2-19.1-2.1-4.4-4.2-8.7-6.2-12.9 2.7-8.7 14.9-32.8 30.4-32.8s5.9 1.3 7.6 2.6c9.7 8.7 19.5 31.4 28.1 49.5 10.8 22.8 20.6 50.2 41.8 50.2s30-31.1 30-31.1l-0.7-1.2s-8.9 21.3-20.8 25.1v-17c5.9-7.4 10.2-15.3 14.7-26.7l-0.6-1.6c-4.6 10.3-8.6 15.9-14.1 22.4v-57.2s-3.7 1.7-3.7 13.2v67.4c-2.9 0-5.7-1.6-8.5-4.4v-85.8c-0.1 0-3.8 1.7-3.8 13.2s0 55.3 0.1 68.1c-2.8-3.9-5.7-8.8-8.6-14.6v-55.8s-3.7 2.9-3.7 12.5v35.9c-2.9-5.9-5.9-12.3-9.2-19.1-2.1-4.4-4.2-8.7-6.2-12.9 2.7-8.7 14.9-32.8 30.4-32.8s5.9 1.3 7.6 2.6c9.7 8.7 19.5 31.4 28.1 49.5 10.8 22.8 20.6 50.2 41.8 50.2s30-31.1 30-31.1l-0.7-1.2s-8.9 21.3-20.8 25.1v-16.5c6.2-7.6 10.5-15.6 15.1-27.2l-0.6-1.6c-4.7 10.6-8.8 16.2-14.6 22.9v-57.7s-3.7 1.7-3.7 13.2v67.4c-2.9 0-5.7-1.6-8.5-4.4v-85.8c-0.1 0-3.8 1.7-3.8 13.2s0 55.3 0.1 68.1c-2.8-3.9-5.7-8.8-8.6-14.6v-55.8s-3.7 2.9-3.7 12.5v35.9c-2.9-5.9-5.9-12.3-9.2-19.1-2.1-4.4-4.2-8.7-6.2-12.9 2.7-8.7 14.9-32.8 30.4-32.8s5.9 1.3 7.6 2.6c9.7 8.7 19.5 31.4 28.1 49.5 10.8 22.8 20.6 50.2 41.8 50.2s30-31.1 30-31.1l-0.7-1.2s-8.9 21.3-20.8 25.1v-17.6c5.7-7.3 9.9-15 14.2-26.1l-0.6-1.6c-4.5 10-8.4 15.6-13.7 21.9v-56.7s-3.7 1.7-3.7 13.2v67.4c-2.9 0-5.7-1.6-8.5-4.4v-85.8c-0.1 0-3.8 1.7-3.8 13.2s0 55.3 0.1 68.1c-2.8-3.9-5.7-8.8-8.6-14.6v-55.8s-3.7 2.9-3.7 12.5v35.9c-2.9-5.9-5.9-12.3-9.2-19.1-2.1-4.4-4.2-8.7-6.2-12.9 2.7-8.7 14.9-32.8 30.4-32.8s5.9 1.3 7.6 2.6c9.7 8.7 19.5 31.4 28.1 49.5 10.8 22.8 20.6 50.2 41.8 50.2s2 0 3-0.2v-6.7c-2.3-0.5-4.5-2-6.7-4.2v-85.8c-0.1 0-3.8 1.7-3.8 13.2s0 55.3 0.1 68.1c-2.8-3.9-5.7-8.8-8.6-14.6v-55.8s-3.7 2.9-3.7 12.5v35.9c-2.9-5.9-5.9-12.3-9.2-19.1-2.1-4.4-4.2-8.7-6.2-12.9 2.7-8.7 14.9-32.8 30.4-32.8z"/>
 </g>
</svg>
