<svg version="1.1" viewBox="0 0 463.15 655" xmlns="http://www.w3.org/2000/svg">
 <defs>
  <style>.st0 {
        fill: #0c0c0c;
      }</style>
 </defs>
 <path class="st0" d="m104.13 323c0 2.6-1.4 5.3-1.4 5.3h-19.6s-3.1-2.5-3.1-5.4 0.3-3.4 0.5-4.6c-1-0.5-2.2-1.4-2.2-3v-4.4c0-1.2-1-4.7-2.2-8.4 0.9-2.2 6.4-8.3 6.4-12.6 1.9 0.6 5.2 1.4 9.8 1.5v11.1c0 2.2 4.1 6.1 4.1 9.3s7.8 6.6 7.8 11.2zm-24.4-103c5.4-2.4 10.7-2.8 15.9-2.7v-25.4c1.1-0.8 2.2-1.5 3.3-2.2v27.7c5.4 0 10.5 0 15.9 0.5v-28c1 0.7 2.1 1.4 3.1 2.1v26.1c4.4 0.4 8 0.8 10.4 1.1 1-3.4 3.2-6.1 5.6-8.5v-16.9l3.8-1.1v-10.3c-1.9-0.8-3.9-1.5-5.8-2.1v6.3l-2.7-0.8v-6.2c-1.6-0.4-3.3-0.7-4.9-0.9v6.1l-2.7-0.3v-6.1c-0.9 0-1.9-0.1-2.8-0.2v-3.5c-2.1-0.5-4.2-0.9-6.4-1.1v6.1l-2.7-0.4v-5.9c-1.9-0.1-3.8-0.1-5.7 0v5.9l-2.7 0.4v-6c-2 0.2-4 0.6-6 1.1v3.4c-1.1 0-2.1 0.1-3.2 0.2v6.1l-2.7 0.3v-6.1c-1.6 0.3-3.3 0.6-4.9 1v6.1l-2.7 0.8v-6.2c-1.8 0.6-3.6 1.2-5.4 2v10.3l3.7 1.1v26.2zm21.9 0.5c-18.3 0-20.9 24.7-20.9 33.8 2.6-1 6.6-2.2 11.7-2.2 8.2 0 12.5 2.1 25 2.1-0.7-11 1.9-24.8 8.4-32.4-4.8-0.6-15.6-1.4-24.3-1.4zm115.6 7.4 1.3 1.3c-4.4 7.4-13.3 10.8-21.7 11 1 2.1 1.3 4.5 0.7 7.1l-2 0.7s-6.7-5.3-11.4-5.3-6.4 4.8-11.5 8.1c-4.2 2.7-7.4 3.1-13.1 7-14.3 9.6-14.6 14.5-14.6 26.9v5.7c0 3.6-1.1 7.2-2.3 10.7 0 0.2-0.1 0.4-0.2 0.6-1 2.9-2.3 7.1-2.3 9.9s0.6 5.1 2.2 6.7c1.2 1.3 2.5 2.5 2.5 4.5s-1.5 5.1-1.5 5.1h-21.1l-0.3-0.2c-0.1 0-2.7-1.9-2.7-5.5s2.6-5.4 2.6-8-1.1-2.9-1.1-4.5 1.8-11.5 2.3-14.4c-0.4-0.9-1.3-3.1-1.3-4.8s0.5-2.3 1-3c-1.4-2-2.5-4.2-3.3-6.7-8 4.7-17.2 7.2-27.4 7.3-7 0-12.4-2.9-12.4-2.9v2.9c0 6.1-9.5 12.7-9.5 24.2s1.1 3.5 2.6 4.3c1.6 0.9 3.7 2.1 3.7 6s-1.7 5.3-1.7 5.3h-22.7s-2.8-2.1-2.8-5.2 1.3-5.5 1.3-8.7-0.5-3.3-0.5-5.3 1.5-5.9 2.2-7.8c-0.3-0.5-0.7-1.2-0.7-2.1s1-2.1 2.1-2.7c-0.2-0.5-0.4-1-0.4-1.7 0-3.6 7.5-13.7 7.5-31.4h-0.8c-5 13.9-12.7 20.4-12.7 25.6s1.3 7.3 1.3 7.3l-0.3 0.4c-1.6 0-3.1-1.4-4.1-3.4l-0.7 0.2s-1.1 2.9 1.2 9.4l-0.6 0.2c-3.7-1.7-5.4-7.5-4.9-9.9l-0.9-0.4c-1 2-1.3 4.5-0.8 7.1l-0.6 0.2s-3.3-2-3.3-5.3c0-7.5 12.8-10.4 16.3-21 3.8-11.4 14.8-53.2 42.1-53.2-10.2 5.1-14 18.7-14 36.3l0.2 2.3 2-1c2-1 6.3-2.8 12.4-2.8s18.8 3.2 26.9 1.9l1.4-0.2v-1.4c-1.1-10 1.2-23.7 7-31 0.5 4 3.8 7.5 7.3 11.1 3.8 4 8.7 8.2 8.7 18.8h0.7s7.4-5.5 7.4-15-2.8-12.3-4.8-15.6c-0.8-1.5-2.8-1.8-4.1-0.8 0 0 5.9 8.1 5.9 16.4s-1.1 6.8-2.5 8.7h-0.7c0-5.7-4.5-10.4-8.5-14.6-3.4-3.5-6.5-6.9-6.5-10s1.9-6.9 4.3-9.6c5.6-5.6 15.9-13.6 22.4-13.6s13.4 6.3 13.4 6.3c1.8 0 6.1 0 9.5 2.3 3.1 2.2 8.2 6.2 10.7 8.2 1.3-0.3 3.2 0.6 3.8 1.7 0.3-1 1.6-2.2 2.7-2.3-0.6-0.8-0.3-2.4 0.5-3-1-1-1.3-2.8-1-4.3-2.3-3.1-15.2-19.9-15.2-29.4s11.1-14.7 11.5-14.9l1.6 1.5c-0.7 2.7 0 4.5 2.4 5.9l-0.5 2.3c-0.2 0-5 0.8-5 4.9s4.1 8.6 8.5 14c6.3 7.7 13.5 16.4 13.5 26s-1.5 7.8-3 9.8c-0.5 0.7-1 1.4-2.2 1.7-2.4 0.7-5 1.2-7.2 1.2-6.1 0-7.7-1.6-9.6-1.6s-3.8 2.4-3.8 4.3c0 0 3.2 1.5 7.6 1.5 14.8 0 21.6-8.4 21.6-8.4zm-36.2-6.2s-0.4-3.2-4-3.2-4.3 4-4.3 4l2.7-1.8s0.3 2.3 2.4 2.3 3.2-1.3 3.2-1.3zm-14.7 94.6c-2.1-1.6-4.2-3.3-4.8-6.9-0.6-3.3-2.5-15.7-2.9-18.2 0.2-0.5 0.4-1.2 0.4-2.2 0-1.4-1.4-2.3-2.4-2.8l0.4-2.3s-4.6-8.1-4.6-16.1v-0.5c-4.7 4.9-4.5 9-4.5 17.5v5.8c0 4.1-1.3 8.2-2.5 11.7-0.6 1.8-1.2 3.6-1.5 5.1 0.7 2.7 1.2 4.8 1.2 5.3v2.6c0 1.4 1.3 2.5 2.1 3v4.1c0 2.9 2.5 5.7 2.5 5.7h19s1.8-2.1 1.8-5.1-2.1-5.1-4.2-6.7zm101.8 137.9-19.4-23.7s0.8-4.4 3.2-6.4c2.3-2 6.6-3.3 6.6-3.3l10.2 10.9v-14.5s3.8-3.4 11.9-3.4 13.2 2.6 13.2 2.6v16.1c0 1.1-0.4 2.5-0.8 4-0.6 2.1-1.2 4.5-1.2 7.9-2 3-4.3 5.6-6.9 7.9-1.2 1.1-1.5 2.9-0.5 4.3 7.7-5.2 11.1-12.8 11.1-12.8s5.2 0.2 8.1 3c2.8 2.7 4 7.1 4 7.1l-5.2 4.8 0.5 3.5c-4.2 0.9-7.9 3.3-11.1 6.9l-0.2 11.1c-1.9 1.8-3.9 3.4-6.2 4.9-1.4 0.9-1.9 2.6-1.1 4.1 7-3.6 12.4-8.7 13.8-10.2 2.6-2.8 6.8-9.9 6.8-9.9s4 0.7 6.9 3.9 3 6.5 3 6.5-5.1 8-7 9.5c-0.8 0.7-2.1 1.3-3.5 2-1.7 0.8-3.7 1.8-4.7 2.8-1.5 1.6-6 8.9-7.9 12v6.9c-2 2.6-4.3 5-6.8 7.2-1.2 1.1-1.4 3-0.4 4.3 9-7.3 12.6-12.5 12.6-12.5s4.9 0 7.4 3.2c2.7 3.5 3.2 7.1 3.2 7.1s-8.7 5.6-10.9 7.7c-1.8 1.7-4.2 5.6-4.8 6.8v10.4h-24.6v-25.3c-0.5-0.9-3.7-5.2-5.7-6.3-2.8-1.6-9.9-5.3-9.9-5.3s-1-4.2 0.9-7.5c1.8-3.3 6.9-5.7 6.9-5.7l7.6 6.6c0.4-1.7 0.9-4.3 0.9-6.5s-0.9-7.7-1.3-9.4c-1.1-0.5-3.4-1.7-5-3.1-1.9-1.8-10.4-12.9-10.4-12.9s-0.3-3.4 1.8-6.1c2-2.6 6.2-4 6.2-4l8.4 9c0.6-2.1 1.4-5.4 1.4-7.8s-0.8-7.1-1.1-8.2zm29.4 62.7c0.8 2 2.1 3.6 4.2 4.8l2.9-0.9c-1.2-3.8-3-5.8-6.1-6.6l-1 2.6zm7.7-41.4c0.7 2 2.2 3.4 4.5 4.3l2.3-1.2c-1.3-3.3-3-5.3-6.1-6zm-8.6-26.7c1.1 2.4 2.9 4.3 5.6 5.5l2.4-1.4c-1.3-3.4-3.6-4.9-7.1-6.3zm-23.2-29.7 0.9 2.2c4.8 1.4 9.4 1.2 13.8 0l0.9-2.2c-5.2-2.1-10.2-2.1-15.7 0zm-122.3-5.9c1.1 1.2 2.2 2.5 3.2 3.8-5.5 0-11.3 0.8-17.2 2.1 5.5 2.1 11 4.6 16.4 7.8 5.4 3.1 10.4 6.6 14.9 10.3-6.9-22.7-21.4-38.4-38.2-38.4s-18.8 5.3-25.9 14.3c8.1-0.2 17 1.1 26 3.7 7.2-2.1 14.2-3.3 20.9-3.7zm155-137.3c-2.1 1-4.4 1.9-6.6 2.7-6 2.1-12.4 3.6-18.7 3.8v-77.7h-4v81.8c8.9 0 20.2-3.5 28.5-7.7 1-0.5 1.4-1.8 0.9-2.8zm-235.8 196c-4.1 10.7-4.2 21.1 0.6 29.6 4.9 8.5 14 13.6 25.3 15.3-4.2-7-7.5-15.2-9.7-24.3-6.8-6.5-12.3-13.5-16.2-20.6zm316.5-193.2c8.3 4.2 19.4 7.7 28.5 7.7v-81.8h-4v77.7c-1.6 0-3.3-0.1-4.9-0.4-7-1-14-3.2-20.4-6.1-0.5 1-0.2 2.3 0.9 2.8zm-197.7 153.9c-1.2-1.6-3.7-1.9-5.3-0.6 0.8 1 1.5 2 2.2 3.1 0.7 1.2 1.3 2.6 1.8 3.9-5.3-0.6-9.5-5.1-9.5-10.6s0.5-3.7 1.4-5.2c-4.4-2.7-9.6-4.5-15.5-5.4 4.2 7 7.5 15.2 9.7 24.3 6.8 6.5 12.3 13.5 16.2 20.6 4.1-10.7 4.2-21.1-0.6-29.6-0.1-0.2-0.2-0.4-0.3-0.5zm-185.8-304.2h458.9v228.1c0 58.3-12 110.3-35.6 154.6-19 35.4-45.4 66-78.5 90.7-56.5 42.2-115 53.2-115 53.2s-59-11-115.5-53.2c-33.2-24.7-59.6-55.2-78.5-90.7-23.6-44.2-35.6-96.2-35.6-154.6v-228.1zm192.1 308.4c2.5-1.9 4.1-5 4.1-8.4 0-5.9-4.8-10.7-10.7-10.7s-4.9 0.9-6.7 2.4c-5.8-3.6-12.9-5.9-20.9-6.7-8.2-11.5-19.2-18.6-31.1-18.6s-22.8 7-31.1 18.6c-7.6 0.7-14.4 2.8-20.1 6.2-1.7-1.2-3.8-1.8-6-1.8-5.9 0-10.7 4.8-10.7 10.7s1.1 5.4 2.9 7.3c-3.5 9.4-2.3 20.5 2.7 31.6-5.9 12.9-6.5 25.9-0.5 36.2s17.5 16.2 31.6 17.6c5.7 8 12.7 13.8 20.4 16.7l1.8 0.6h0.2c0.6 0.2 1.1 0.3 1.7 0.4 0.4 0 0.8 0.2 1.2 0.2h0.5c1.7 0.3 3.5 0.5 5.2 0.5 0 2.2-2 4-4.2 3.7-1.8-0.2-3.6-0.6-5.4-1.1 1.7 3.5 5.4 6 9.6 6s10.6-4.7 10.7-10.6c7.7-2.8 14.7-8.7 20.4-16.6 14.1-1.4 25.7-7.3 31.6-17.6 6-10.3 5.3-23.3-0.5-36.2 4.8-10.6 6.1-21.3 3.1-30.5zm74.9-225.7v86.5h58c1.6 0 3-1.1 3.4-2.6h-59.8l4.6-4.7c27.7 0 38.7-11.7 51.5-11.9 6.5 0.2 12.4 3.8 15.5 6.2l0.9-83.2h3l0.9 83.2c3.1-2.4 9-6 15.5-6.2 12.8 0.2 23.8 11.9 51.5 11.9l4.6 4.7h-59.8c0.4 1.6 1.8 2.7 3.4 2.7h58v-86.5l-4.2-3.2v-7.3h-6.2v-3.4h-5.3v3.3h2.8v58.4c0 1.6-1.3 2.8-2.8 2.8l-2.6-68.7c-14.3 3.5-21.2-10.5-37.3-10.5s-20 12.4-20 12.4-4-12.4-20-12.4-23 13.9-37.3 10.5l-2.6 68.7c-1.6 0-2.8-1.3-2.8-2.8v-58.4h2.8v-3.2h-5.3v3.4h-6.2v7.3l-4.2 3.2zm66.3 85c0 1.7 1.3 3 3 3h13.1c1.7 0 3-1.3 3-3h-19.2zm-322.2 58.8h218.6v288.6c9.5-2 59.6-14.1 108.9-51.1 31.7-23.8 57-53 75.1-87 22.7-42.5 34.1-92.6 34.1-149v-1.6h-218.1v-215.5h-218.6v215.5zm115.8 162.8c-7.2 2.1-14.2 3.3-20.9 3.7-1.1-1.2-2.2-2.5-3.2-3.8 5.5 0 11.3-0.8 17.2-2.1-5.5-2.1-11-4.6-16.4-7.8-5.4-3.1-10.4-6.6-14.9-10.3 5.5 18.1 15.9 31.7 28.3 36.5 1.6-4 5.4-6.8 9.9-6.8s8.4 2.8 9.9 6.8c5.9-2.3 11.4-6.6 16-12.4h-1.4c-7.7 0-16.1-1.3-24.5-3.8zm59.9-45.8c4.1 10.7 4.2 21.1-0.6 29.6-4.9 8.5-14 13.6-25.3 15.3-1.6 0.3-3.3 0.4-5 0.6-6.8 0.5-14.3-0.2-22.1-2 5.5-2.1 11-4.6 16.4-7.8 3.3-1.9 6.4-3.9 9.3-6 0.8-2.2 1.6-4.4 2.2-6.7-4.1 3.3-8.7 6.4-13.6 9.3-7 4.1-14.2 7.2-21.3 9.4-7.1-2.2-14.2-5.3-21.3-9.4-17.1-9.9-29.9-23.3-36.6-36.8 3-6.2 7.3-12.3 12.8-18.1-1 5.8-1.5 11.9-1.5 18.1s0.2 7.4 0.5 11c1.5 1.8 3 3.6 4.7 5.3-0.8-5.2-1.2-10.7-1.2-16.4 0-17.6 4.2-33.7 11-45.8-1.7 0.2-3.3 0.5-4.9 0.8-3 5.9-5.4 12.6-7.2 19.8-6.8 6.5-12.3 13.5-16.2 20.6-4.1-10.7-4.2-21.1 0.6-29.6 0.1-0.2 0.2-0.4 0.3-0.5 1.3-1.6 3.7-1.9 5.3-0.6-0.8 1-1.5 2-2.2 3.1-0.7 1.3-1.3 2.6-1.8 4h0.4c5.9 0 10.7-4.8 10.7-10.7s-0.7-4.2-1.8-5.9c4.2-2.3 9-3.9 14.3-4.8 1.6-0.3 3.3-0.4 5-0.6 6.8-0.5 14.3 0.2 22.1 2-5.5 2.1-11 4.6-16.4 7.8-3.3 1.9-6.4 3.9-9.3 6-0.8 2.2-1.6 4.4-2.2 6.7 4.1-3.3 8.7-6.4 13.6-9.3 7-4.1 14.2-7.2 21.3-9.4 7.1 2.2 14.2 5.3 21.3 9.4 17.1 9.9 29.9 23.3 36.6 36.8-3 6.2-7.3 12.3-12.8 18.1 1-5.8 1.5-11.9 1.5-18.1s-0.2-7.4-0.5-11c-1.5-1.8-3-3.6-4.7-5.3 0.8 5.2 1.2 10.7 1.2 16.3 0 17.6-4.2 33.7-11 45.8 1.7-0.2 3.3-0.5 4.9-0.8 3-5.9 5.5-12.6 7.2-19.8 6.8-6.5 12.3-13.5 16.2-20.6zm-69.2-29.5c0 5.1 4.2 9.3 9.3 9.3s9.3-4.2 9.3-9.3-4.2-9.3-9.3-9.3-9.3 4.2-9.3 9.3zm-14.8 26c5.1 0 9.3-4.2 9.3-9.3s-4.2-9.3-9.3-9.3-9.3 4.2-9.3 9.3 4.2 9.3 9.3 9.3zm18.3 19.4c0-5.1-4.2-9.3-9.3-9.3s-9.3 4.2-9.3 9.3 4.2 9.3 9.3 9.3 9.3-4.2 9.3-9.3zm15.1-20.6c0-5.1-4.2-9.3-9.3-9.3s-9.3 4.2-9.3 9.3 4.2 9.3 9.3 9.3 9.3-4.2 9.3-9.3zm15 20.6c0-5.1-4.2-9.3-9.3-9.3s-9.3 4.2-9.3 9.3 4.2 9.3 9.3 9.3 9.3-4.2 9.3-9.3zm9.1-28.6c0-5.1-4.2-9.3-9.3-9.3s-9.3 4.2-9.3 9.3 4.2 9.3 9.3 9.3 9.3-4.2 9.3-9.3zm287.4-444.5v81.6c1.2 0.7 2.5 1.1 3.7 1.1 3.3 0 7.6-3.5 7.6-3.5v13.2c-4.4 2.7-9.5 4.1-14.6 4.1-19.5 0-28.5-14.3-38-33.6-0.8 2.7-3.1 9.3-7.3 16-7.2 11.5-16.7 17.6-27.3 17.6-19.5 0-28.5-14.3-38-33.6-0.8 2.7-3.1 9.3-7.3 16-7.2 11.5-16.7 17.6-27.3 17.6-19.5 0-28.5-14.3-38-33.6-0.8 2.7-3.1 9.3-7.3 16-7.2 11.5-16.7 17.6-27.3 17.6-19.5 0-28.5-14.3-38-33.6-0.8 2.7-3.1 9.3-7.3 16-7.2 11.5-16.7 17.6-27.3 17.6-19.5 0-28.5-14.3-38-33.6-0.8 2.7-3.1 9.3-7.3 16-7.2 11.5-16.7 17.6-27.3 17.6-19.5 0-28.5-14.3-38-33.6-0.8 2.7-3.1 9.3-7.3 16-7.2 11.5-16.7 17.6-27.3 17.6-10.6 0-6-0.4-8.7-1.1v-15.3s3.4 1.9 7 2.2v-86c-3-3.3-7-1.7-7-1.7v-7.3c3.2-1.3 6.6-2 10.1-2 19.5 0 28.5 14.3 38 33.6 0.8-2.7 3.1-9.3 7.3-16 7.2-11.5 16.7-17.6 27.3-17.6 19.5 0 28.5 14.3 38 33.6 0.8-2.7 3.1-9.3 7.3-16 7.2-11.5 16.7-17.6 27.3-17.6 19.5 0 28.5 14.3 38 33.6 0.8-2.7 3.1-9.3 7.3-16 7.2-11.5 16.7-17.6 27.3-17.6 19.5 0 28.5 14.3 38 33.6 0.8-2.7 3.1-9.3 7.3-16 7.2-11.5 16.7-17.6 27.3-17.6 19.5 0 28.5 14.3 38 33.6 0.8-2.7 3.1-9.3 7.3-16 7.2-11.5 16.7-17.6 27.3-17.6 19.5 0 28.5 14.3 38 33.6 0.8-2.7 3.1-9.3 7.3-16 7.2-11.5 16.7-17.6 27.3-17.6s9.5 0.9 13.2 2.6v5.5s-9.4 5.1-11.3 6.7zm-12.2 67.4c2.3 3.9 4.8 7.4 7.2 10.1v-81.2s-3.7 3.1-3.7 12.4v0.7c-1.2 1.7-2.4 3.6-3.5 5.7v52.4zm-12.1-23.5c2.1 4.3 4.5 9.5 7.2 14.6v-51.5s-3.7 3.1-3.7 12.4v14.4c-0.9 2.3-1.7 4.6-2.4 6.6l-1.1 3.4zm-60.5 23.9c3 5.4 7.2 10.3 7.2 10.3v-81.9s-3.7 3.1-3.7 12.4v0.7c-1.2 1.7-2.4 3.6-3.5 5.7zm-12.1-23.9c2.2 4.6 4.7 9.8 7.2 14.6v-51.5s-3.7 3.1-3.7 12.4v14.4c-0.9 2.3-1.7 4.6-2.4 6.6l-1.1 3.4zm-60.5 23.9c3 5.4 7.2 10.3 7.2 10.3v-81.9s-3.7 3.1-3.7 12.4v0.7c-1.2 1.7-2.4 3.6-3.5 5.7zm-12.1-23.9c2.2 4.6 4.7 9.8 7.2 14.6v-51.5s-3.7 3.1-3.7 12.4v14.4c-0.9 2.3-1.7 4.6-2.4 6.6l-1.1 3.4zm-60.5 23.9c3 5.4 7.2 10.3 7.2 10.3v-81.9s-3.7 3.1-3.7 12.4v0.7c-1.2 1.7-2.4 3.6-3.5 5.7zm-12.1-23.9c2.2 4.6 4.7 9.8 7.2 14.6v-51.5s-3.7 3.1-3.7 12.4v14.4c-0.9 2.3-1.7 4.6-2.4 6.6l-1.1 3.4zm-60.5 23.9c3 5.4 7.2 10.3 7.2 10.3v-81.9s-3.7 3.1-3.7 12.4v0.7c-1.2 1.7-2.4 3.6-3.5 5.7zm-12.1-23.9c2.2 4.6 4.7 9.8 7.2 14.6v-51.5s-3.7 3.1-3.7 12.4v14.4c-0.9 2.3-1.7 4.6-2.4 6.6l-1.1 3.4zm-60.5 23.9c3 5.4 7.2 10.3 7.2 10.3v-81.9s-3.7 3.1-3.7 12.4v0.7c-1.2 1.7-2.4 3.6-3.5 5.7zm-12.1-23.9c2.2 4.6 4.7 9.8 7.2 14.6v-51.5s-3.7 3.1-3.7 12.4v14.4c-0.9 2.3-1.7 4.6-2.4 6.6l-1.1 3.4zm-45.6 42.5c-1.3 0.2-2.8 0.4-4.3 0.4-2.7 0-5.1-0.6-6.8-1.1v3.9s2.7 0.7 4.8 0.7c3.5 0 6.1-1.7 6.1-1.7v-2.1zm4.4-71.7c-2.4-4.1-4.8-7.8-7.2-10.8v76.2c2.5-2.6 4.9-7.3 7.2-12.5zm11.9 23c-2.3-4.7-4.6-9.5-6.9-14v51.1s3.7-3.1 3.7-12.4v-15.4c0.8-2.1 1.5-4.1 2.1-6l1.1-3.4zm56.7 49.4c-27.1 0-41.9-97.6-75.5-97.6s-2.4 0-3.5 0.1v1.9c24.6 4.1 42.3 98.5 72.8 98.5 30.5 0 4.5-0.4 6.2-1zm4-72.4c-2.4-4.1-4.8-7.8-7.2-10.8v72.6c2.4-2.4 4.8-6.1 7.2-10.4v-51.5zm11.9 23c-2.3-4.7-4.6-9.5-6.9-14v51.1s3.7-3.1 3.7-12.4v-15.4c0.8-2.1 1.5-4.1 2.1-6l1.1-3.4zm56.8 49.4c-27.1 0-41.9-97.6-75.5-97.6-33.6 0-2.4 0-3.5 0.1v1.9c24.6 4.1 42.3 98.5 72.8 98.5s4.5-0.4 6.2-1zm3.9-72.4c-2.4-4.1-4.8-7.8-7.2-10.8v72.6c2.4-2.4 4.8-6.1 7.2-10.4v-51.5zm11.9 23c-2.3-4.7-4.6-9.5-6.9-14v51.1s3.7-3.1 3.7-12.4v-15.4c0.8-2.1 1.5-4.1 2.1-6l1.1-3.4zm56.9 49.4c-27.1 0-41.9-97.6-75.5-97.6s-2.4 0-3.5 0.1v1.9c24.6 4.1 42.3 98.5 72.8 98.5s4.5-0.4 6.2-1zm3.8-72.4c-2.4-4.1-4.8-7.8-7.2-10.8v72.6c2.4-2.4 4.8-6.1 7.2-10.4v-51.5zm11.9 23c-2.3-4.7-4.6-9.5-6.9-14v51.1s3.7-3.1 3.7-12.4v-15.4c0.8-2.1 1.5-4.1 2.1-6l1.1-3.4zm56.9 49.4c-27.1 0-41.9-97.6-75.5-97.6s-2.4 0-3.5 0.1v1.9c24.6 4.1 42.3 98.5 72.8 98.5s4.5-0.4 6.2-1zm3.8-72.4c-2.4-4.1-4.8-7.8-7.2-10.8v72.6c2.4-2.4 4.8-6.1 7.2-10.4v-51.5zm11.9 23c-2.3-4.7-4.6-9.5-6.9-14v51.1s3.7-3.1 3.7-12.4v-15.4c0.8-2.1 1.5-4.1 2.1-6l1.1-3.4zm57 49.4c-27.1 0-41.9-97.6-75.5-97.6s-2.4 0-3.5 0.1v1.9c24.6 4.1 42.3 98.5 72.8 98.5s4.5-0.4 6.2-1zm3.8-72.4c-2.4-4.1-4.8-7.8-7.2-10.8v72.6c2.4-2.4 4.8-6.1 7.2-10.4v-51.5zm11.8 23c-2.3-4.7-4.6-9.5-6.9-14v51.1s3.7-3.1 3.7-12.4v-15.4c0.8-2.1 1.5-4.1 2.1-6l1.1-3.4zm-18.5-48.2c-1.3 0-2.4 0-3.5 0.1v1.9c24.6 4.1 42.3 98.5 72.8 98.5s4.5-0.4 6.2-1v-1.9c-27.1 0-41.9-97.6-75.5-97.6zm74.5 3.8 4.7-2.4s-3.1-1.5-5.7-1.5-1.9 0.2-1.9 0.2v2.3c1 0.3 2 0.8 3 1.4zm-104.5 439.5c-1.6-0.5-3.3 0.4-3.7 2.1-2.7 12.9 5.3 22.8 10.3 28.9 1.7 2.1 4 4.8 4 7.9s-0.2 2.4-0.4 3l-2.9-3.2-2.2 3.9-2.3-3.2-2.1 2.2c-15.1-8.7-22.8-22.1-22.8-22.1-1 0.4-1.9 1-2.7 2 0 0-3.3-3.6-3.3-10.5 0-14 8.2-23.6 10.7-26.1-0.8-3-3-12.8 1.8-19.2-0.9-1.5-2.3-4.4-2.3-7.7 0-5 3-7.3 6.1-7.3s4.8 1.9 5.8 3.1c0 0 5.6-1 10.7-0.2 0.3-0.4 1.2-1.8 2.9-1.8s3.4 2.2 3.4 4.5-0.1 1.6-0.1 1.6 2.4 1.5 5.1 1.5c0 0 2 1.2 2 2.6s-2.2 3.2-0.1 5.6l-2 1.7s1.7 1.7 1.7 3.5c0 0-10.2-1.2-7.7 10.5 8.9 1.9 16.1 17.5 16.1 17.5s-1.3 0.1-2.4 0.4c3.9 3.8 13.8 26.7 14.7 29.1 0 0 4.6 4.2 4.6 12.5s-4 7-4 7v-3.9s-1.3 2.3-3.3 2.3v-4.6s-0.8 2-3.1 2v-3.5c-1.6 0-3.7-1.9-3.7-4.8 0-7.8-6.3-21.7-9.2-27.6-0.7-1.5-2.5-2.1-4-1.3 0 0 10.2 19.6 10.2 28.9 0 15.8-12.6 26.6-12.7 26.7 1.1 1.3 3 1.4 4.2 0.1 2.5-2.6 6.5-7.5 9.1-14.2 2.1 4.3 5.2 12.1 5.2 21.3s-1.8 15.5-1.8 15.5h-0.6s-0.9-1.8-1.8-2.5c0 0-0.9 2.1-2.1 4.7 2.8 1 7.7 4.2 7.7 10.3h-25.4s0.4-10.7-2.3-16.7c1.1-2.9 2.4-7.2 2.4-11.9 0-7.7-6.4-14.6-10.1-17.8-1.3-1.1-3.2-0.9-4.2 0.4 0.1 0 11.3 8.4 11.3 17.4s-0.7 6.4-1.5 8.9c-1.3 3.5-2.9 6.6-4.9 9.3 1.7 1 4 2.8 4 4.8s-2.8 5.6-2.8 5.6h-22.4s1-2.5 1-6.6c0-10.9-7.2-19.7-7.2-27.7s1-6.5 1-6.5c-2.2-0.8-3.3 1.6-3.3 1.6s-1-1.6-1-3.9c0-6.6 11.3-19 12.8-27.4 10.3 11.6 20.3 16.3 20.3 16.3l2.7-1.5 2.3 3.6 2.3-4.4 2.8 3.8s3.2-2.8 3.2-8.1-2.5-6.8-4.6-9.5c-5.3-6.5-13.2-16.3-8.9-29.1zm-7.6-42.9c-1-1.4-2.4-2.8-4.2-2.8s-2.9 1.7-2.9 3 0.5 2 1.7 1.9c0 0-0.1-2.3 1.2-2.3s0.5 0.1 0.7 0.3c1.1 0.8 2.7 1 3.6 0zm9.2 4.6h2.8c0.2-0.8 0.4-1.2 1-1.8 0 0-2.2-1.7-4-1.7s-2.4 2-2.4 2 0.6 1.4 2.5 1.4z"/>
</svg>
