<?xml version="1.0" encoding="UTF-8"?>
<svg id="Layer_2" data-name="Layer 2" xmlns="http://www.w3.org/2000/svg" viewBox="0 0 595.28 394.85">
  <defs>
    <style>
      .cls-1, .cls-2 {
        stroke-width: 0px;
      }

      .cls-2 {
        fill: #3c1053;
      }
    </style>
  </defs>
  <g id="Layer_1-2" data-name="Layer 1">
    <g>
      <g>
        <path class="cls-1" d="m582.93,338.63h12.35l-47.52-44.97,44.92-44.97h-11.83l-45.96,44.97,48.05,44.97Zm-61.35,0h8.58v-89.95h-8.58v89.95Zm-46.49-5.33c-24.05,0-39-17.28-39-39.64h0c0-22.36,14.95-39.84,39-39.84,9.24,0,20.67,4.32,27.17,13.98l7.02-5.21c-8.71-11.69-20.67-16.39-34.19-16.39-28.08,0-47.58,20.02-47.58,47.46s19.5,47.27,47.58,47.27c13.52,0,25.48-4.7,34.19-16.39l-7.02-5.21c-6.5,9.65-17.93,13.98-27.17,13.98m-71.29,5.33h8.58v-89.94h-8.58v89.94Zm-40.81,0l26.38-89.94h-8.84l-22.79,79.66-20.81-72.04h-11.72l-21.17,72.04-22.83-79.66h-8.84l26.38,89.94h10.53l21.8-72.42,21.39,72.42h10.53Zm-121.97-41.86c10.01-1.7,22.59-7.02,22.59-23.63,0-23.63-23.89-24.43-31.17-24.43h-25.77v89.94h8.53v-82.33h18.4c18.07,0,21.43,10.59,21.43,16.82s-3.49,16.75-21.43,16.81h-9.81v7.62h8.66l24.67,41.08h9.75l-25.85-41.87Zm-85.19-48.07h-8.07l-40.17,89.94h8.98l10.4-23.88h49.67l10.4,23.88h8.97l-40.17-89.94Zm-25.49,58.45l21.46-49.3,21.45,49.3h-42.91ZM0,248.71h8.84l22.84,79.66,21.57-72.04h10.92l21.21,72.04,22.79-79.66h8.84l-26.38,89.94h-10.53l-21.39-72.41-21.8,72.41h-10.53L0,248.71h8.84"/>
        <path class="cls-1" d="m574.85,365.14h-2.93v28.86h2.93v-15.37h.04l14.4,15.37h4.33l-15.34-15.76,14.52-13.1h-4.2l-13.71,12.97h-.04v-12.97Zm-11.26,22.71c-1.01,1.49-2.25,2.59-3.75,3.26-1.49.69-3.07,1.03-4.72,1.03-1.85,0-3.5-.33-4.99-1.02-1.48-.67-2.74-1.59-3.77-2.74-1.04-1.15-1.83-2.49-2.39-4.01-.55-1.52-.83-3.11-.83-4.79s.27-3.28.82-4.79c.54-1.52,1.33-2.85,2.37-4,1.02-1.15,2.28-2.07,3.76-2.75,1.48-.67,3.16-1.01,5.04-1.01.92,0,1.78.11,2.59.33.79.21,1.54.49,2.21.85.67.35,1.27.76,1.77,1.23.51.46.9.91,1.2,1.37l2.45-1.79c-.49-.71-1.1-1.35-1.84-1.9-.73-.56-1.54-1.04-2.44-1.43-.91-.4-1.85-.72-2.87-.95-1.03-.22-2.06-.31-3.11-.31-2.14,0-4.13.37-5.97,1.13-1.84.77-3.43,1.83-4.77,3.16-1.35,1.34-2.39,2.95-3.16,4.79-.77,1.85-1.14,3.87-1.14,6.08s.37,4.22,1.12,6.08c.74,1.85,1.79,3.44,3.12,4.79,1.32,1.34,2.91,2.4,4.76,3.15,1.84.76,3.84,1.15,6.03,1.15,1.29,0,2.49-.15,3.6-.44,1.1-.29,2.1-.69,3.01-1.18.9-.49,1.71-1.07,2.4-1.72.69-.66,1.29-1.35,1.77-2.08l-2.27-1.48Zm-30.05-22.6h-2.92v28.86h2.92v-28.86Zm-43.65,0h-3.1l8.5,28.86h3.42l7.24-24.77h.08l7.24,24.77h3.42l8.51-28.86h-3.1l-7.04,24.82h-.08l-7.2-24.82h-3.51l-7.2,24.82h-.09l-7.12-24.82Zm-22.88,2.53h5.21c1.08,0,2.07.1,2.97.29.88.2,1.65.49,2.28.9.63.41,1.1.93,1.46,1.59.35.65.53,1.45.53,2.41,0,1.71-.64,2.99-1.91,3.85-1.28.86-3.11,1.29-5.46,1.29h-5.08v-10.32Zm0,12.84h4.88l7.98,13.49h3.58l-8.43-13.74c1.05-.11,2.03-.34,2.93-.73.89-.37,1.67-.89,2.33-1.53.64-.65,1.16-1.39,1.53-2.26.38-.87.57-1.84.57-2.9,0-1.42-.24-2.61-.73-3.58-.49-.98-1.18-1.77-2.06-2.4-.88-.61-1.93-1.04-3.13-1.32-1.2-.27-2.52-.41-3.93-.41h-8.46v28.86h2.93v-13.49Zm-21.46-12.1l6.35,15.33h-12.71l6.35-15.33Zm-7.45,18.02h14.91l3.16,7.57h3.27l-12.37-28.86h-2.85l-12.46,28.86h3.22l3.12-7.57Zm-40.2-21.29h-3.09l8.52,28.86h3.4l7.25-24.77h.08l7.24,24.77h3.42l8.52-28.86h-3.08l-7.07,24.82h-.08l-7.19-24.82h-3.5l-7.22,24.82h-.08l-7.12-24.82Zm-30.29,15.21h13.43v-2.62h-13.43v-9.97h14.46v-2.62h-17.38v28.86h2.93v-13.65Zm-13.35,4.05c-.54,1.52-1.31,2.85-2.35,3.99-1.03,1.13-2.29,2.05-3.77,2.73-1.48.68-3.15,1.02-4.99,1.02s-3.51-.33-4.99-1.02c-1.49-.68-2.72-1.59-3.77-2.73-1.02-1.14-1.81-2.47-2.36-3.99-.54-1.52-.81-3.12-.81-4.81s.27-3.28.81-4.8c.55-1.52,1.34-2.85,2.36-4,1.04-1.16,2.28-2.08,3.77-2.76,1.48-.67,3.13-1.01,4.99-1.01s3.51.34,4.99,1.01c1.48.68,2.74,1.59,3.77,2.76,1.04,1.15,1.81,2.48,2.35,4,.55,1.52.82,3.13.82,4.8s-.27,3.29-.82,4.81m2.78-10.9c-.75-1.84-1.81-3.45-3.15-4.79-1.36-1.34-2.93-2.4-4.77-3.16-1.82-.76-3.82-1.13-5.96-1.13s-4.14.38-5.97,1.13c-1.83.77-3.42,1.82-4.76,3.16-1.34,1.34-2.4,2.95-3.16,4.79-.76,1.85-1.14,3.87-1.14,6.07s.38,4.23,1.14,6.08c.76,1.85,1.82,3.44,3.16,4.79,1.34,1.34,2.93,2.4,4.76,3.15,1.83.76,3.82,1.15,5.97,1.15s4.13-.39,5.96-1.15c1.84-.76,3.41-1.81,4.77-3.15,1.34-1.36,2.4-2.94,3.15-4.79.77-1.85,1.14-3.87,1.14-6.08s-.37-4.22-1.14-6.07m-51.98,8.06l10.79-16.42h-3.42l-8.75,13.99-8.68-13.99h-3.67l10.8,16.42v12.44h2.93v-12.44Zm-26.75-13.8h9.65v-2.62h-22.22v2.62h9.64v26.24h2.93v-26.24Zm-16.69-2.62h-2.93v28.86h2.93v-28.86Zm-9.43,2.78c-.7-.94-1.75-1.77-3.13-2.46-1.37-.7-3.05-1.04-5-1.04-1.05,0-2.14.14-3.22.44-1.08.3-2.08.78-2.97,1.42-.9.66-1.63,1.48-2.19,2.49-.55,1-.83,2.19-.83,3.59,0,1.3.23,2.4.68,3.29.44.9,1.04,1.65,1.77,2.27.73.6,1.56,1.09,2.48,1.48.93.38,1.87.73,2.81,1.03.93.29,1.8.6,2.64.89.85.31,1.59.67,2.23,1.12.66.45,1.18,1.01,1.58,1.68.39.66.59,1.49.59,2.5,0,.92-.2,1.74-.59,2.42-.39.7-.89,1.28-1.51,1.75-.6.48-1.28.82-2.05,1.06-.77.24-1.5.35-2.24.35-1.52,0-2.83-.35-3.97-1.05-1.12-.68-2-1.54-2.62-2.58l-2.54,1.88c.53.7,1.12,1.33,1.79,1.87.69.54,1.42.99,2.21,1.34.78.35,1.6.62,2.48.8.86.18,1.74.27,2.6.27,1.14,0,2.28-.17,3.4-.49,1.13-.34,2.14-.83,3.01-1.52.87-.68,1.58-1.55,2.13-2.59.55-1.04.82-2.3.82-3.73s-.26-2.63-.77-3.56c-.51-.95-1.18-1.73-1.99-2.34-.82-.6-1.73-1.1-2.75-1.49-1-.37-2.02-.72-3.01-1.05-.82-.28-1.59-.55-2.33-.82-.75-.28-1.42-.61-1.98-1.04-.59-.43-1.05-.95-1.4-1.54-.36-.6-.54-1.36-.54-2.28s.18-1.72.56-2.4c.35-.68.85-1.24,1.43-1.7.61-.44,1.27-.78,1.99-1,.75-.21,1.46-.32,2.17-.32,1.38,0,2.56.26,3.53.79.99.53,1.79,1.23,2.41,2.1l2.31-1.87Zm-38.13-.25h5.21c1.08,0,2.07.1,2.97.29.89.2,1.65.49,2.28.9.62.41,1.11.93,1.47,1.59.35.65.52,1.45.52,2.41,0,1.71-.63,2.99-1.91,3.85-1.28.86-3.09,1.29-5.45,1.29h-5.09v-10.32Zm0,12.84h4.88l7.98,13.49h3.59l-8.43-13.74c1.05-.11,2.02-.34,2.93-.73.89-.37,1.67-.89,2.31-1.53.66-.65,1.17-1.39,1.55-2.26.38-.87.56-1.84.56-2.9,0-1.42-.24-2.61-.73-3.58-.49-.98-1.18-1.77-2.04-2.4-.89-.61-1.94-1.04-3.15-1.32-1.21-.27-2.52-.41-3.93-.41h-8.46v28.86h2.93v-13.49Zm-24.5-.25h13.97v-2.61h-13.97v-9.9h14.93v-2.62h-17.86v28.86h18.36v-2.6h-15.43v-11.14Zm-29.22-15.12h-3.18l10.98,28.86h3.11l11.02-28.86h-3.13l-9.36,25.07h-.08l-9.36-25.07Zm-8.12,0h-2.93v28.86h2.93v-28.86Zm-29.59,0h-3.66v28.86h2.93v-24.82h.08l16.78,24.82h3.66v-28.86h-2.93v24.59h-.08l-16.77-24.59Zm-15.84,28.48c1.4-.75,2.5-1.69,3.32-2.84.81-1.13,1.38-2.37,1.7-3.72.31-1.35.45-2.62.45-3.82v-18.1h-2.93v17.78c0,1.16-.12,2.3-.39,3.4-.27,1.1-.72,2.09-1.34,2.93-.6.86-1.42,1.55-2.41,2.09-1.01.52-2.25.79-3.71.79s-2.69-.27-3.71-.79c-1.01-.54-1.81-1.23-2.43-2.09-.6-.84-1.04-1.83-1.32-2.93-.27-1.1-.4-2.24-.4-3.4v-17.78h-2.93v18.1c0,1.2.15,2.47.46,3.82.32,1.35.88,2.59,1.69,3.72.82,1.15,1.92,2.09,3.29,2.84,1.38.75,3.16,1.13,5.34,1.13s3.91-.38,5.31-1.13m-45.16-13.05h13.96v-2.61h-13.96v-9.9h14.94v-2.62h-17.87v28.86h18.36v-2.6h-15.43v-11.14Zm-31.96,13.74h2.93v-13.65h15.71v13.65h2.93v-28.86h-2.93v12.52h-15.71v-12.52h-2.93v28.86Zm-27.55-28.86h22.22v2.62h-9.64v26.24h-2.93v-26.24H2.1v-2.62Z"/>
      </g>
      <polygon class="cls-2" points="90.3 0 210 210 299.04 45.15 388.08 210 507.78 0 90.3 0"/>
    </g>
  </g>
</svg>