<?xml version="1.0" encoding="UTF-8" standalone="no"?>
<!DOCTYPE svg PUBLIC "-//W3C//DTD SVG 1.1//EN" "http://www.w3.org/Graphics/SVG/1.1/DTD/svg11.dtd">
<svg xmlns="http://www.w3.org/2000/svg" xmlns:xlink="http://www.w3.org/1999/xlink" x="0" y="0" version="1.1" width="1200" height="80" viewBox="0, 0, 1200, 80" shape-rendering="geometricPrecision">
	<defs>
		<filter id="maskfilter">
			<feColorMatrix in="SourceGraphic" color-interpolation-filters="sRGB"
				values="0 0 0 0 0
						0 0 0 0 0
						0 0 0 0 0
						0.212656 0.715158 0.072186 0 0"/>
		</filter>

		<filter id="invert">
			<feColorMatrix in="SourceGraphic" type="matrix" color-interpolation-filters="sRGB"
				values="-1 0 0 0 1
						0 -1 0 0 1
						0 0 -1 0 1
						0 0 0 1.01 0"/>
		</filter>

		<path d="m 430,0 570,1000 424,-785 424,785 570,-1000" id="window" fill="black" />

		<g id="logotype-and-descriptor">
			<path d="
				m 0,56.85
				42.097,0
				108.735,379.308
				102.715,-343.038
				52.007,0
				101,343.038
				108.538,-379.308
				42.1,0
				-125.598,428.3
				-50.161,0
				-101.851,-344.83
				-103.813,344.83
				-50.156,0
				-125.613,-428.3
				42.097,0

				m 578.615,278.3 102.16,-234.75 102.16,234.75 -204.32,0 z
				m 121.36,-278.3 -38.41,0 -191.29,428.3 42.74,0 49.51,-113.73 236.52,0 49.51,113.73 42.73,0 -191.31,-428.3

				m 405.66,228.898 c 47.67,-8.117 107.59,-33.449 107.59,-112.538 0,-112.54 -113.75,-116.36 -148.42,-116.36 l -122.72,0 0,428.3 40.62,0 0,-392.03 87.61,0 c 86.06,0 102.06,50.44 102.06,80.09 0,29.55 -16.63,79.769 -102.06,80.038 l -46.73,0 0,36.293 41.22,0 117.46,195.609 46.45,0 -123.08,-199.402

				m 580.81,199.302 125.63,-428.3 -42.11,0 -108.54,379.308 -99.1,-343.038 -55.82,0 -100.82,343.038 -108.72,-379.308 -42.11,0 125.64,428.3 50.13,0 103.81,-344.83 101.88,344.83 50.13,0

				m 194.32,0 40.86,0 0,-428.3 -40.86,0 0,428.3 z

				m 339.49,-25.39 c -114.53,0 -185.72,-82.289 -185.72,-188.77 l 0.02,0 c 0,-106.49 71.17,-189.71 185.7,-189.71 43.97,0 98.44,20.57 129.38,66.56 l 33.43,-24.82 c -41.46,-55.67 -98.43,-78.05 -162.81,-78.05 -133.73,0 -226.58,95.33 -226.58,226.02 0,130.7 92.85,225.071 226.58,225.071 64.38,0 121.35,-22.383 162.81,-78.063 l -33.43,-24.808 c -30.94,45.96 -85.41,66.57 -129.38,66.57

				m 221.35,25.39 40.8594,0 0,-428.301 -40.8594,0 0,428.301 z
				m 292.13,0 58.81,0 -226.31,-214.14 213.92,-214.16 -56.32,0 -218.87,214.16 228.77,214.14 z
				" id="logotype" fill="black" />

			<g transform="translate(10)" id="descriptor">
				<g transform="scale(0.99865, 1)">
					<path d="
					m 0,642.7
					105.961,0
					0,12.472
					-45.996,0
					0,124.95
					-13.969,0
					0,-124.95
					-45.996,0
					0,-12.472

					m 131.352,137.422 13.973,0 0,-64.981 74.925,0 0,64.981 13.969,0 0,-137.422 -13.969,0 0,59.601 -74.925,0 0,-59.601 -13.973,0 0,137.422 z

					m 152.402,-65.403 66.578,0 0,-12.418 -66.578,0 0,-47.129 71.223,0 0,-12.472 -85.195,0 0,137.422 87.539,0 0,-12.371 -73.567,0 0,-53.032 z

					M 499.112,776.863 c 6.65,-3.57 11.9,-8.058 15.84,-13.511 3.85,-5.391 6.57,-11.289 8.07,-17.707 1.5,-6.434 2.15,-12.481 2.15,-18.204 l 0,-86.179 -13.97,0 0,84.679 c 0,5.543 -0.56,10.922 -1.87,16.18 -1.32,5.242 -3.43,9.942 -6.38,13.973 -2.86,4.078 -6.75,7.359 -11.491,9.937 -4.824,2.492 -10.73,3.75 -17.672,3.75 -7.031,0 -12.847,-1.258 -17.679,-3.75 -4.829,-2.578 -8.626,-5.859 -11.583,-9.937 -2.855,-4.031 -4.968,-8.731 -6.281,-13.973 -1.312,-5.258 -1.922,-10.637 -1.922,-16.18 l 0,-84.679 -13.968,0 0,86.179 c 0,5.723 0.703,11.77 2.203,18.204 1.504,6.418 4.218,12.316 8.062,17.707 3.938,5.453 9.145,9.941 15.711,13.511 6.606,3.559 15.047,5.348 25.457,5.348 10.223,0 18.656,-1.789 25.323,-5.348

					m 75.52,-135.601 -17.43,0 0,137.422 13.97,0 0,-118.192 0.37,0 79.99,118.192 17.44,0 0,-137.422 -13.97,0 0,117.082 -0.38,0 -79.99,-117.082 z

					m 141.09,0 -13.98,0 0,137.422 13.98,0 0,-137.422 z

					m 38.75,0 -15.15,0 52.37,137.422 14.82,0 52.56,-137.422 -14.95,0 -44.64,119.383 -0.38,0 -44.63,-119.383 z

					m 139.34,72.019 66.58,0 0,-12.418 -66.58,0 0,-47.129 71.18,0 0,-12.472 -85.15,0 0,137.422 87.54,0 0,-12.371 -73.57,0 0,-53.032 z

					m 116.84,1.172 23.26,0 38.07,64.231 17.12,0 -40.18,-65.403 c 5.01,-0.519 9.65,-1.648 13.97,-3.468 4.26,-1.782 7.97,-4.258 11.01,-7.27 3.15,-3.09 5.58,-6.609 7.41,-10.781 1.83,-4.117 2.68,-8.77 2.68,-13.789 0,-6.75 -1.13,-12.418 -3.47,-17.059 -2.35,-4.652 -5.63,-8.453 -9.75,-11.402 -4.23,-2.899 -9.24,-4.969 -15.01,-6.289 -5.77,-1.262 -12,-1.961 -18.75,-1.961 l -40.33,0 0,137.422 13.97,0 0,-64.231 z

					m 0,-61.14 24.86,0 c 5.15,0 9.88,0.468 14.16,1.359 4.26,0.941 7.87,2.34 10.87,4.281 2.96,1.961 5.3,4.442 6.99,7.578 1.69,3.09 2.48,6.903 2.48,11.442 0,8.16 -3,14.261 -9.09,18.332 -6.1,4.09 -14.72,6.148 -25.98,6.148 l -24.29,0 0,-49.14 z

					m 181.83,1.171 c -3.33,-4.5 -8.35,-8.429 -14.91,-11.73 -6.57,-3.32 -14.53,-4.91 -23.86,-4.91 -5.02,0 -10.18,0.66 -15.34,2.109 -5.16,1.41 -9.94,3.699 -14.16,6.75 -4.31,3.141 -7.78,7.078 -10.41,11.871 -2.62,4.778 -3.98,10.438 -3.98,17.098 0,6.199 1.08,11.402 3.23,15.672 2.11,4.308 4.93,7.879 8.44,10.828 3.47,2.859 7.41,5.199 11.82,7.031 4.41,1.828 8.91,3.481 13.41,4.879 4.41,1.41 8.58,2.852 12.61,4.262 4.03,1.461 7.55,3.187 10.64,5.34 3.14,2.168 5.63,4.8 7.5,7.98 1.88,3.141 2.82,7.129 2.82,11.91 0,4.399 -0.94,8.297 -2.82,11.539 -1.87,3.321 -4.26,6.078 -7.21,8.34 -2.86,2.301 -6.1,3.942 -9.76,5.07 -3.65,1.122 -7.17,1.68 -10.69,1.68 -7.22,0 -13.5,-1.68 -18.94,-5.012 -5.34,-3.25 -9.52,-7.367 -12.47,-12.289 l -12.1,8.961 c 2.53,3.328 5.35,6.321 8.53,8.899 3.29,2.582 6.76,4.691 10.55,6.383 3.75,1.679 7.65,2.957 11.82,3.796 4.12,0.84 8.3,1.27 12.43,1.27 5.43,0 10.87,-0.797 16.17,-2.309 5.4,-1.601 10.18,-3.929 14.39,-7.211 4.14,-3.238 7.5,-7.367 10.14,-12.339 2.62,-4.969 3.93,-10.93 3.93,-17.719 0,-6.852 -1.22,-12.512 -3.66,-16.961 -2.44,-4.52 -5.62,-8.219 -9.47,-11.121 -3.89,-2.86 -8.25,-5.258 -13.13,-7.09 -4.78,-1.777 -9.65,-3.457 -14.39,-5.008 -3.89,-1.32 -7.6,-2.582 -11.12,-3.879 -3.56,-1.332 -6.74,-2.922 -9.46,-4.941 -2.82,-2.012 -5.02,-4.5 -6.66,-7.309 -1.69,-2.863 -2.58,-6.48 -2.58,-10.883 0,-4.41 0.89,-8.199 2.67,-11.437 1.69,-3.231 4.04,-5.902 6.85,-8.063 2.91,-2.109 6.05,-3.707 9.47,-4.789 3.56,-0.968 6.98,-1.488 10.36,-1.488 6.57,0 12.2,1.207 16.83,3.738 4.69,2.539 8.54,5.871 11.49,9.993 l 11.02,-8.911 z

					m 44.98,-13.222 -13.96,0 0,137.422 13.96,0 0,-137.422 z

					m 79.59,12.472 46.05,0 0,-12.472 -105.97,0 0,12.472 45.96,0 0,124.95 13.96,0 0,-124.95 z

					m 127.56,65.727 51.43,-78.199 -16.31,0 -41.73,66.621 -41.36,-66.621 -17.49,0 51.49,78.199 0,59.223 13.97,0 0,-59.223 z

					m 247.85,-38.387 c -3.57,-8.761 -8.64,-16.41 -15.01,-22.793 -6.48,-6.367 -13.97,-11.429 -22.75,-15.058 -8.71,-3.602 -18.23,-5.379 -28.41,-5.379 -10.22,0 -19.73,1.777 -28.45,5.379 -8.72,3.629 -16.32,8.691 -22.7,15.058 -6.38,6.383 -11.44,14.032 -15.05,22.793 -3.61,8.809 -5.44,18.43 -5.44,28.918 0,10.512 1.83,20.129 5.44,28.942 3.61,8.808 8.67,16.359 15.05,22.828 6.38,6.383 13.98,11.402 22.7,15 8.72,3.609 18.23,5.449 28.45,5.449 10.18,0 19.7,-1.84 28.41,-5.449 8.78,-3.598 16.27,-8.617 22.75,-15 6.37,-6.469 11.44,-14.02 15.01,-22.828 3.65,-8.813 5.42,-18.43 5.42,-28.942 0,-10.488 -1.77,-20.109 -5.42,-28.918

					m -13.23,51.899 c -2.58,7.23 -6.28,13.55 -11.21,18.988 -4.92,5.391 -10.93,9.75 -17.96,12.98 -7.03,3.243 -15,4.84 -23.77,4.84 -8.86,0 -16.74,-1.597 -23.82,-4.84 -7.08,-3.23 -12.98,-7.589 -17.95,-12.98 -4.88,-5.438 -8.64,-11.758 -11.25,-18.988 -2.58,-7.219 -3.85,-14.86 -3.85,-22.879 0,-7.973 1.27,-15.621 3.85,-22.871 2.61,-7.231 6.37,-13.559 11.25,-19.051 4.97,-5.52 10.87,-9.891 17.95,-13.129 7.08,-3.18 14.96,-4.82 23.82,-4.82 8.77,0 16.74,1.64 23.77,4.82 7.03,3.238 13.04,7.609 17.96,13.129 4.93,5.492 8.63,11.82 11.21,19.051 2.62,7.25 3.94,14.898 3.94,22.871 0,8.019 -1.32,15.66 -3.94,22.879

					m 63.67,-19.27 64.05,0 0,-12.469 -64.05,0 0,-47.5 68.92,0 0,-12.472 -82.89,0 0,137.422 13.97,0 0,-64.981 z

					m 144.41,-72.441 -14.73,0 40.61,137.422 16.23,0 34.6,-117.961 0.37,0 34.51,117.961 16.31,0 40.6,-137.422 -14.71,0 -33.67,118.199 -0.38,0 -34.31,-118.199 -16.69,0 -34.42,118.199 -0.38,0 -33.94,-118.199 z

					m 191.69,101.371 71.08,0 15.09,36.051 15.57,0 -58.98,-137.422 -13.6,0 -59.41,137.422 15.35,0 14.9,-36.051 z

					m 35.54,-85.801 30.29,73.012 -60.58,0 30.29,-73.012 z

					m 102.31,57.621 23.25,0 38.07,64.231 17.07,0 -40.18,-65.403 c 5.01,-0.519 9.7,-1.648 13.97,-3.468 4.27,-1.782 7.97,-4.258 11.11,-7.27 3.05,-3.09 5.53,-6.609 7.32,-10.781 1.82,-4.117 2.71,-8.77 2.71,-13.789 0,-6.75 -1.12,-12.418 -3.47,-17.059 -2.34,-4.652 -5.62,-8.453 -9.8,-11.402 -4.21,-2.899 -9.23,-4.969 -14.95,-6.289 -5.72,-1.262 -12,-1.961 -18.75,-1.961 l -40.32,0 0,137.422 13.97,0 0,-64.231 z

					m 0,-61.14 24.84,0 c 5.16,0 9.86,0.468 14.16,1.359 4.22,0.941 7.87,2.34 10.88,4.281 3,1.961 5.26,4.442 6.94,7.578 1.69,3.09 2.53,6.903 2.53,11.442 0,8.16 -3.04,14.261 -9.1,18.332 -6.09,4.09 -14.81,6.148 -26.01,6.148 l -24.24,0 0,-49.14 z

					m 109.09,-12.051 -14.76,0 40.54,137.422 16.32,0 34.55,-117.961 0.38,0 34.56,117.961 16.31,0 40.56,-137.422 -14.77,0 -33.57,118.199 -0.37,0 -34.33,-118.199 -16.73,0 -34.32,118.199 -0.42,0 -33.95,-118.199 z

					m 208.15,0 -13.93,0 0,137.422 13.93,0 0,-137.422 z

					M 2677.382,748.863 c -4.84,7.121 -10.75,12.328 -17.87,15.512 -7.13,3.289 -14.63,4.886 -22.51,4.886 -8.81,0 -16.69,-1.597 -23.77,-4.84 -7.08,-3.179 -13.08,-7.589 -17.95,-13.027 -4.98,-5.48 -8.72,-11.859 -11.4,-19.082 -2.64,-7.258 -3.99,-14.809 -3.99,-22.84 0,-7.961 1.32,-15.597 3.9,-22.82 2.57,-7.231 6.32,-13.559 11.29,-19.039 4.88,-5.481 10.88,-9.852 17.91,-13.09 7.08,-3.18 15.05,-4.82 24.01,-4.82 4.41,0 8.48,0.511 12.34,1.59 3.79,0.98 7.35,2.339 10.54,4.031 3.19,1.687 6.05,3.609 8.44,5.867 2.44,2.203 4.31,4.363 5.72,6.551 l 11.68,-8.52 c -2.35,-3.379 -5.21,-6.429 -8.78,-9.058 -3.47,-2.661 -7.36,-4.961 -11.61,-6.84 -4.33,-1.922 -8.82,-3.422 -13.7,-4.5 -4.88,-1.031 -9.8,-1.5 -14.81,-1.5 -10.22,0 -19.7,1.777 -28.43,5.379 -8.76,3.629 -16.35,8.691 -22.73,15.058 -6.43,6.383 -11.39,14.032 -15.05,22.793 -3.66,8.809 -5.44,18.43 -5.44,28.918 0,10.512 1.78,20.129 5.35,28.942 3.52,8.808 8.53,16.359 14.86,22.828 6.32,6.383 13.88,11.402 22.69,15 8.77,3.609 18.34,5.449 28.75,5.449 6.18,0 11.89,-0.707 17.16,-2.066 5.24,-1.403 10.03,-3.282 14.34,-5.633 4.31,-2.34 8.15,-5.098 11.44,-8.199 3.28,-3.141 6.14,-6.43 8.44,-9.891 l -10.82,-7.039 z

					m 53.69,-108.121 -13.98,0 0,137.422 13.98,0 0,-73.18 0.18,0 68.66,73.18 20.62,0 -73.13,-75.063 69.24,-62.359 -20.02,0 -65.37,61.75 -0.18,0 0,-61.75" fill="black" />
				</g>
			</g>
		</g>
	</defs>

	<g filter="url(#invert)">
		<g filter="url(#maskfilter)">
			<rect x="0" y="0" width="100%" height="100%" fill="white" />
			<g transform="translate(125.652) scale(0.03582089552)">
				<use x="0" y="0" xlink:href="#window" />
			</g>
			<g transform="translate(112.707, 40) scale(0.04469987228)">
				<use x="0" y="0" xlink:href="#logotype-and-descriptor" />
			</g>
		</g>
	</g>
</svg>