<?xml version="1.0" encoding="UTF-8"?>
<svg id="Layer_1" xmlns="http://www.w3.org/2000/svg" version="1.1" viewBox="0 0 829.9 382.1">
  <!-- Generator: Adobe Illustrator 29.3.1, SVG Export Plug-In . SVG Version: 2.1.0 Build 151)  -->
  <defs>
    <style>
      .st0 {
        fill: #0c0c0c;
      }
    </style>
  </defs>
  <path class="st0" d="M111.3,158.9v-47.7h18.2v48.3c0,7.2,3.7,12,12.7,12s12.5-5.1,12.5-12.4v-48h18.2v47.7c0,17-10.2,27.3-30.7,27.3s-30.9-10.1-30.9-27.3ZM225.8,184.8h18.3v-73.6h-17.8l.2,44.8h-.2l-26.9-44.8h-18.3v73.6h17.8l-.2-44.8h.2l26.9,44.8ZM270.7,111.2h-18.2v73.6h18.2v-73.6ZM320.5,184.8l24.2-73.6h-18.4l-14.8,48.4-15.1-48.4h-18.9l24.3,73.6h18.8ZM298,197l-14.8,48.4-12.2-48.4h-18.7l-11.6,48.4-15.1-48.4h-18.9l24.3,73.6h18.8l11.9-41.1,11.8,41.1h18.8l24.2-73.6h-18.4ZM518.2,245.4l-12.2-48.4h-18.7l-11.6,48.4-15.1-48.4h-18.9l24.3,73.6h18.8l11.9-41.1,11.8,41.1h18.8l24.2-73.6h-18.4l-14.8,48.4ZM349.3,197h-21.9l-24.9,73.6h18.3l4.2-13.3h25.7l4.3,13.3h19.2l-25-73.6ZM329.3,244.2l8.6-28.2h.2l8.4,28.2h-17.3ZM438.7,249.8c-1-7.3-4.3-11.3-10.7-13.5v-.3c8.5-3,12.8-9.3,12.8-17.8,0-13.7-11.1-21.2-25.7-21.2h-35.2v73.6h18.2v-27.6h11c7.8,0,11.3,3.7,12.3,10.5,1.1,7.3.8,15.9,2.8,17.1h17.7v-.9c-2.6-.9-1.5-10.2-3.1-19.9ZM411.8,229.5h-13.7v-18.1h14.1c7,0,10.5,3.8,10.5,9.2s-3.7,9-10.9,9ZM555.3,270.6h18.2v-73.6h-18.2v73.6ZM615.1,257.3c-10.9,0-17.7-9.8-17.7-23.3s5.7-23.4,17.6-23.4,13,5,13.9,11.6h18.2c-.9-8.2-4.6-15.4-11-20.3-5.3-4-12.5-6.5-21-6.5-21.9,0-36.2,16.6-36.2,38.5s14.7,38.2,36.3,38.2,17.9-2.9,23.6-8.3c5-4.8,8.3-11.5,8.9-18.8h-18.2c-.8,7.1-6.2,12.3-14.3,12.3ZM407.7,169.4h-38.2v-15.8h32.2v-14.2h-32.2v-13.2h37.6v-15h-55.8v73.6h56.4v-15.4ZM475.6,164c-1-7.3-4.3-11.3-10.7-13.5v-.3c8.5-3,12.8-9.3,12.8-17.8,0-13.7-11.1-21.2-25.7-21.2h-35.2v73.6h18.2v-27.6h11c7.8,0,11.3,3.7,12.3,10.5,1.1,7.3.8,16,2.8,17.1h17.7v-.9c-2.6-.9-1.5-10.2-3.1-19.9ZM448.6,143.7h-13.7v-18.1h14.1c7,0,10.5,3.8,10.5,9.2s-3.7,9-10.9,9ZM517,172.1c-8.8,0-13.6-3.1-14.4-10.5h-18.3c.4,16.3,13.3,24.9,32.8,24.9s30.2-8.5,30.2-24-12.4-20-26.1-23.2c-11-2.5-16.7-3.7-16.7-8.9s4.2-6.9,10.6-6.9,11.1,3.2,11.8,8.9h17.8c-.7-15.4-13.1-22.7-29-22.7s-29.2,6.9-29.2,22.7,13.5,19.4,26.3,22.3c10.1,2.5,16.1,3.7,16.1,9.6s-5.9,7.7-11.8,7.7ZM555.3,184.8h18.2v-73.6h-18.2v73.6ZM603.1,184.8h18.2v-58.2h23.2v-15.4h-64.4v15.4h23v58.2ZM164.6,247.5h12.4v-19.4h18.6v-10h-18.6v-10.1h21.9v-10.4h-34.3v50ZM134.5,195.8c-15.1,0-24.7,11.1-24.7,26.1s9.6,26.1,24.7,26.1,24.7-11.1,24.7-26.1-9.6-26.1-24.7-26.1ZM134.6,237.9c-8,0-12.2-6.9-12.2-16s4.1-16.1,12.2-16.1,12.1,7,12.1,16.1-4,16-12.1,16ZM676.4,184.8h18.2v-27.2l26.1-46.4h-19.3l-15.6,30.3h-.2l-15.5-30.3h-19.9l26.1,46.4v27.2ZM653.9,196.9h18.2v26.7l25.4-26.7h21.7l-28.3,29.6,29.9,44.1h-21.2l-21.2-31.9-6.2,6.5v25.4h-18.2v-73.7Z"/>
</svg>