<svg xmlns="http://www.w3.org/2000/svg" version="1.1" viewBox="0 0 146 39">
<path fill="#0d0e0e" d="M.35,11.81V.41h4.36v11.54c0,1.72.89,2.88,3.03,2.88,2.02,0,2.98-1.23,2.98-2.95V.41h4.36v11.39c0,4.06-2.44,6.52-7.33,6.52S.35,15.92.35,11.81ZM27.71,18.01h4.38V.41h-4.26l.05,10.69h-.05L21.41.41h-4.38v17.59h4.26l-.05-10.69h.05l6.42,10.69ZM38.45.41h-4.36v17.59h4.36V.41ZM50.35,18.01L56.13.41h-4.4l-3.54,11.57L44.57.41h-4.53l5.81,17.59h4.5ZM44.96,20.91l-3.54,11.57-2.91-11.57h-4.47l-2.78,11.57-3.62-11.57h-4.53l5.81,17.59h4.5l2.84-9.83,2.82,9.83h4.5l5.78-17.59h-4.4ZM97.59,32.49l-2.91-11.57h-4.47l-2.78,11.57-3.62-11.57h-4.53l5.81,17.59h4.5l2.84-9.83,2.82,9.83h4.5l5.78-17.59h-4.4l-3.54,11.57ZM57.22,20.92h-5.23l-5.95,17.59h4.38l1.01-3.17h6.15l1.03,3.17h4.58l-5.97-17.59ZM52.44,32.21l2.06-6.74h.05l2.02,6.74h-4.13ZM78.59,33.54c-.25-1.75-1.03-2.71-2.56-3.22v-.08c2.04-.71,3.05-2.22,3.05-4.26,0-3.27-2.66-5.07-6.15-5.07h-8.41v17.59h4.35v-6.59h2.63c1.87,0,2.71.88,2.93,2.51.27,1.75.2,3.81.66,4.08h4.23v-.22c-.62-.22-.37-2.43-.74-4.75ZM72.15,28.69h-3.27v-4.33h3.37c1.68,0,2.51.91,2.51,2.19s-.88,2.14-2.61,2.14ZM106.44,38.51h4.36v-17.59h-4.36v17.59ZM120.74,35.34c-2.61,0-4.23-2.34-4.23-5.56s1.35-5.59,4.21-5.59c1.87,0,3.1,1.21,3.32,2.78h4.36c-.22-1.97-1.11-3.69-2.63-4.85-1.26-.96-2.98-1.55-5.02-1.55-5.24,0-8.66,3.96-8.66,9.2s3.52,9.13,8.69,9.13c2.49,0,4.28-.69,5.63-1.99,1.21-1.16,1.99-2.76,2.12-4.5h-4.36c-.2,1.7-1.48,2.93-3.42,2.93ZM71.18,14.32h-9.13v-3.76h7.7v-3.4h-7.7v-3.15h8.98V.41h-13.34v17.59h13.48v-3.69ZM87.39,13.04c-.25-1.75-1.03-2.71-2.56-3.22v-.08c2.04-.71,3.05-2.21,3.05-4.26,0-3.27-2.66-5.07-6.15-5.07h-8.41v17.59h4.35v-6.59h2.63c1.87,0,2.71.89,2.93,2.51.27,1.75.2,3.82.66,4.08h4.23v-.22c-.62-.22-.37-2.44-.74-4.75ZM80.95,8.19h-3.27V3.86h3.37c1.67,0,2.51.91,2.51,2.19s-.89,2.14-2.61,2.14ZM97.3,14.98c-2.09,0-3.25-.74-3.44-2.51h-4.38c.1,3.89,3.17,5.95,7.85,5.95,4.06,0,7.21-2.04,7.21-5.73s-2.95-4.77-6.23-5.54c-2.63-.59-3.99-.89-3.99-2.12,0-.98,1.01-1.65,2.53-1.65,1.62,0,2.66.76,2.83,2.12h4.26c-.17-3.69-3.12-5.41-6.94-5.41s-6.99,1.65-6.99,5.41,3.22,4.63,6.27,5.34c2.41.59,3.84.89,3.84,2.29,0,1.33-1.4,1.85-2.83,1.85ZM106.44,18.01h4.36V.41h-4.36v17.59ZM117.86,18.01h4.36V4.11h5.54V.41h-15.39v3.69h5.5v13.9ZM13.09,32.98h2.96v-4.64h4.45v-2.39h-4.45v-2.42h5.24v-2.49h-8.19v11.94ZM5.89,20.64C2.29,20.64,0,23.3,0,26.87s2.29,6.23,5.89,6.23,5.91-2.66,5.91-6.23-2.29-6.23-5.91-6.23ZM5.91,30.69c-1.92,0-2.91-1.65-2.91-3.82s.98-3.84,2.91-3.84,2.89,1.67,2.89,3.84-.95,3.82-2.89,3.82ZM135.38,18.01h4.36v-6.5l6.23-11.1h-4.6l-3.72,7.23h-.05l-3.7-7.23h-4.75l6.23,11.1v6.5ZM130.01,20.9h4.36v6.38l6.06-6.38h5.17l-6.75,7.07,7.15,10.55h-5.08l-5.08-7.61-1.48,1.55v6.06h-4.36v-17.62Z"/>
</svg>
